M48
;Layer_Color=9474304
;FILE_FORMAT=4:4
METRIC,LZ
;TYPE=PLATED
T1F00S00C0.3000
T3F00S00C1.0000
T4F00S00C1.1000
T5F00S00C1.5000
T6F00S00C3.2000
;TYPE=NON_PLATED
T7F00S00C3.2000
%
T01
X00375Y00071
X00402Y00064
X00439Y00067
X00462Y00042
X00491Y00096
X00431Y00119
X00636Y00118
X00683Y00126
X00293Y00101
X00262Y00108
X00246Y00111
X00258Y00131
X00228Y00092
X00259Y00052
X0031005Y0006705
X00321Y00066
X0016Y00129
X00088Y00118
Y00109
X00104Y00088
X00057Y00082
X00055Y00144
X00063Y00162
X00103Y00182
Y002
X00116Y00174
X00158Y001875
X00167Y00194
X00175Y00189
X001745Y00207
X00183Y00203
X00149Y00201
X00138Y00225
X00113Y00261
X00100836Y00273848
X00065Y00265399
X00042Y00281
X00021Y0028
X00036Y00235
X00048Y00215
Y00208
X00074Y00214
X00093Y0032
Y00376
X00101Y00369
X00093Y00399
X00074Y0044
X00053Y00523
X00212Y004805
X00226Y00429999
X002105Y00412
X0021Y00393
X00197Y00377
X00194Y00349
X00205
X00217Y00344
X00174Y00276
X00221Y00207
X00253Y002
X00304Y00172
X00328
X00304Y00232
X00330439Y00290561
X003Y00474
X00268Y00443
X00184Y00438
X00166Y00408
X00393Y00251
X004805Y0025
X00468Y00177
X00637Y00198
X00642Y00159
X00659Y00162
X00669357Y00163067
X00661Y00235
X00649Y00269
X00608Y00289
X0060125Y0041525
X005915Y004325
X00597Y0044
X00606Y00439875
X00547Y00449
X0063Y0049
T03
X00202Y00016
X00247
Y00081
X00202
X00605Y00262
Y00307
X0067
Y00262
T04
X00381Y000254
X004064
X004318
X004572
X00508
X005334
X005588
X005842
X006096
X00635
X0062065Y0013097
X0059525
X0056985
X0054445
X0051905
X0049365
X0046825
X0044285
X0041745
X0039205
X0036665
X0034125
X0031585
X0029045
X002794Y000254
X003048
X003302
X003556
X001734Y00081
X00148
X001226
X0029045Y0020193
X0031585
X0034125
X0034036Y00508
X0031496
X0028956
X0026416
X0023876
X0021336
X0018796
X00146Y00446
Y004206
Y003952
Y003698
X000762Y0038608
Y0041148
X000508
X000254
Y0038608
X000508
Y00341998
X000254
Y00316598
X000508
Y0047244
Y0049784
X000762
Y0047244
X000254
Y0049784
X0036576Y00508
X0039116
X0041656
X004572
X004826
X00508
X005334
X005588
X005842
X006096
X00635
X00665Y004714
Y00446
Y004206
X0062065Y0020193
X0059525
X0056985
X0054445
X0051905
X0049365
X0046825
X0044285
X0041745
X0039205
X0036665
T05
X00025Y00022
Y00124
T06
X006604Y000762
X001397Y000254
X006604Y003556
T07
X001524Y00508
M30
