G04*
G04 #@! TF.GenerationSoftware,Altium Limited,Altium Designer,20.0.13 (296)*
G04*
G04 Layer_Color=8388736*
%FSLAX44Y44*%
%MOMM*%
G71*
G01*
G75*
%ADD20R,1.9000X1.9000*%
%ADD34R,1.8000X3.2000*%
%ADD35C,3.0480*%
%ADD36R,1.3000X0.8000*%
%ADD37R,0.8000X1.3000*%
%ADD38R,2.8000X2.7000*%
%ADD39R,2.7000X2.8000*%
%ADD40R,1.4500X0.5000*%
%ADD41R,1.6000X1.8000*%
%ADD42R,2.1000X2.1000*%
%ADD43R,2.9000X2.2000*%
%ADD44R,0.5805X1.5305*%
%ADD45R,1.5305X0.5805*%
%ADD46R,0.7588X0.8858*%
%ADD47R,0.8858X0.7588*%
%ADD48R,1.0000X1.0000*%
%ADD49R,1.5000X0.9000*%
%ADD50R,0.9000X1.5000*%
%ADD51R,1.1000X0.8000*%
%ADD52R,1.5000X1.1000*%
%ADD53R,1.1000X1.5000*%
%ADD54R,3.7000X2.4000*%
%ADD55R,0.8000X2.4000*%
%ADD56C,1.7240*%
%ADD57C,7.2000*%
%ADD58R,1.8000X2.2000*%
%ADD59O,1.8000X2.2000*%
%ADD60C,4.2000*%
G04:AMPARAMS|DCode=61|XSize=2.2mm|YSize=1.4mm|CornerRadius=0.4mm|HoleSize=0mm|Usage=FLASHONLY|Rotation=0.000|XOffset=0mm|YOffset=0mm|HoleType=Round|Shape=RoundedRectangle|*
%AMROUNDEDRECTD61*
21,1,2.2000,0.6000,0,0,0.0*
21,1,1.4000,1.4000,0,0,0.0*
1,1,0.8000,0.7000,-0.3000*
1,1,0.8000,-0.7000,-0.3000*
1,1,0.8000,-0.7000,0.3000*
1,1,0.8000,0.7000,0.3000*
%
%ADD61ROUNDEDRECTD61*%
%ADD62C,1.9000*%
%ADD63R,1.9000X1.9000*%
%ADD64C,2.1000*%
%ADD65R,2.1000X2.1000*%
%ADD66C,0.8000*%
D20*
X146000Y446000D02*
D03*
X665000Y471400D02*
D03*
D34*
X74000Y60000D02*
D03*
Y19000D02*
D03*
X75000Y134500D02*
D03*
Y93500D02*
D03*
D35*
X106000Y516000D02*
D03*
X670000Y509000D02*
D03*
Y21000D02*
D03*
X225000Y48000D02*
D03*
D36*
X168500Y442500D02*
D03*
Y433000D02*
D03*
Y423500D02*
D03*
X195500Y442500D02*
D03*
Y423500D02*
D03*
D37*
X671500Y173500D02*
D03*
X662000D02*
D03*
X652500D02*
D03*
X671500Y146500D02*
D03*
X652500D02*
D03*
X218500Y142500D02*
D03*
X228000D02*
D03*
X237500D02*
D03*
X218500Y169500D02*
D03*
X237500D02*
D03*
X54500Y248500D02*
D03*
X64000D02*
D03*
X73500D02*
D03*
X54500Y275500D02*
D03*
X73500D02*
D03*
D38*
X256000Y319500D02*
D03*
Y270500D02*
D03*
D39*
X413500Y284000D02*
D03*
X462500D02*
D03*
D40*
X38000Y201000D02*
D03*
Y194500D02*
D03*
Y188000D02*
D03*
Y181500D02*
D03*
Y175000D02*
D03*
D41*
X35750Y220000D02*
D03*
Y156000D02*
D03*
D42*
X11250Y200000D02*
D03*
Y176000D02*
D03*
X202000Y16000D02*
D03*
D43*
X27000Y89000D02*
D03*
Y58000D02*
D03*
D44*
X182000Y258000D02*
D03*
X174000D02*
D03*
X166000D02*
D03*
X158000D02*
D03*
X150000D02*
D03*
X142000D02*
D03*
X134000D02*
D03*
X126000D02*
D03*
Y342000D02*
D03*
X134000D02*
D03*
X142000D02*
D03*
X150000D02*
D03*
X158000D02*
D03*
X166000D02*
D03*
X174000D02*
D03*
X182000D02*
D03*
D45*
X112000Y272000D02*
D03*
Y280000D02*
D03*
Y288000D02*
D03*
Y296000D02*
D03*
Y304000D02*
D03*
Y312000D02*
D03*
Y320000D02*
D03*
Y328000D02*
D03*
X196000D02*
D03*
Y320000D02*
D03*
Y312000D02*
D03*
Y304000D02*
D03*
Y296000D02*
D03*
Y288000D02*
D03*
Y280000D02*
D03*
Y272000D02*
D03*
D46*
X599808Y244000D02*
D03*
X624192D02*
D03*
D47*
X16000Y272192D02*
D03*
Y247808D02*
D03*
D48*
X237000Y402000D02*
D03*
X253000D02*
D03*
X237000Y384000D02*
D03*
X253000D02*
D03*
X236000Y422000D02*
D03*
X252000D02*
D03*
X596000Y396000D02*
D03*
X612000D02*
D03*
D49*
X171000Y394500D02*
D03*
Y375500D02*
D03*
X92000Y260500D02*
D03*
Y279500D02*
D03*
X224000Y290500D02*
D03*
Y271500D02*
D03*
X617000Y479000D02*
D03*
Y460000D02*
D03*
X596000Y459500D02*
D03*
Y478500D02*
D03*
X640000Y439500D02*
D03*
Y420500D02*
D03*
X673000Y193500D02*
D03*
Y212500D02*
D03*
Y224500D02*
D03*
Y243500D02*
D03*
X271000Y63500D02*
D03*
Y44500D02*
D03*
X645000Y225500D02*
D03*
Y244500D02*
D03*
X36000Y272500D02*
D03*
Y253500D02*
D03*
D50*
X268500Y401000D02*
D03*
X287500D02*
D03*
Y383000D02*
D03*
X268500D02*
D03*
X129500Y215000D02*
D03*
X148500D02*
D03*
X101500Y350000D02*
D03*
X82500D02*
D03*
X73000Y163000D02*
D03*
X92000D02*
D03*
X73500Y200000D02*
D03*
X92500D02*
D03*
Y182000D02*
D03*
X73500D02*
D03*
X348500Y90000D02*
D03*
X329500D02*
D03*
X310500D02*
D03*
X329500D02*
D03*
X393500Y107000D02*
D03*
X374500D02*
D03*
X605500Y228000D02*
D03*
X624500D02*
D03*
X411500D02*
D03*
X430500D02*
D03*
X232500Y441000D02*
D03*
X251500D02*
D03*
X612500Y378000D02*
D03*
X593500D02*
D03*
X12500Y291000D02*
D03*
X31500D02*
D03*
X268500Y78000D02*
D03*
X287500D02*
D03*
X239500Y188000D02*
D03*
X220500D02*
D03*
D51*
X59000Y185500D02*
D03*
Y170500D02*
D03*
Y196500D02*
D03*
Y211500D02*
D03*
D52*
X221000Y219500D02*
D03*
Y238500D02*
D03*
X199000Y219500D02*
D03*
Y238500D02*
D03*
X224000Y307500D02*
D03*
Y326500D02*
D03*
X175000Y217500D02*
D03*
Y236500D02*
D03*
X20000Y451500D02*
D03*
Y432500D02*
D03*
X242000Y219500D02*
D03*
Y238500D02*
D03*
X639000Y476500D02*
D03*
Y457500D02*
D03*
X207000Y104500D02*
D03*
Y123500D02*
D03*
X115000Y104500D02*
D03*
Y123500D02*
D03*
X214000Y422500D02*
D03*
Y441500D02*
D03*
X256000Y145500D02*
D03*
Y164500D02*
D03*
X651000Y191500D02*
D03*
Y210500D02*
D03*
X229000Y104500D02*
D03*
Y123500D02*
D03*
X199000Y181500D02*
D03*
Y200500D02*
D03*
X460000Y64500D02*
D03*
Y83500D02*
D03*
D53*
X146500Y236000D02*
D03*
X127500D02*
D03*
X233500Y347000D02*
D03*
X252500D02*
D03*
X40500Y522000D02*
D03*
X21500D02*
D03*
X252000Y461000D02*
D03*
X233000D02*
D03*
X448500Y229000D02*
D03*
X467500D02*
D03*
X481500Y80000D02*
D03*
X500500D02*
D03*
X402500Y49000D02*
D03*
X383500D02*
D03*
X329000D02*
D03*
X310000D02*
D03*
X365000D02*
D03*
X346000D02*
D03*
X360000Y70000D02*
D03*
X341000D02*
D03*
X439500Y82000D02*
D03*
X420500D02*
D03*
X439500Y104000D02*
D03*
X420500D02*
D03*
X477000D02*
D03*
X458000D02*
D03*
X467500Y252000D02*
D03*
X448500D02*
D03*
X408500Y251000D02*
D03*
X427500D02*
D03*
X671500Y126000D02*
D03*
X652500D02*
D03*
X72500Y294000D02*
D03*
X53500D02*
D03*
X75500Y230000D02*
D03*
X56500D02*
D03*
X482500Y56000D02*
D03*
X501500D02*
D03*
D54*
X160000Y169000D02*
D03*
D55*
X185400Y107000D02*
D03*
X172700D02*
D03*
X160000D02*
D03*
X147300D02*
D03*
X134600D02*
D03*
D56*
X152400Y508000D02*
D03*
D57*
X139700Y25400D02*
D03*
X660400Y76200D02*
D03*
Y355600D02*
D03*
D58*
X416560Y508000D02*
D03*
X279400Y25400D02*
D03*
X635000Y508000D02*
D03*
X508000Y25400D02*
D03*
X620650Y201930D02*
D03*
D59*
X391160Y508000D02*
D03*
X365760D02*
D03*
X340360D02*
D03*
X314960D02*
D03*
X289560D02*
D03*
X264160D02*
D03*
X238760D02*
D03*
X213360D02*
D03*
X187960D02*
D03*
X457200Y25400D02*
D03*
X431800D02*
D03*
X406400D02*
D03*
X381000D02*
D03*
X355600D02*
D03*
X330200D02*
D03*
X304800D02*
D03*
X457200Y508000D02*
D03*
X482600D02*
D03*
X508000D02*
D03*
X533400D02*
D03*
X558800D02*
D03*
X584200D02*
D03*
X609600D02*
D03*
X533400Y25400D02*
D03*
X558800D02*
D03*
X584200D02*
D03*
X609600D02*
D03*
X635000D02*
D03*
X595250Y201930D02*
D03*
X569850D02*
D03*
X544450D02*
D03*
X519050D02*
D03*
X493650D02*
D03*
X468250D02*
D03*
X442850D02*
D03*
X417450D02*
D03*
X392050D02*
D03*
X366650D02*
D03*
X341250D02*
D03*
X315850D02*
D03*
X290450D02*
D03*
X620650Y130970D02*
D03*
X595250D02*
D03*
X569850D02*
D03*
X544450D02*
D03*
X519050D02*
D03*
X493650D02*
D03*
X468250D02*
D03*
X442850D02*
D03*
X417450D02*
D03*
X392050D02*
D03*
X366650D02*
D03*
X341250D02*
D03*
X315850D02*
D03*
X290450D02*
D03*
D60*
X25000Y22000D02*
D03*
Y124000D02*
D03*
D61*
X11250Y221000D02*
D03*
Y155000D02*
D03*
D62*
X76200Y411480D02*
D03*
X50800D02*
D03*
X25400D02*
D03*
X76200Y386080D02*
D03*
X50800D02*
D03*
X76200Y497840D02*
D03*
X50800D02*
D03*
X25400D02*
D03*
X76200Y472440D02*
D03*
X50800D02*
D03*
X25400Y341998D02*
D03*
X50800Y316598D02*
D03*
X25400D02*
D03*
X146000Y369800D02*
D03*
Y395200D02*
D03*
Y420600D02*
D03*
X665000Y446000D02*
D03*
Y420600D02*
D03*
X148000Y81000D02*
D03*
X173400D02*
D03*
D63*
X25400Y386080D02*
D03*
Y472440D02*
D03*
X50800Y341998D02*
D03*
X122600Y81000D02*
D03*
D64*
X670000Y307000D02*
D03*
Y262000D02*
D03*
X605000D02*
D03*
X202000Y81000D02*
D03*
X247000D02*
D03*
Y16000D02*
D03*
D65*
X605000Y307000D02*
D03*
D66*
X310050Y67050D02*
D03*
X217000Y344000D02*
D03*
M02*
