G04*
G04 #@! TF.GenerationSoftware,Altium Limited,Altium Designer,20.0.13 (296)*
G04*
G04 Layer_Color=8421504*
%FSLAX44Y44*%
%MOMM*%
G71*
G01*
G75*
%ADD13R,1.6000X3.0000*%
%ADD14R,1.1000X0.6000*%
%ADD15R,0.6000X1.1000*%
%ADD16R,2.6000X2.5000*%
%ADD17R,2.5000X2.6000*%
%ADD18R,1.3500X0.4000*%
%ADD19R,1.4000X1.6000*%
%ADD20R,1.9000X1.9000*%
%ADD21R,2.7000X2.0000*%
%ADD22R,0.5500X1.5000*%
%ADD23R,1.5000X0.5500*%
%ADD24R,0.5588X0.6858*%
%ADD25R,0.6858X0.5588*%
%ADD26R,0.8000X0.8000*%
%ADD27R,1.3000X0.7000*%
%ADD28R,0.7000X1.3000*%
%ADD29R,0.9000X0.6000*%
%ADD30R,1.3000X0.9000*%
%ADD31R,0.9000X1.3000*%
%ADD32R,3.5000X2.2000*%
%ADD33R,0.6000X2.2000*%
D13*
X74000Y60000D02*
D03*
Y19000D02*
D03*
X75000Y134500D02*
D03*
Y93500D02*
D03*
D14*
X168500Y442500D02*
D03*
Y433000D02*
D03*
Y423500D02*
D03*
X195500Y442500D02*
D03*
Y423500D02*
D03*
D15*
X671500Y173500D02*
D03*
X662000D02*
D03*
X652500D02*
D03*
X671500Y146500D02*
D03*
X652500D02*
D03*
X218500Y142500D02*
D03*
X228000D02*
D03*
X237500D02*
D03*
X218500Y169500D02*
D03*
X237500D02*
D03*
X54500Y248500D02*
D03*
X64000D02*
D03*
X73500D02*
D03*
X54500Y275500D02*
D03*
X73500D02*
D03*
D16*
X256000Y319500D02*
D03*
Y270500D02*
D03*
D17*
X413500Y284000D02*
D03*
X462500D02*
D03*
D18*
X38000Y201000D02*
D03*
Y194500D02*
D03*
Y188000D02*
D03*
Y181500D02*
D03*
Y175000D02*
D03*
D19*
X35750Y220000D02*
D03*
Y156000D02*
D03*
D20*
X11250Y200000D02*
D03*
Y176000D02*
D03*
D21*
X27000Y89000D02*
D03*
Y58000D02*
D03*
D22*
X182000Y258000D02*
D03*
X174000D02*
D03*
X166000D02*
D03*
X158000D02*
D03*
X150000D02*
D03*
X142000D02*
D03*
X134000D02*
D03*
X126000D02*
D03*
Y342000D02*
D03*
X134000D02*
D03*
X142000D02*
D03*
X150000D02*
D03*
X158000D02*
D03*
X166000D02*
D03*
X174000D02*
D03*
X182000D02*
D03*
D23*
X112000Y272000D02*
D03*
Y280000D02*
D03*
Y288000D02*
D03*
Y296000D02*
D03*
Y304000D02*
D03*
Y312000D02*
D03*
Y320000D02*
D03*
Y328000D02*
D03*
X196000D02*
D03*
Y320000D02*
D03*
Y312000D02*
D03*
Y304000D02*
D03*
Y296000D02*
D03*
Y288000D02*
D03*
Y280000D02*
D03*
Y272000D02*
D03*
D24*
X599808Y244000D02*
D03*
X624192D02*
D03*
D25*
X16000Y272192D02*
D03*
Y247808D02*
D03*
D26*
X237000Y402000D02*
D03*
X253000D02*
D03*
X237000Y384000D02*
D03*
X253000D02*
D03*
X236000Y422000D02*
D03*
X252000D02*
D03*
X596000Y396000D02*
D03*
X612000D02*
D03*
D27*
X171000Y394500D02*
D03*
Y375500D02*
D03*
X92000Y260500D02*
D03*
Y279500D02*
D03*
X224000Y290500D02*
D03*
Y271500D02*
D03*
X617000Y479000D02*
D03*
Y460000D02*
D03*
X596000Y459500D02*
D03*
Y478500D02*
D03*
X640000Y439500D02*
D03*
Y420500D02*
D03*
X673000Y193500D02*
D03*
Y212500D02*
D03*
Y224500D02*
D03*
Y243500D02*
D03*
X271000Y63500D02*
D03*
Y44500D02*
D03*
X645000Y225500D02*
D03*
Y244500D02*
D03*
X36000Y272500D02*
D03*
Y253500D02*
D03*
D28*
X268500Y401000D02*
D03*
X287500D02*
D03*
Y383000D02*
D03*
X268500D02*
D03*
X129500Y215000D02*
D03*
X148500D02*
D03*
X101500Y350000D02*
D03*
X82500D02*
D03*
X73000Y163000D02*
D03*
X92000D02*
D03*
X73500Y200000D02*
D03*
X92500D02*
D03*
Y182000D02*
D03*
X73500D02*
D03*
X348500Y90000D02*
D03*
X329500D02*
D03*
X310500D02*
D03*
X329500D02*
D03*
X393500Y107000D02*
D03*
X374500D02*
D03*
X605500Y228000D02*
D03*
X624500D02*
D03*
X411500D02*
D03*
X430500D02*
D03*
X232500Y441000D02*
D03*
X251500D02*
D03*
X612500Y378000D02*
D03*
X593500D02*
D03*
X12500Y291000D02*
D03*
X31500D02*
D03*
X268500Y78000D02*
D03*
X287500D02*
D03*
X239500Y188000D02*
D03*
X220500D02*
D03*
D29*
X59000Y185500D02*
D03*
Y170500D02*
D03*
Y196500D02*
D03*
Y211500D02*
D03*
D30*
X221000Y219500D02*
D03*
Y238500D02*
D03*
X199000Y219500D02*
D03*
Y238500D02*
D03*
X224000Y307500D02*
D03*
Y326500D02*
D03*
X175000Y217500D02*
D03*
Y236500D02*
D03*
X20000Y451500D02*
D03*
Y432500D02*
D03*
X242000Y219500D02*
D03*
Y238500D02*
D03*
X639000Y476500D02*
D03*
Y457500D02*
D03*
X207000Y104500D02*
D03*
Y123500D02*
D03*
X115000Y104500D02*
D03*
Y123500D02*
D03*
X214000Y422500D02*
D03*
Y441500D02*
D03*
X256000Y145500D02*
D03*
Y164500D02*
D03*
X651000Y191500D02*
D03*
Y210500D02*
D03*
X229000Y104500D02*
D03*
Y123500D02*
D03*
X199000Y181500D02*
D03*
Y200500D02*
D03*
X460000Y64500D02*
D03*
Y83500D02*
D03*
D31*
X146500Y236000D02*
D03*
X127500D02*
D03*
X233500Y347000D02*
D03*
X252500D02*
D03*
X40500Y522000D02*
D03*
X21500D02*
D03*
X252000Y461000D02*
D03*
X233000D02*
D03*
X448500Y229000D02*
D03*
X467500D02*
D03*
X481500Y80000D02*
D03*
X500500D02*
D03*
X402500Y49000D02*
D03*
X383500D02*
D03*
X329000D02*
D03*
X310000D02*
D03*
X365000D02*
D03*
X346000D02*
D03*
X360000Y70000D02*
D03*
X341000D02*
D03*
X439500Y82000D02*
D03*
X420500D02*
D03*
X439500Y104000D02*
D03*
X420500D02*
D03*
X477000D02*
D03*
X458000D02*
D03*
X467500Y252000D02*
D03*
X448500D02*
D03*
X408500Y251000D02*
D03*
X427500D02*
D03*
X671500Y126000D02*
D03*
X652500D02*
D03*
X72500Y294000D02*
D03*
X53500D02*
D03*
X75500Y230000D02*
D03*
X56500D02*
D03*
X482500Y56000D02*
D03*
X501500D02*
D03*
D32*
X160000Y169000D02*
D03*
D33*
X185400Y107000D02*
D03*
X172700D02*
D03*
X160000D02*
D03*
X147300D02*
D03*
X134600D02*
D03*
M02*
