G04*
G04 #@! TF.GenerationSoftware,Altium Limited,Altium Designer,20.0.13 (296)*
G04*
G04 Layer_Physical_Order=1*
G04 Layer_Color=255*
%FSLAX44Y44*%
%MOMM*%
G71*
G01*
G75*
%ADD13R,1.6000X3.0000*%
%ADD14R,1.1000X0.6000*%
%ADD15R,0.6000X1.1000*%
%ADD16R,2.6000X2.5000*%
%ADD17R,2.5000X2.6000*%
%ADD18R,1.3500X0.4000*%
%ADD19R,1.4000X1.6000*%
%ADD20R,1.9000X1.9000*%
%ADD21R,2.7000X2.0000*%
%ADD22R,0.5500X1.5000*%
%ADD23R,1.5000X0.5500*%
%ADD24R,0.5588X0.6858*%
%ADD25R,0.6858X0.5588*%
%ADD26R,0.8000X0.8000*%
%ADD27R,1.3000X0.7000*%
%ADD28R,0.7000X1.3000*%
%ADD29R,0.9000X0.6000*%
%ADD30R,1.3000X0.9000*%
%ADD31R,0.9000X1.3000*%
%ADD32R,3.5000X2.2000*%
%ADD33R,0.6000X2.2000*%
%ADD62C,1.9000*%
%ADD63R,1.9000X1.9000*%
%ADD67C,1.0160*%
%ADD68C,0.3000*%
%ADD69C,0.4000*%
%ADD70C,1.5240*%
%ADD71C,7.0000*%
%ADD72R,1.6000X2.0000*%
%ADD73O,1.6000X2.0000*%
%ADD74C,4.0000*%
G04:AMPARAMS|DCode=75|XSize=2mm|YSize=1.2mm|CornerRadius=0.3mm|HoleSize=0mm|Usage=FLASHONLY|Rotation=0.000|XOffset=0mm|YOffset=0mm|HoleType=Round|Shape=RoundedRectangle|*
%AMROUNDEDRECTD75*
21,1,2.0000,0.6000,0,0,0.0*
21,1,1.4000,1.2000,0,0,0.0*
1,1,0.6000,0.7000,-0.3000*
1,1,0.6000,-0.7000,-0.3000*
1,1,0.6000,-0.7000,0.3000*
1,1,0.6000,0.7000,0.3000*
%
%ADD75ROUNDEDRECTD75*%
%ADD76C,1.7000*%
%ADD77R,1.7000X1.7000*%
%ADD78R,1.7000X1.7000*%
%ADD79C,0.6000*%
G36*
X255006Y48006D02*
X256838Y46781D01*
X259000Y46351D01*
X260152Y46581D01*
X261960Y44772D01*
Y38460D01*
X269730D01*
Y44500D01*
X272270D01*
Y38460D01*
X280040D01*
Y40422D01*
X300722D01*
Y37119D01*
X299485Y36607D01*
X297283Y34917D01*
X295593Y32715D01*
X294531Y30152D01*
X294169Y27400D01*
Y26670D01*
X304800D01*
X315431D01*
Y27400D01*
X315069Y30152D01*
X314007Y32715D01*
X312317Y34917D01*
X310116Y36607D01*
X308878Y37119D01*
Y39960D01*
X316000D01*
Y10000D01*
X293000D01*
Y38000D01*
X255000D01*
Y48015D01*
X255006Y48006D01*
D02*
G37*
G36*
X473000Y71000D02*
Y64000D01*
X475460D01*
Y57270D01*
X482500D01*
Y56000D01*
X483770D01*
Y46960D01*
X487913D01*
X478953Y38000D01*
X465985D01*
X465994Y38006D01*
X467219Y39838D01*
X467396Y40730D01*
X456604D01*
X456781Y39838D01*
X458006Y38006D01*
X458015Y38000D01*
X449000D01*
Y72000D01*
X472000D01*
X473000Y71000D01*
D02*
G37*
%LPC*%
G36*
X315431Y24130D02*
X306070D01*
Y12936D01*
X307551Y13131D01*
X310116Y14193D01*
X312317Y15883D01*
X314007Y18084D01*
X315069Y20649D01*
X315431Y23400D01*
Y24130D01*
D02*
G37*
G36*
X303530D02*
X294169D01*
Y23400D01*
X294531Y20649D01*
X295593Y18084D01*
X297283Y15883D01*
X299485Y14193D01*
X302048Y13131D01*
X303530Y12936D01*
Y24130D01*
D02*
G37*
G36*
X469040Y71540D02*
X461270D01*
Y65770D01*
X469040D01*
Y71540D01*
D02*
G37*
G36*
X458730D02*
X450960D01*
Y65770D01*
X458730D01*
Y71540D01*
D02*
G37*
G36*
X469040Y63230D02*
X461270D01*
Y57460D01*
X469040D01*
Y63230D01*
D02*
G37*
G36*
X458730D02*
X450960D01*
Y57460D01*
X458730D01*
Y63230D01*
D02*
G37*
G36*
X481230Y54730D02*
X475460D01*
Y46960D01*
X481230D01*
Y54730D01*
D02*
G37*
G36*
X463270Y47396D02*
Y43270D01*
X467396D01*
X467219Y44162D01*
X465994Y45994D01*
X464162Y47218D01*
X463270Y47396D01*
D02*
G37*
G36*
X460730D02*
X459838Y47218D01*
X458006Y45994D01*
X456781Y44162D01*
X456604Y43270D01*
X460730D01*
Y47396D01*
D02*
G37*
%LPD*%
D13*
X74000Y60000D02*
D03*
Y19000D02*
D03*
X75000Y134500D02*
D03*
Y93500D02*
D03*
D14*
X168500Y442500D02*
D03*
Y433000D02*
D03*
Y423500D02*
D03*
X195500Y442500D02*
D03*
Y423500D02*
D03*
D15*
X671500Y173500D02*
D03*
X662000D02*
D03*
X652500D02*
D03*
X671500Y146500D02*
D03*
X652500D02*
D03*
X218500Y142500D02*
D03*
X228000D02*
D03*
X237500D02*
D03*
X218500Y169500D02*
D03*
X237500D02*
D03*
X54500Y248500D02*
D03*
X64000D02*
D03*
X73500D02*
D03*
X54500Y275500D02*
D03*
X73500D02*
D03*
D16*
X256000Y319500D02*
D03*
Y270500D02*
D03*
D17*
X413500Y284000D02*
D03*
X462500D02*
D03*
D18*
X38000Y201000D02*
D03*
Y194500D02*
D03*
Y188000D02*
D03*
Y181500D02*
D03*
Y175000D02*
D03*
D19*
X35750Y220000D02*
D03*
Y156000D02*
D03*
D20*
X11250Y200000D02*
D03*
Y176000D02*
D03*
X202000Y16000D02*
D03*
D21*
X27000Y89000D02*
D03*
Y58000D02*
D03*
D22*
X182000Y258000D02*
D03*
X174000D02*
D03*
X166000D02*
D03*
X158000D02*
D03*
X150000D02*
D03*
X142000D02*
D03*
X134000D02*
D03*
X126000D02*
D03*
Y342000D02*
D03*
X134000D02*
D03*
X142000D02*
D03*
X150000D02*
D03*
X158000D02*
D03*
X166000D02*
D03*
X174000D02*
D03*
X182000D02*
D03*
D23*
X112000Y272000D02*
D03*
Y280000D02*
D03*
Y288000D02*
D03*
Y296000D02*
D03*
Y304000D02*
D03*
Y312000D02*
D03*
Y320000D02*
D03*
Y328000D02*
D03*
X196000D02*
D03*
Y320000D02*
D03*
Y312000D02*
D03*
Y304000D02*
D03*
Y296000D02*
D03*
Y288000D02*
D03*
Y280000D02*
D03*
Y272000D02*
D03*
D24*
X599808Y244000D02*
D03*
X624192D02*
D03*
D25*
X16000Y272192D02*
D03*
Y247808D02*
D03*
D26*
X237000Y402000D02*
D03*
X253000D02*
D03*
X237000Y384000D02*
D03*
X253000D02*
D03*
X236000Y422000D02*
D03*
X252000D02*
D03*
X596000Y396000D02*
D03*
X612000D02*
D03*
D27*
X171000Y394500D02*
D03*
Y375500D02*
D03*
X92000Y260500D02*
D03*
Y279500D02*
D03*
X224000Y290500D02*
D03*
Y271500D02*
D03*
X617000Y479000D02*
D03*
Y460000D02*
D03*
X596000Y459500D02*
D03*
Y478500D02*
D03*
X640000Y439500D02*
D03*
Y420500D02*
D03*
X673000Y193500D02*
D03*
Y212500D02*
D03*
Y224500D02*
D03*
Y243500D02*
D03*
X271000Y63500D02*
D03*
Y44500D02*
D03*
X645000Y225500D02*
D03*
Y244500D02*
D03*
X36000Y272500D02*
D03*
Y253500D02*
D03*
D28*
X268500Y401000D02*
D03*
X287500D02*
D03*
Y383000D02*
D03*
X268500D02*
D03*
X129500Y215000D02*
D03*
X148500D02*
D03*
X101500Y350000D02*
D03*
X82500D02*
D03*
X73000Y163000D02*
D03*
X92000D02*
D03*
X73500Y200000D02*
D03*
X92500D02*
D03*
Y182000D02*
D03*
X73500D02*
D03*
X348500Y90000D02*
D03*
X329500D02*
D03*
X310500D02*
D03*
X329500D02*
D03*
X393500Y107000D02*
D03*
X374500D02*
D03*
X605500Y228000D02*
D03*
X624500D02*
D03*
X411500D02*
D03*
X430500D02*
D03*
X232500Y441000D02*
D03*
X251500D02*
D03*
X612500Y378000D02*
D03*
X593500D02*
D03*
X12500Y291000D02*
D03*
X31500D02*
D03*
X268500Y78000D02*
D03*
X287500D02*
D03*
X239500Y188000D02*
D03*
X220500D02*
D03*
D29*
X59000Y185500D02*
D03*
Y170500D02*
D03*
Y196500D02*
D03*
Y211500D02*
D03*
D30*
X221000Y219500D02*
D03*
Y238500D02*
D03*
X199000Y219500D02*
D03*
Y238500D02*
D03*
X224000Y307500D02*
D03*
Y326500D02*
D03*
X175000Y217500D02*
D03*
Y236500D02*
D03*
X20000Y451500D02*
D03*
Y432500D02*
D03*
X242000Y219500D02*
D03*
Y238500D02*
D03*
X639000Y476500D02*
D03*
Y457500D02*
D03*
X207000Y104500D02*
D03*
Y123500D02*
D03*
X115000Y104500D02*
D03*
Y123500D02*
D03*
X214000Y422500D02*
D03*
Y441500D02*
D03*
X256000Y145500D02*
D03*
Y164500D02*
D03*
X651000Y191500D02*
D03*
Y210500D02*
D03*
X229000Y104500D02*
D03*
Y123500D02*
D03*
X199000Y181500D02*
D03*
Y200500D02*
D03*
X460000Y64500D02*
D03*
Y83500D02*
D03*
D31*
X146500Y236000D02*
D03*
X127500D02*
D03*
X233500Y347000D02*
D03*
X252500D02*
D03*
X40500Y522000D02*
D03*
X21500D02*
D03*
X252000Y461000D02*
D03*
X233000D02*
D03*
X448500Y229000D02*
D03*
X467500D02*
D03*
X481500Y80000D02*
D03*
X500500D02*
D03*
X402500Y49000D02*
D03*
X383500D02*
D03*
X329000D02*
D03*
X310000D02*
D03*
X365000D02*
D03*
X346000D02*
D03*
X360000Y70000D02*
D03*
X341000D02*
D03*
X439500Y82000D02*
D03*
X420500D02*
D03*
X439500Y104000D02*
D03*
X420500D02*
D03*
X477000D02*
D03*
X458000D02*
D03*
X467500Y252000D02*
D03*
X448500D02*
D03*
X408500Y251000D02*
D03*
X427500D02*
D03*
X671500Y126000D02*
D03*
X652500D02*
D03*
X72500Y294000D02*
D03*
X53500D02*
D03*
X75500Y230000D02*
D03*
X56500D02*
D03*
X482500Y56000D02*
D03*
X501500D02*
D03*
D32*
X160000Y169000D02*
D03*
D33*
X185400Y107000D02*
D03*
X172700D02*
D03*
X160000D02*
D03*
X147300D02*
D03*
X134600D02*
D03*
D62*
X670000Y307000D02*
D03*
Y262000D02*
D03*
X605000D02*
D03*
X202000Y81000D02*
D03*
X247000D02*
D03*
Y16000D02*
D03*
D63*
X605000Y307000D02*
D03*
D67*
X106000Y516000D02*
D03*
X670000Y509000D02*
D03*
Y21000D02*
D03*
X225000Y48000D02*
D03*
D68*
X507000Y508000D02*
X508000D01*
X474000Y475000D02*
X507000Y508000D01*
X434000Y475000D02*
X474000D01*
X409000Y465000D02*
X429000Y485000D01*
X461600D02*
X482600Y506000D01*
X429000Y485000D02*
X461600D01*
X478561Y503961D02*
X482600Y508000D01*
X381000Y422000D02*
X434000Y475000D01*
X381000Y292000D02*
Y422000D01*
X482600Y506000D02*
Y508000D01*
X409000Y465000D02*
Y465000D01*
X369000Y425000D02*
X409000Y465000D01*
X369000Y294000D02*
Y425000D01*
X547000Y449000D02*
X580736D01*
X523000Y422000D02*
X543000Y442000D01*
X580807D01*
X585404Y446596D01*
X580736Y449000D02*
X591236Y459500D01*
X591500Y432500D02*
X592500Y431500D01*
X585000Y221251D02*
Y435192D01*
Y221251D02*
X586757Y219494D01*
X585000Y435192D02*
X589808Y440000D01*
X586757Y219494D02*
X595950D01*
X589808Y440000D02*
X597000D01*
X595950Y219494D02*
X610000Y205443D01*
X592500Y431500D02*
X617050D01*
X585404Y446596D02*
X599596D01*
X606000Y453000D01*
Y471000D01*
X614000Y479000D02*
X617000D01*
X606000Y471000D02*
X614000Y479000D01*
X523000Y264000D02*
Y422000D01*
Y264000D02*
X570000Y217000D01*
X595250Y201930D02*
Y203930D01*
X582180Y217000D02*
X595250Y203930D01*
X570000Y217000D02*
X582180D01*
X567808Y479000D02*
X595500D01*
X513000Y424192D02*
X567808Y479000D01*
X513000Y259000D02*
Y424192D01*
X569850Y201930D02*
Y202150D01*
X513000Y259000D02*
X569850Y202150D01*
X503000Y430000D02*
X576513Y503513D01*
X579713D02*
X584200Y508000D01*
X576513Y503513D02*
X579713D01*
X503000Y243380D02*
Y430000D01*
X595500Y479000D02*
X596000Y478500D01*
X503000Y243380D02*
X544450Y201930D01*
X495000Y225980D02*
X519050Y201930D01*
X495000Y444200D02*
X558800Y508000D01*
X495000Y225980D02*
Y444200D01*
X558800Y508000D02*
Y508000D01*
X487000Y461600D02*
X533400Y508000D01*
X493650Y201930D02*
Y205537D01*
X487000Y212187D02*
X493650Y205537D01*
X487000Y212187D02*
Y461600D01*
X366650Y277650D02*
X381000Y292000D01*
X341250Y266250D02*
X369000Y294000D01*
X361000Y297000D02*
Y429000D01*
X440000Y508000D01*
X457200D01*
X335000Y271000D02*
X361000Y297000D01*
X326000Y269858D02*
X353000Y296858D01*
Y444440D02*
X416560Y508000D01*
X353000Y296858D02*
Y444440D01*
X318000Y268929D02*
X342000Y292929D01*
Y458840D02*
X391160Y508000D01*
X342000Y292929D02*
Y458840D01*
X330439Y472679D02*
X365760Y508000D01*
X330439Y290561D02*
X330439Y290561D01*
Y472679D01*
X153510Y460440D02*
X158000Y455950D01*
Y434757D02*
Y455950D01*
X50800Y472440D02*
X62800Y460440D01*
X158000Y434757D02*
X159757Y433000D01*
X62800Y460440D02*
X153510D01*
X159757Y433000D02*
X168500D01*
X146000Y420600D02*
X158000Y408600D01*
Y386000D02*
Y408600D01*
X482500Y114450D02*
X508500Y88450D01*
X482150Y124207D02*
X482500Y123857D01*
Y114450D02*
Y123857D01*
X482150Y124207D02*
Y137733D01*
X493417Y149000D01*
X50000Y164757D02*
X61757Y153000D01*
X50000Y164757D02*
Y176700D01*
X61757Y153000D02*
X77950D01*
X45700Y181000D02*
X50000Y176700D01*
X195500Y411500D02*
Y423500D01*
Y411500D02*
X201500Y405500D01*
X219500D02*
X236000Y422000D01*
X201500Y405500D02*
X219500D01*
X205000Y348188D02*
Y349000D01*
X183250Y348000D02*
X192188D01*
X193188Y349000D01*
X194000D01*
X61757Y509757D02*
X71147D01*
X25400Y472440D02*
X37960Y485000D01*
X71147Y509757D02*
X71229Y509840D01*
X50800Y498800D02*
X61757Y509757D01*
X37960Y485000D02*
X96000D01*
X50800Y497840D02*
Y498800D01*
X71229Y509840D02*
X90160D01*
X101840Y498160D01*
X31000Y270500D02*
X33000Y272500D01*
X16635Y247808D02*
X17929Y249102D01*
X33000Y272500D02*
X33500D01*
X17929Y249102D02*
Y254429D01*
X16000Y247808D02*
X16635D01*
X31000Y267500D02*
Y270500D01*
X17929Y254429D02*
X31000Y267500D01*
X641000Y170000D02*
X647000Y164000D01*
X652500Y147500D02*
Y149000D01*
X647000Y164000D02*
X649000D01*
X652500Y160500D01*
Y149000D02*
Y160500D01*
X636689Y189119D02*
X641000Y184808D01*
Y170000D02*
Y184808D01*
X631461Y189119D02*
X636689D01*
X620650Y199930D02*
X631461Y189119D01*
X606827Y262000D02*
X670000D01*
X239500Y188000D02*
Y191000D01*
X247926Y199426D01*
X252426D01*
X253000Y200000D01*
X670000Y164522D02*
Y172000D01*
X669357Y163879D02*
X670000Y164522D01*
X669357Y163067D02*
Y163879D01*
X670000Y172000D02*
X671500Y173500D01*
Y192000D01*
X605000Y262000D02*
X606827D01*
X25400Y316598D02*
X37998Y304000D01*
X78450D01*
X247000Y16000D02*
Y81000D01*
X268950Y191024D02*
Y212836D01*
X273000Y227000D02*
X276000Y230000D01*
X268950Y191024D02*
X273000Y186975D01*
Y122000D02*
Y186975D01*
X268950Y212836D02*
X273000Y216886D01*
Y122000D02*
X286000Y109000D01*
X273950Y193095D02*
X278000Y189046D01*
X273000Y216886D02*
Y227000D01*
X278950Y195167D02*
X283000Y191117D01*
Y184757D02*
X285757Y182000D01*
X273950Y210765D02*
X279000Y215814D01*
X278000Y124071D02*
X288071Y114000D01*
X278950Y208693D02*
X284000Y213743D01*
X278000Y124071D02*
Y189046D01*
X273950Y193095D02*
Y210765D01*
X283000Y184757D02*
Y191117D01*
X278950Y195167D02*
Y208693D01*
X279000Y215814D02*
Y225000D01*
X281000Y227000D01*
X285757Y182000D02*
X334000D01*
X284000Y220000D02*
X289000Y225000D01*
X284000Y213743D02*
Y220000D01*
X286000Y109000D02*
X372500D01*
X288071Y114000D02*
X351680D01*
X372500Y109000D02*
X374500Y107000D01*
X366650Y128970D02*
Y130970D01*
X315000Y492000D02*
Y506000D01*
Y507960D01*
X351680Y114000D02*
X366650Y128970D01*
X273222Y89000D02*
X275722Y86500D01*
X282000D01*
X287500Y81000D01*
X269565Y89000D02*
X273222D01*
X253891Y104674D02*
X269565Y89000D01*
X71440Y320000D02*
X112000D01*
X94000Y377000D02*
X134726D01*
X93000Y376000D02*
X94000Y377000D01*
X134726D02*
X140726Y383000D01*
X155000D02*
X158000Y386000D01*
X140726Y383000D02*
X155000D01*
X95000Y279500D02*
X100744Y273756D01*
X145200Y369000D02*
X146000Y369800D01*
X101000Y369000D02*
X145200D01*
X229000Y402000D02*
X237000D01*
X221000Y394000D02*
X229000Y402000D01*
X204000Y363000D02*
X221000Y380000D01*
Y394000D01*
X178000Y361000D02*
X180000Y363000D01*
X204000D01*
X166000Y342000D02*
X167250Y343250D01*
Y350450D01*
X177800Y361000D01*
X178000D01*
X168000Y375500D02*
X171000D01*
X166000Y373500D02*
X168000Y375500D01*
X166000Y367000D02*
Y373500D01*
X151250Y352250D02*
X166000Y367000D01*
X150000Y342000D02*
X151250Y343250D01*
Y352250D01*
X234500Y381500D02*
X237000Y384000D01*
X234500Y378500D02*
Y381500D01*
X211500Y355500D02*
X234500Y378500D01*
X180300Y355500D02*
X211500D01*
X175250Y350450D02*
X180300Y355500D01*
X174000Y342000D02*
X175250Y343250D01*
Y350450D01*
X196426Y376426D02*
X197000Y377000D01*
X171926Y376426D02*
X196426D01*
X202000Y345188D02*
X205000Y348188D01*
X135500Y246000D02*
X138243D01*
X140750Y256750D02*
X142000Y258000D01*
X140750Y248507D02*
Y256750D01*
X138243Y246000D02*
X140750Y248507D01*
X127500Y236000D02*
Y238000D01*
X135500Y246000D01*
X127500Y236000D02*
X129500Y234000D01*
Y215000D02*
Y234000D01*
X80975Y159975D02*
X84000Y163000D01*
X92000D01*
X80975Y156025D02*
Y159975D01*
X77950Y153000D02*
X80975Y156025D01*
X38000Y181500D02*
X38500Y181000D01*
X45700D01*
X392050Y130970D02*
X392775Y130245D01*
Y107725D02*
Y130245D01*
Y107725D02*
X393500Y107000D01*
X247500Y123500D02*
X253891Y117109D01*
Y104674D02*
Y117109D01*
X247000Y81000D02*
X266500D01*
X268500Y79000D01*
Y78000D02*
Y79000D01*
Y65500D02*
Y78000D01*
Y65500D02*
X270500Y63500D01*
X271000D01*
X228000Y124500D02*
Y142500D01*
Y124500D02*
X229000Y123500D01*
X218500Y142500D02*
X228000D01*
X287500Y78000D02*
Y81000D01*
X229000Y123500D02*
X247500D01*
X92000Y279500D02*
X95000D01*
X101250Y273250D02*
X110750D01*
X112000Y272000D01*
X73500Y275500D02*
Y278000D01*
X75000Y279500D01*
X92000D01*
X54500Y247500D02*
Y248500D01*
Y232000D02*
Y247500D01*
Y232000D02*
X56500Y230000D01*
X54500Y248500D02*
X64000D01*
X37000Y247757D02*
Y252500D01*
X53000Y246000D02*
X54500Y247500D01*
X38757Y246000D02*
X53000D01*
X37000Y247757D02*
X38757Y246000D01*
X36000Y253500D02*
X37000Y252500D01*
X33500Y272500D02*
X36000D01*
X31500Y274500D02*
Y291000D01*
Y274500D02*
X33500Y272500D01*
X158000Y187500D02*
Y258000D01*
X163000Y198000D02*
Y247800D01*
Y198000D02*
X167000Y194000D01*
X164750Y256750D02*
X166000Y258000D01*
X164750Y249550D02*
Y256750D01*
X163000Y247800D02*
X164750Y249550D01*
X92500Y182000D02*
X103000D01*
X92500Y200000D02*
X103000D01*
X92500D02*
X93500Y199000D01*
X92500Y182000D02*
Y185000D01*
X94500Y187000D01*
X59000Y185500D02*
X60500D01*
X64000Y182000D01*
X73500D01*
X59000Y196500D02*
X71500D01*
X73500Y198500D01*
Y200000D01*
X38000Y188000D02*
X55000D01*
X57500Y185500D01*
X59000D01*
X38000Y194500D02*
X55500D01*
X57500Y196500D01*
X59000D01*
X230000Y175757D02*
Y183243D01*
X236000Y173500D02*
X237500Y172000D01*
X232257Y173500D02*
X236000D01*
X230000Y175757D02*
X232257Y173500D01*
X222500Y185000D02*
X228243D01*
X230000Y183243D01*
X220500Y187000D02*
Y188000D01*
Y187000D02*
X222500Y185000D01*
X237500Y169500D02*
Y172000D01*
X256000Y250500D02*
Y270500D01*
X244000Y238500D02*
X256000Y250500D01*
X242000Y238500D02*
X244000D01*
X252500Y323000D02*
Y347000D01*
Y323000D02*
X256000Y319500D01*
X223750Y271750D02*
X224000Y271500D01*
X196250Y271750D02*
X223750D01*
X196000Y272000D02*
X196250Y271750D01*
X255000Y271500D02*
X256000Y270500D01*
X224000Y271500D02*
X255000D01*
X196000Y280000D02*
X196000Y280000D01*
X221000Y290500D02*
X224000D01*
X210500Y280000D02*
X221000Y290500D01*
X196000Y280000D02*
X210500D01*
X224000Y290500D02*
X240500D01*
X251000Y301000D01*
Y314500D02*
X256000Y319500D01*
X251000Y301000D02*
Y314500D01*
X253000Y402000D02*
X267500D01*
X268500Y401000D01*
X253000Y384000D02*
X267500D01*
X268500Y383000D01*
X251500Y441000D02*
X251750Y440750D01*
Y422250D02*
Y440750D01*
Y422250D02*
X252000Y422000D01*
X82479Y328000D02*
X112000D01*
X70000Y340479D02*
X82479Y328000D01*
X70000Y340479D02*
Y351358D01*
X56679Y364679D02*
X70000Y351358D01*
X46801Y364679D02*
X56679D01*
X25400Y386080D02*
X46801Y364679D01*
X48195Y371715D02*
X56715D01*
X75000Y353429D01*
X38800Y381109D02*
X48195Y371715D01*
X132750Y343250D02*
Y351250D01*
X128000Y356000D02*
X132750Y351250D01*
X107500Y356000D02*
X128000D01*
X101500Y350000D02*
Y353000D01*
X103500Y355000D01*
X106500D01*
X107500Y356000D01*
X75000Y343000D02*
X75500Y342500D01*
Y342050D02*
X77550Y340000D01*
X125750D01*
X126000Y340250D01*
X75500Y342050D02*
Y342500D01*
X75000Y343000D02*
Y353429D01*
X38800Y399480D02*
X50800Y411480D01*
X38800Y381109D02*
Y399480D01*
X50800Y384700D02*
Y386080D01*
Y384700D02*
X82500Y353000D01*
Y350000D02*
Y353000D01*
X126000Y340250D02*
Y342000D01*
X52720Y338720D02*
X71440Y320000D01*
X53988Y316598D02*
X61586Y309000D01*
X82218D02*
X87218Y304000D01*
X89184Y312000D02*
X112000D01*
X78450Y304000D02*
X86450Y296000D01*
X61586Y309000D02*
X82218D01*
X87218Y304000D02*
X112000D01*
X87184Y314000D02*
X89184Y312000D01*
X86450Y296000D02*
X112000D01*
X55771Y328598D02*
X70369Y314000D01*
X87184D01*
X50800Y316598D02*
X53988D01*
X25400Y341998D02*
X28850D01*
X42250Y328598D02*
X55771D01*
X28850Y341998D02*
X42250Y328598D01*
X50800Y386080D02*
X53479Y383401D01*
X132750Y343250D02*
X134000Y342000D01*
X76200Y386080D02*
X136735D01*
X145855Y395200D01*
X146000D01*
X228500Y521500D02*
X278060D01*
X224860Y517860D02*
X228500Y521500D01*
X289560Y508000D02*
Y510000D01*
X278060Y521500D02*
X289560Y510000D01*
X224860Y481860D02*
Y517860D01*
X217000Y474000D02*
X224860Y481860D01*
X168500Y442500D02*
X171000D01*
X202500Y474000D01*
X217000D01*
X196000Y480000D02*
X211500D01*
X113000Y468000D02*
X184000D01*
X196000Y480000D01*
X168500Y433000D02*
Y442500D01*
X211500Y480000D02*
X212000Y480500D01*
X101840Y486231D02*
X115071Y473000D01*
X181000D02*
X200500Y492500D01*
X115071Y473000D02*
X181000D01*
X101840Y486231D02*
Y498160D01*
X96000Y485000D02*
X113000Y468000D01*
X300000Y491040D02*
X314960Y506000D01*
X300000Y474000D02*
Y491040D01*
X340360Y506360D02*
Y510000D01*
X200500Y516500D02*
X210500Y526500D01*
X323860D01*
X340360Y510000D01*
X200500Y492500D02*
Y516500D01*
X430500Y216980D02*
Y228000D01*
X417450Y203930D02*
X430500Y216980D01*
X417450Y201930D02*
Y203930D01*
X448500Y250000D02*
Y252000D01*
X432500Y234000D02*
X448500Y250000D01*
X432500Y230000D02*
Y234000D01*
X430500Y228000D02*
X432500Y230000D01*
X447000Y253500D02*
X448500Y252000D01*
X462500Y283500D02*
Y284000D01*
X447000Y268000D02*
X462500Y283500D01*
X447000Y253500D02*
Y268000D01*
X411500Y225000D02*
Y228000D01*
X392050Y205550D02*
X411500Y225000D01*
X392050Y201930D02*
Y205550D01*
X427500Y249000D02*
Y251000D01*
X413500Y235000D02*
X427500Y249000D01*
X413500Y230000D02*
Y235000D01*
X411500Y228000D02*
X413500Y230000D01*
X427000Y251500D02*
X427500Y251000D01*
X413500Y283500D02*
Y284000D01*
Y283500D02*
X427000Y270000D01*
Y251500D02*
Y270000D01*
X653500Y208000D02*
X659243D01*
X662000Y173500D02*
Y205243D01*
X659243Y208000D02*
X662000Y205243D01*
X651000Y210500D02*
X653500Y208000D01*
X651000Y210500D02*
X653500Y213000D01*
Y220000D01*
X645000Y225500D02*
X648000D01*
X653500Y220000D01*
X645500Y244000D02*
X671500D01*
X672000Y243500D01*
X670000Y245500D02*
X671500Y244000D01*
X672000Y243500D02*
X673000D01*
X670000Y245500D02*
Y262000D01*
X645000Y244500D02*
X645500Y244000D01*
X624192D02*
X624442Y244250D01*
X644750D01*
X645000Y244500D01*
X606827Y262000D02*
X624192Y244635D01*
Y244000D02*
Y244635D01*
X617137Y205443D02*
X620650Y201930D01*
X610000Y205443D02*
X617137D01*
X620650Y221150D02*
X624500Y225000D01*
Y228000D01*
X612000Y396000D02*
X612250Y395750D01*
Y378250D02*
Y395750D01*
Y378250D02*
X612500Y378000D01*
X651000Y439000D02*
X661000Y429000D01*
X662321Y423279D02*
X665000Y420600D01*
X662321Y423279D02*
Y428679D01*
X662000Y429000D02*
X662321Y428679D01*
X661000Y429000D02*
X662000D01*
X665000Y420600D02*
Y424388D01*
X640000Y439500D02*
X640500Y439000D01*
X651000D01*
X639000Y457500D02*
X651100D01*
X665000Y471400D01*
X591236Y459500D02*
X596000D01*
X617050Y431500D02*
X632050Y446500D01*
X620650Y201930D02*
Y221150D01*
Y199930D02*
Y201930D01*
X651000Y149000D02*
X652500Y147500D01*
X493417Y149000D02*
X651000D01*
X508500Y69393D02*
Y88450D01*
Y69393D02*
X511000Y66894D01*
Y49000D02*
Y66894D01*
X493650Y113350D02*
Y130970D01*
X519050Y82357D02*
Y130970D01*
X514000Y70964D02*
Y93000D01*
X493650Y113350D02*
X514000Y93000D01*
X519050Y82357D02*
X521000Y80407D01*
Y39800D02*
Y80407D01*
X514000Y70964D02*
X516000Y68965D01*
Y46929D02*
Y68965D01*
X514500Y31900D02*
Y45429D01*
X508000Y25400D02*
X514500Y31900D01*
Y45429D02*
X516000Y46929D01*
X521000Y39800D02*
X533400Y27400D01*
X490500Y44500D02*
X506500D01*
X481000Y35000D02*
X490500Y44500D01*
X506500D02*
X511000Y49000D01*
X481000Y15000D02*
Y35000D01*
X335000Y10000D02*
X476000D01*
X481000Y15000D01*
X330200Y25400D02*
X332687Y22913D01*
Y12313D02*
Y22913D01*
Y12313D02*
X335000Y10000D01*
X630000Y484500D02*
X638500Y476000D01*
X196000Y328000D02*
X200750D01*
X202000Y329250D01*
Y345188D01*
X606000Y439875D02*
Y440000D01*
X612000Y446000D01*
X182000Y342000D02*
Y346750D01*
X183250Y348000D01*
X612000Y446000D02*
Y458000D01*
X614000Y460000D02*
X617000D01*
X632050Y446500D02*
X664500D01*
X612000Y458000D02*
X614000Y460000D01*
X171000Y375500D02*
X171926Y376426D01*
X664500Y446500D02*
X665000Y446000D01*
X630000Y484500D02*
Y490000D01*
X620650Y41750D02*
Y130970D01*
Y41750D02*
X635000Y27400D01*
Y25400D02*
Y27400D01*
X595250Y41750D02*
Y130970D01*
Y41750D02*
X609600Y27400D01*
Y25400D02*
Y27400D01*
X569850Y41750D02*
Y130970D01*
Y41750D02*
X584200Y27400D01*
Y25400D02*
Y27400D01*
X544450Y41750D02*
Y130970D01*
Y41750D02*
X558800Y27400D01*
Y25400D02*
Y27400D01*
X533400Y25400D02*
Y27400D01*
X671500Y192000D02*
X673000Y193500D01*
X638500Y476000D02*
X639000Y476500D01*
X315850Y130970D02*
Y132970D01*
X328000Y145120D01*
Y172000D01*
X326000Y239480D02*
Y269858D01*
X335000Y226000D02*
Y271000D01*
X318000Y248000D02*
Y268929D01*
X315850Y206850D02*
X335000Y226000D01*
X341250Y201930D02*
Y266250D01*
X290450Y203930D02*
X326000Y239480D01*
X304000Y234000D02*
X318000Y248000D01*
X366650Y201930D02*
Y277650D01*
X304000Y232000D02*
Y234000D01*
X290450Y130970D02*
Y132970D01*
X304000Y146520D01*
Y172000D01*
X290450Y201930D02*
Y203930D01*
X289000Y225000D02*
Y337858D01*
X341250Y130970D02*
Y174750D01*
X334000Y182000D02*
X341250Y174750D01*
X314000Y480000D02*
X340360Y506360D01*
X309000Y364929D02*
Y486000D01*
X315000Y492000D01*
X314000Y362858D02*
Y480000D01*
X289000Y337858D02*
X314000Y362858D01*
X314960Y508000D02*
X315000Y507960D01*
X281000Y336929D02*
X309000Y364929D01*
X281000Y227000D02*
Y336929D01*
X276000Y230000D02*
Y339000D01*
X304000Y367000D01*
Y452000D01*
X289560Y508000D02*
X291000Y506560D01*
Y465000D02*
Y506560D01*
Y465000D02*
X304000Y452000D01*
X315850Y201930D02*
Y206850D01*
X635000Y506000D02*
Y508000D01*
X616000Y487000D02*
X635000Y506000D01*
X616000Y481000D02*
Y487000D01*
X615243Y480757D02*
X617000Y479000D01*
X615243Y480757D02*
X615757D01*
X616000Y481000D01*
X609600Y506000D02*
Y508000D01*
X599000Y495400D02*
X609600Y506000D01*
X599000Y489000D02*
Y495400D01*
X596000Y478500D02*
Y486000D01*
X599000Y489000D01*
D69*
X268000Y443000D02*
Y455000D01*
X596000Y410000D02*
X601250Y415250D01*
X596000Y396000D02*
Y410000D01*
X469500Y250000D02*
X480500D01*
X88000Y109000D02*
Y118000D01*
X166000Y408000D02*
Y411843D01*
Y407000D02*
Y408000D01*
Y407000D02*
X166500Y406500D01*
X158510Y419333D02*
X166000Y411843D01*
X93000Y399000D02*
X127100Y433100D01*
X151178D01*
X158510Y425767D01*
Y419333D02*
Y425767D01*
X36180Y451500D02*
X74383Y413297D01*
Y439617D01*
X25000Y124000D02*
X69000D01*
X75000Y134500D02*
Y138000D01*
Y130000D02*
Y134500D01*
X69000Y124000D02*
X75000Y130000D01*
X310025Y48210D02*
Y67025D01*
X320429Y59571D02*
Y65429D01*
X321000Y66000D01*
X34750Y221000D02*
X36000Y222250D01*
X310025Y67025D02*
X310050Y67050D01*
X310025Y48210D02*
X310617Y47617D01*
X81000Y106500D02*
X84959D01*
X601250Y415250D02*
X606500Y420500D01*
X346000Y49000D02*
Y51000D01*
X310500Y87000D02*
X329132Y68368D01*
Y65211D02*
Y68368D01*
Y65211D02*
X334843Y59500D01*
X346000Y36500D02*
Y49000D01*
X477000Y104000D02*
Y117921D01*
X468250Y126671D02*
X477000Y117921D01*
X468250Y126671D02*
Y130970D01*
X667130Y309870D02*
X670000Y307000D01*
X667130Y309870D02*
Y348870D01*
X660400Y355600D02*
X667130Y348870D01*
X55000Y144000D02*
X69000D01*
X46750D02*
X55000D01*
X72000Y162000D02*
X73000Y163000D01*
X63000Y162000D02*
X72000D01*
X35750Y155000D02*
X46750Y144000D01*
X69000D02*
X75000Y138000D01*
X35750Y155000D02*
Y156000D01*
X104000Y61100D02*
X139700Y25400D01*
X104000Y61100D02*
Y88000D01*
X139700Y25400D02*
X143050D01*
X198650Y81000D01*
X202000D01*
X160000Y129000D02*
Y169000D01*
Y107000D02*
Y129000D01*
X71000Y22000D02*
X74000Y19000D01*
X25000Y22000D02*
X71000D01*
X202000Y81000D02*
X202500Y81500D01*
Y102000D01*
X205000Y104500D01*
X207000D01*
X223499Y429999D02*
X226000D01*
X216000Y422500D02*
X223499Y429999D01*
X252000Y461000D02*
X262000D01*
X268000Y455000D01*
X214000Y422500D02*
X216000D01*
X184000Y438000D02*
X188500D01*
X193000Y442500D02*
X195500D01*
X188500Y438000D02*
X193000Y442500D01*
X201500Y393000D02*
X210000D01*
X168500Y423500D02*
X171000D01*
X201500Y393000D01*
X174500Y189500D02*
Y207000D01*
Y189500D02*
X175000Y189000D01*
X174500Y207000D02*
Y217000D01*
X175000Y217500D01*
X140000Y227000D02*
Y227500D01*
X138000Y225000D02*
X140000Y227000D01*
Y227500D02*
X146500Y234000D01*
Y236000D01*
X212000Y420500D02*
X214000Y422500D01*
X210500Y412000D02*
X212000Y413500D01*
Y420500D01*
X166500Y396000D02*
Y406500D01*
X220000Y347000D02*
X233500D01*
X217000Y344000D02*
X220000Y347000D01*
X175000Y178000D02*
Y189000D01*
X221000Y207000D02*
Y219500D01*
X166000Y169000D02*
X175000Y178000D01*
X160000Y169000D02*
X166000D01*
X221000Y219500D02*
X242000D01*
X199000D02*
X221000D01*
X239000Y320500D02*
Y344657D01*
X233500Y347000D02*
X235843Y344657D01*
X239000D01*
X224000Y307500D02*
X226000D01*
X239000Y320500D01*
X204765Y296750D02*
X213500Y305485D01*
X219500Y305000D02*
X222000Y307500D01*
X219500Y303000D02*
Y305000D01*
X205250Y288750D02*
X219500Y303000D01*
X196000Y288000D02*
X196750Y288750D01*
Y296750D02*
X204765D01*
X195250Y295250D02*
X196750Y296750D01*
X222000Y307500D02*
X224000D01*
X196750Y288750D02*
X205250D01*
X213500Y305485D02*
Y318000D01*
X252000Y461000D02*
Y493840D01*
X264160Y506000D01*
Y508000D01*
X240814Y430843D02*
X244000Y427657D01*
Y416343D02*
Y427657D01*
X239657Y430843D02*
X240814D01*
X232500Y438000D02*
X239657Y430843D01*
X244000Y416343D02*
X247593Y412750D01*
X272407D01*
X276000Y403343D02*
X278343Y401000D01*
X232500Y438000D02*
Y441000D01*
X272407Y412750D02*
X276000Y409157D01*
Y403343D02*
Y409157D01*
X278343Y401000D02*
X287500D01*
X214000Y441500D02*
X232000D01*
X232500Y441000D01*
X195500Y442500D02*
X196000Y442000D01*
X213500D01*
X214000Y441500D01*
X74383Y413297D02*
X76200Y411480D01*
X74000Y440000D02*
X74383Y439617D01*
X40500Y522000D02*
X52000D01*
X53000Y523000D01*
X20000Y451500D02*
X36180D01*
X65000Y284500D02*
X72500Y292000D01*
X55500Y265000D02*
X62101Y258399D01*
X54000Y276000D02*
X55500Y274500D01*
X65000Y265399D02*
Y284500D01*
X62101Y258399D02*
X73750D01*
X75851Y260500D01*
X72500Y292000D02*
Y294000D01*
X55500Y265000D02*
Y274500D01*
X75851Y260500D02*
X92000D01*
X66750Y217750D02*
X73000Y224000D01*
X60500Y211500D02*
X66750Y217750D01*
X36000Y222250D02*
Y235000D01*
X73000Y214000D02*
X74000D01*
X66750Y217750D02*
X69250D01*
X73000Y214000D01*
X75500Y230000D02*
Y244000D01*
X73500Y246000D02*
X75500Y244000D01*
X73500Y246000D02*
Y248500D01*
X59000Y211500D02*
X60500D01*
X73000Y224000D02*
Y227500D01*
X75500Y230000D01*
X11250Y221000D02*
X34750D01*
X11250Y200000D02*
Y221000D01*
Y176000D02*
Y200000D01*
Y155000D02*
Y176000D01*
Y155000D02*
X34750D01*
X35750Y156000D01*
X38000Y158250D01*
Y175000D01*
X59000Y170500D02*
X60000Y169500D01*
X69500D01*
X73000Y166000D01*
Y163000D02*
Y166000D01*
X104000Y88000D02*
Y88541D01*
X103000Y89541D02*
X104000Y88541D01*
X97000Y107500D02*
X113000Y123500D01*
X74000Y26000D02*
X97000Y49000D01*
Y107500D01*
X113000Y104500D02*
X115000D01*
X103000Y94500D02*
X113000Y104500D01*
X103000Y89541D02*
Y94500D01*
X57000Y62343D02*
Y82000D01*
X59343Y60000D02*
X74000D01*
X57000Y62343D02*
X59343Y60000D01*
X229000Y93000D02*
Y104500D01*
X228000Y92000D02*
X229000Y93000D01*
X237500Y142500D02*
X251000D01*
X254000Y145500D01*
X256000D01*
Y133541D02*
Y145500D01*
Y133541D02*
X258000Y131541D01*
Y131000D02*
Y131541D01*
X285839Y101383D02*
X292617D01*
X346000Y36500D02*
X355600Y26900D01*
Y25400D02*
Y26900D01*
X329000Y49000D02*
Y51000D01*
X320429Y59571D02*
X329000Y51000D01*
X360000Y70000D02*
X374000D01*
X375000Y71000D01*
X402500Y49000D02*
Y63500D01*
X402000Y64000D02*
X402500Y63500D01*
X439000Y67000D02*
X439500Y67500D01*
Y82000D01*
Y104000D02*
Y106000D01*
X431000Y114500D02*
X439500Y106000D01*
X431000Y114500D02*
Y119000D01*
X467500Y252000D02*
X469500Y250000D01*
X393000Y251000D02*
X408500D01*
X442850Y201930D02*
Y207177D01*
X448500Y212827D01*
Y229000D01*
Y231000D01*
X465000Y247500D01*
Y249500D01*
X467500Y252000D01*
X671500Y126000D02*
X683000D01*
X652500Y173500D02*
X653500Y172500D01*
Y167500D02*
Y172500D01*
Y167500D02*
X659000Y162000D01*
X642883Y197617D02*
X649000Y191500D01*
X651000D01*
X637000Y198000D02*
X637383Y197617D01*
X642883D01*
X661383Y233117D02*
Y234617D01*
X649000Y269000D02*
Y273000D01*
X661383Y233117D02*
X670000Y224500D01*
X661000Y235000D02*
X661383Y234617D01*
X652000Y289000D02*
X670000Y307000D01*
X608000Y289000D02*
X652000D01*
X146500Y236000D02*
X149000Y238500D01*
Y243500D01*
X150000Y244500D01*
Y258000D01*
X681157Y201000D02*
X683500Y198657D01*
Y161000D02*
Y198657D01*
X673000Y203343D02*
X675343Y201000D01*
X671500Y149000D02*
X683500Y161000D01*
X673000Y203343D02*
Y212500D01*
X675343Y201000D02*
X681157D01*
X671500Y146500D02*
Y149000D01*
X194500Y23500D02*
X202000Y16000D01*
X141600Y23500D02*
X194500D01*
X139700Y25400D02*
X141600Y23500D01*
X207000Y104500D02*
X229000D01*
X360000Y56000D02*
Y70000D01*
Y56000D02*
X365000Y51000D01*
Y49000D02*
Y51000D01*
X406400Y25400D02*
X431800D01*
X402500Y49000D02*
X404450Y47050D01*
Y27350D02*
Y47050D01*
Y27350D02*
X406400Y25400D01*
X455500Y86000D02*
Y90500D01*
X453000Y93000D02*
X455500Y90500D01*
X429500Y93000D02*
X453000D01*
X455500Y86000D02*
X458000Y83500D01*
X477000Y86500D02*
Y104000D01*
Y86500D02*
X481500Y82000D01*
Y80000D02*
Y82000D01*
X651000Y177500D02*
Y191500D01*
Y177500D02*
X652500Y176000D01*
Y173500D02*
Y176000D01*
X669000Y123500D02*
X671500Y126000D01*
X669000Y84800D02*
Y123500D01*
X660400Y76200D02*
X669000Y84800D01*
X605000Y307000D02*
X670000D01*
X640000Y420500D02*
X643000D01*
X644500Y419000D01*
Y389360D02*
Y419000D01*
Y389360D02*
X660400Y373460D01*
Y355600D02*
Y373460D01*
X606500Y420500D02*
X640000D01*
X174000Y258000D02*
Y276000D01*
X101000Y240000D02*
Y249000D01*
X113000Y261000D01*
X101000Y240000D02*
X122000Y219000D01*
Y206000D02*
X125000Y203000D01*
X122000Y206000D02*
Y219000D01*
X92000Y228000D02*
Y260500D01*
X116000Y174000D02*
Y204000D01*
X92000Y228000D02*
X116000Y204000D01*
X125000Y169843D02*
Y203000D01*
Y169843D02*
X147300Y147543D01*
Y107000D02*
Y147543D01*
X174000Y237500D02*
Y258000D01*
X9500Y481940D02*
X25400Y497840D01*
X9500Y445343D02*
X11843Y443000D01*
X17657D01*
X20000Y432500D02*
Y440657D01*
X17657Y443000D02*
X20000Y440657D01*
X9500Y445343D02*
Y481940D01*
X166500Y396000D02*
X168000Y394500D01*
X171000D01*
X12500Y291000D02*
Y398580D01*
X25400Y411480D01*
X54000Y284750D02*
Y293500D01*
Y276000D02*
Y284750D01*
X16000Y272192D02*
X16635D01*
X20617Y276174D01*
Y279617D01*
X21000Y280000D01*
X42000Y281000D02*
X42383Y281383D01*
X44383D01*
X47750Y284750D02*
X54000D01*
X44383Y281383D02*
X47750Y284750D01*
X53500Y294000D02*
X54000Y293500D01*
X260500Y52000D02*
X268000Y44500D01*
X259000Y52000D02*
X260500D01*
X268000Y44500D02*
X271000D01*
X256000Y164500D02*
X258000D01*
X267500Y155000D01*
X292617Y101383D02*
X293000Y101000D01*
X267500Y119722D02*
X285839Y101383D01*
X267500Y119722D02*
Y155000D01*
X262000Y108000D02*
X278000Y92000D01*
X309000D02*
X310500Y90500D01*
Y87000D02*
Y90500D01*
X278000Y92000D02*
X309000D01*
X329500Y90000D02*
Y93000D01*
X321500Y101000D02*
X329500Y93000D01*
X293000Y101000D02*
X321500D01*
X307500Y44500D02*
X310617Y47617D01*
X460000Y64500D02*
X462000Y62500D01*
X636000Y118000D02*
X644500D01*
X652500Y124000D02*
Y126000D01*
X650000Y121500D02*
X652500Y124000D01*
X648000Y121500D02*
X650000D01*
X644500Y118000D02*
X648000Y121500D01*
X591500Y280000D02*
Y318157D01*
Y252943D02*
Y280000D01*
X670000Y224500D02*
X673000D01*
X642000Y280000D02*
X649000Y273000D01*
X591500Y280000D02*
X642000D01*
X591500Y318157D02*
X593500Y320157D01*
X599808Y244000D02*
Y244635D01*
X591500Y252943D02*
X599808Y244635D01*
X593500Y320157D02*
Y378000D01*
X605500Y228000D02*
Y238308D01*
X601237Y242571D02*
X605500Y238308D01*
X600602Y242571D02*
X601237D01*
X599808Y243365D02*
X600602Y242571D01*
X599808Y243365D02*
Y244000D01*
X21500Y522000D02*
X23450Y520050D01*
Y499790D02*
Y520050D01*
Y499790D02*
X25400Y497840D01*
X20000Y420398D02*
Y432500D01*
Y420398D02*
X25400Y414998D01*
Y411480D02*
Y414998D01*
X12500Y275057D02*
Y291000D01*
Y275057D02*
X15365Y272192D01*
X16000D01*
X199000Y181500D02*
X201000D01*
X208172Y174328D01*
Y172328D02*
Y174328D01*
Y172328D02*
X211000Y169500D01*
X218500D01*
Y160500D02*
X220843Y158157D01*
X244157Y162000D02*
X253500D01*
X256000Y164500D01*
X220843Y158157D02*
X240314D01*
X218500Y160500D02*
Y169500D01*
X240314Y158157D02*
X244157Y162000D01*
X304800Y41800D02*
X307500Y44500D01*
X271000D02*
X307500D01*
X304800Y25400D02*
Y41800D01*
X329500Y87000D02*
Y90000D01*
Y87000D02*
X338500Y78000D01*
Y72500D02*
Y78000D01*
Y72500D02*
X341000Y70000D01*
X460000Y64500D02*
X462000D01*
X652500Y126000D02*
Y128000D01*
X667500Y143000D01*
X670500D01*
X671500Y144000D01*
Y146500D01*
X673000Y212500D02*
Y224500D01*
X287500Y383000D02*
Y401000D01*
X420500Y82000D02*
Y102000D01*
X458000Y83500D02*
X460000D01*
X420500Y102000D02*
X429500Y93000D01*
X420500Y102000D02*
Y104000D01*
X417450Y109050D02*
Y130970D01*
Y109050D02*
X420500Y106000D01*
Y104000D02*
Y106000D01*
X500500Y80000D02*
X501000Y79500D01*
Y56500D02*
Y79500D01*
Y56500D02*
X501500Y56000D01*
X500500Y80000D02*
Y82000D01*
X491383Y91117D02*
X500500Y82000D01*
X491383Y91117D02*
Y95617D01*
X491000Y96000D02*
X491383Y95617D01*
X468250Y177250D02*
Y201930D01*
X468000Y177000D02*
X468250Y177250D01*
X467875Y202305D02*
X468250Y201930D01*
X467875Y202305D02*
Y228625D01*
X467500Y229000D02*
X467875Y228625D01*
X211500Y117343D02*
Y121000D01*
Y117343D02*
X213843Y115000D01*
X242000D01*
X246000Y111000D01*
X207000Y123500D02*
X209000D01*
X211500Y121000D01*
X174000Y237500D02*
X175000Y236500D01*
X183000Y203000D02*
X183541D01*
X187541Y207000D01*
X188000D01*
X148500Y201500D02*
Y215000D01*
Y201500D02*
X149000Y201000D01*
X222000Y326500D02*
X224000D01*
X213500Y318000D02*
X222000Y326500D01*
X182000Y258000D02*
Y289907D01*
X187343Y295250D01*
X195250D01*
X199000Y238500D02*
X221000D01*
X196500Y203000D02*
X199000Y200500D01*
X193000Y203000D02*
X196500D01*
X192000Y204000D02*
X193000Y203000D01*
X188000Y207000D02*
X191000Y204000D01*
X192000D01*
X190343Y232000D02*
X190500D01*
X188000Y229657D02*
X190343Y232000D01*
X188000Y207000D02*
Y229657D01*
X197000Y238500D02*
X199000D01*
X190500Y232000D02*
X197000Y238500D01*
X199000D02*
Y250000D01*
X196000Y253000D02*
X199000Y250000D01*
X182750Y253000D02*
X196000D01*
X182000Y253750D02*
Y258000D01*
Y253750D02*
X182750Y253000D01*
X334843Y59500D02*
X337500D01*
X346000Y51000D01*
X185400Y107000D02*
Y115000D01*
X186400Y116000D01*
X197500D01*
X205000Y123500D01*
X207000D01*
X172700Y107000D02*
X185400D01*
X173050Y81350D02*
X173400Y81000D01*
X173050Y81350D02*
Y106650D01*
X172700Y107000D02*
X173050Y106650D01*
X113000Y123500D02*
X115000D01*
X74000Y19000D02*
Y26000D01*
X115000Y123500D02*
X117500Y121000D01*
X120600D01*
X125600Y116000D01*
X133600D01*
X134600Y115000D01*
Y107000D02*
Y115000D01*
Y107000D02*
X147300D01*
X348500Y90000D02*
X348500Y90000D01*
X376000D01*
X383500Y82500D01*
Y49000D02*
Y82500D01*
X381000Y25400D02*
X382250Y26650D01*
Y47750D01*
X383500Y49000D01*
X25000Y56000D02*
X27000Y58000D01*
X25000Y22000D02*
Y56000D01*
X31500Y93500D02*
X75000D01*
X27000Y89000D02*
X31500Y93500D01*
X75000D02*
Y100500D01*
X81000Y106500D01*
X48000Y208000D02*
Y215000D01*
Y206250D02*
Y208000D01*
X38000Y201000D02*
X42750D01*
X48000Y206250D01*
X451000Y159000D02*
X642000D01*
X442000Y150000D02*
X451000Y159000D01*
X458000Y104000D02*
Y116000D01*
X443030Y130970D02*
X458000Y116000D01*
X442850Y130970D02*
X443030D01*
X442000Y131820D02*
X442850Y130970D01*
X442000Y131820D02*
Y150000D01*
X233000Y461000D02*
Y496993D01*
X238760Y502753D01*
Y508000D01*
D70*
X152400D02*
D03*
D71*
X139700Y25400D02*
D03*
X660400Y76200D02*
D03*
Y355600D02*
D03*
D72*
X416560Y508000D02*
D03*
X279400Y25400D02*
D03*
X635000Y508000D02*
D03*
X508000Y25400D02*
D03*
X620650Y201930D02*
D03*
D73*
X391160Y508000D02*
D03*
X365760D02*
D03*
X340360D02*
D03*
X314960D02*
D03*
X289560D02*
D03*
X264160D02*
D03*
X238760D02*
D03*
X213360D02*
D03*
X187960D02*
D03*
X457200Y25400D02*
D03*
X431800D02*
D03*
X406400D02*
D03*
X381000D02*
D03*
X355600D02*
D03*
X330200D02*
D03*
X304800D02*
D03*
X457200Y508000D02*
D03*
X482600D02*
D03*
X508000D02*
D03*
X533400D02*
D03*
X558800D02*
D03*
X584200D02*
D03*
X609600D02*
D03*
X533400Y25400D02*
D03*
X558800D02*
D03*
X584200D02*
D03*
X609600D02*
D03*
X635000D02*
D03*
X595250Y201930D02*
D03*
X569850D02*
D03*
X544450D02*
D03*
X519050D02*
D03*
X493650D02*
D03*
X468250D02*
D03*
X442850D02*
D03*
X417450D02*
D03*
X392050D02*
D03*
X366650D02*
D03*
X341250D02*
D03*
X315850D02*
D03*
X290450D02*
D03*
X620650Y130970D02*
D03*
X595250D02*
D03*
X569850D02*
D03*
X544450D02*
D03*
X519050D02*
D03*
X493650D02*
D03*
X468250D02*
D03*
X442850D02*
D03*
X417450D02*
D03*
X392050D02*
D03*
X366650D02*
D03*
X341250D02*
D03*
X315850D02*
D03*
X290450D02*
D03*
D74*
X25000Y22000D02*
D03*
Y124000D02*
D03*
D75*
X11250Y221000D02*
D03*
Y155000D02*
D03*
D76*
X76200Y411480D02*
D03*
X50800D02*
D03*
X25400D02*
D03*
X76200Y386080D02*
D03*
X50800D02*
D03*
X76200Y497840D02*
D03*
X50800D02*
D03*
X25400D02*
D03*
X76200Y472440D02*
D03*
X50800D02*
D03*
X25400Y341998D02*
D03*
X50800Y316598D02*
D03*
X25400D02*
D03*
X146000Y369800D02*
D03*
Y395200D02*
D03*
Y420600D02*
D03*
X665000Y446000D02*
D03*
Y420600D02*
D03*
X148000Y81000D02*
D03*
X173400D02*
D03*
D77*
X25400Y386080D02*
D03*
Y472440D02*
D03*
X50800Y341998D02*
D03*
X122600Y81000D02*
D03*
D78*
X146000Y446000D02*
D03*
X665000Y471400D02*
D03*
D79*
X547000Y449000D02*
D03*
X268000Y443000D02*
D03*
X591500Y432500D02*
D03*
X597000Y440000D02*
D03*
X480500Y250000D02*
D03*
X246000Y111000D02*
D03*
X93000Y399000D02*
D03*
X321000Y66000D02*
D03*
X310050Y67050D02*
D03*
X601250Y415250D02*
D03*
X55000Y144000D02*
D03*
X63000Y162000D02*
D03*
X160000Y129000D02*
D03*
X226000Y429999D02*
D03*
X166000Y408000D02*
D03*
X184000Y438000D02*
D03*
X210000Y393000D02*
D03*
X174500Y207000D02*
D03*
X138000Y225000D02*
D03*
X210500Y412000D02*
D03*
X205000Y349000D02*
D03*
X194000D02*
D03*
X217000Y344000D02*
D03*
X175000Y189000D02*
D03*
X221000Y207000D02*
D03*
X74000Y440000D02*
D03*
X53000Y523000D02*
D03*
X65000Y265399D02*
D03*
X36000Y235000D02*
D03*
X74000Y214000D02*
D03*
X104000Y88000D02*
D03*
X57000Y82000D02*
D03*
X228000Y92000D02*
D03*
X258000Y131000D02*
D03*
X293000Y101000D02*
D03*
X375000Y71000D02*
D03*
X402000Y64000D02*
D03*
X439000Y67000D02*
D03*
X431000Y119000D02*
D03*
X393000Y251000D02*
D03*
X683000Y126000D02*
D03*
X659000Y162000D02*
D03*
X637000Y198000D02*
D03*
X649000Y269000D02*
D03*
X661000Y235000D02*
D03*
X608000Y289000D02*
D03*
X253000Y200000D02*
D03*
X669357Y163067D02*
D03*
X174000Y276000D02*
D03*
X113000Y261000D02*
D03*
X21000Y280000D02*
D03*
X42000Y281000D02*
D03*
X116000Y174000D02*
D03*
X259000Y52000D02*
D03*
X462000Y42000D02*
D03*
X636000Y118000D02*
D03*
X93000Y320000D02*
D03*
Y376000D02*
D03*
X100836Y273848D02*
D03*
X101000Y369000D02*
D03*
X197000Y377000D02*
D03*
X491000Y96000D02*
D03*
X468000Y177000D02*
D03*
X262000Y108000D02*
D03*
X183000Y203000D02*
D03*
X149000Y201000D02*
D03*
X88000Y118000D02*
D03*
Y109000D02*
D03*
X48000Y208000D02*
D03*
Y215000D02*
D03*
X158000Y187500D02*
D03*
X167000Y194000D02*
D03*
X103000Y182000D02*
D03*
Y200000D02*
D03*
X300000Y474000D02*
D03*
X212000Y480500D02*
D03*
X642000Y159000D02*
D03*
X606000Y439875D02*
D03*
X630000Y490000D02*
D03*
X328000Y172000D02*
D03*
X330439Y290561D02*
D03*
X304000Y172000D02*
D03*
Y232000D02*
D03*
M02*
