G04*
G04 #@! TF.GenerationSoftware,Altium Limited,Altium Designer,20.0.13 (296)*
G04*
G04 Layer_Physical_Order=2*
G04 Layer_Color=16711680*
%FSLAX44Y44*%
%MOMM*%
G71*
G01*
G75*
%ADD20R,1.9000X1.9000*%
%ADD62C,1.9000*%
%ADD63R,1.9000X1.9000*%
%ADD68C,0.3000*%
%ADD69C,0.4000*%
%ADD70C,1.5240*%
%ADD71C,7.0000*%
%ADD72R,1.6000X2.0000*%
%ADD73O,1.6000X2.0000*%
%ADD74C,4.0000*%
G04:AMPARAMS|DCode=75|XSize=2mm|YSize=1.2mm|CornerRadius=0.3mm|HoleSize=0mm|Usage=FLASHONLY|Rotation=0.000|XOffset=0mm|YOffset=0mm|HoleType=Round|Shape=RoundedRectangle|*
%AMROUNDEDRECTD75*
21,1,2.0000,0.6000,0,0,0.0*
21,1,1.4000,1.2000,0,0,0.0*
1,1,0.6000,0.7000,-0.3000*
1,1,0.6000,-0.7000,-0.3000*
1,1,0.6000,-0.7000,0.3000*
1,1,0.6000,0.7000,0.3000*
%
%ADD75ROUNDEDRECTD75*%
%ADD76C,1.7000*%
%ADD77R,1.7000X1.7000*%
%ADD78R,1.7000X1.7000*%
%ADD79C,0.6000*%
G36*
X195885Y525730D02*
X195277Y525323D01*
X189798Y519844D01*
X187960Y520086D01*
X185350Y519743D01*
X182917Y518735D01*
X180828Y517132D01*
X179225Y515043D01*
X178217Y512611D01*
X177874Y510000D01*
Y506000D01*
X178217Y503390D01*
X179225Y500957D01*
X180828Y498868D01*
X182917Y497265D01*
X185350Y496257D01*
X187960Y495914D01*
X190571Y496257D01*
X193003Y497265D01*
X195092Y498868D01*
X196695Y500957D01*
X197703Y503390D01*
X198046Y506000D01*
Y510000D01*
X197703Y512611D01*
X196695Y515043D01*
X195998Y515951D01*
X199278Y519231D01*
X206878D01*
X207309Y517962D01*
X206228Y517132D01*
X204625Y515043D01*
X203617Y512611D01*
X203274Y510000D01*
Y506000D01*
X203617Y503390D01*
X204625Y500957D01*
X206228Y498868D01*
X208317Y497265D01*
X209791Y496654D01*
Y489640D01*
X210063Y488274D01*
X210837Y487117D01*
X211216Y486737D01*
X210798Y485359D01*
X210049Y485210D01*
X208395Y484105D01*
X207290Y482451D01*
X206902Y480500D01*
X207290Y478549D01*
X208395Y476895D01*
X210049Y475790D01*
X212000Y475402D01*
X212043Y475411D01*
X215115Y472339D01*
X214589Y471069D01*
X175500D01*
X174134Y470797D01*
X172977Y470023D01*
X159522Y456569D01*
X153000D01*
X152655Y456500D01*
X135500D01*
Y450569D01*
X103478D01*
X85820Y468227D01*
X86430Y469699D01*
X86791Y472440D01*
X86430Y475181D01*
X85372Y477735D01*
X83689Y479929D01*
X81495Y481612D01*
X78941Y482670D01*
X76200Y483031D01*
X73459Y482670D01*
X70905Y481612D01*
X68711Y479929D01*
X67028Y477735D01*
X65970Y475181D01*
X65609Y472440D01*
X65970Y469699D01*
X67028Y467145D01*
X68711Y464951D01*
X70905Y463268D01*
X73459Y462210D01*
X76200Y461849D01*
X78941Y462210D01*
X80922Y463031D01*
X99477Y444477D01*
X100634Y443703D01*
X102000Y443431D01*
X135500D01*
Y435500D01*
X156500D01*
Y449431D01*
X161000D01*
X162366Y449703D01*
X163523Y450477D01*
X176978Y463931D01*
X207483D01*
X207969Y462758D01*
X194477Y449266D01*
X194429Y449194D01*
X193442Y448442D01*
X192780Y448884D01*
X192000Y449039D01*
X172845D01*
X172442Y449442D01*
X171780Y449884D01*
X171000Y450039D01*
X170220Y449884D01*
X169558Y449442D01*
X169558Y449442D01*
X168558Y448442D01*
X168116Y447780D01*
X167961Y447000D01*
Y434039D01*
X149234D01*
X149037Y434000D01*
X148837D01*
X148651Y433923D01*
X148454Y433884D01*
X148287Y433772D01*
X148102Y433695D01*
X147959Y433554D01*
X147793Y433442D01*
X147681Y433275D01*
X147539Y433133D01*
X147462Y432947D01*
X147350Y432780D01*
X147311Y432583D01*
X147234Y432398D01*
X146982Y431128D01*
X146916Y431070D01*
X146000Y431191D01*
X145084Y431070D01*
X145018Y431128D01*
X144766Y432398D01*
X144689Y432583D01*
X144649Y432780D01*
X144538Y432947D01*
X144461Y433133D01*
X144319Y433275D01*
X144207Y433442D01*
X144041Y433554D01*
X143898Y433695D01*
X143713Y433772D01*
X143546Y433884D01*
X143349Y433923D01*
X143163Y434000D01*
X142963D01*
X142766Y434039D01*
X131000D01*
X130220Y433884D01*
X129558Y433442D01*
X129116Y432780D01*
X128961Y432000D01*
Y382000D01*
X129116Y381220D01*
X129558Y380558D01*
X130220Y380116D01*
X131000Y379961D01*
X139908D01*
X140339Y378691D01*
X138511Y377289D01*
X136828Y375095D01*
X135770Y372541D01*
X135409Y369800D01*
X135770Y367059D01*
X136828Y364505D01*
X138511Y362311D01*
X140705Y360628D01*
X143259Y359570D01*
X146000Y359209D01*
X148741Y359570D01*
X151295Y360628D01*
X153489Y362311D01*
X155172Y364505D01*
X156230Y367059D01*
X156591Y369800D01*
X156230Y372541D01*
X155172Y375095D01*
X153489Y377289D01*
X151661Y378691D01*
X152093Y379961D01*
X190000D01*
X190780Y380116D01*
X191299Y380463D01*
X191883Y380390D01*
X192743Y380063D01*
X192832Y379762D01*
X192290Y378951D01*
X191902Y377000D01*
X192290Y375049D01*
X193395Y373395D01*
X195049Y372290D01*
X197000Y371902D01*
X198951Y372290D01*
X200605Y373395D01*
X201710Y375049D01*
X202098Y377000D01*
X201710Y378951D01*
X200605Y380605D01*
X200569Y380629D01*
Y445265D01*
X213736Y458431D01*
X231326D01*
X231852Y457161D01*
X211976Y437286D01*
X211203Y436128D01*
X210931Y434763D01*
Y425236D01*
X211203Y423870D01*
X211976Y422712D01*
X213431Y421257D01*
Y418115D01*
X212161Y417318D01*
X211770Y417396D01*
Y412000D01*
Y406604D01*
X212161Y406682D01*
X213431Y405885D01*
Y398717D01*
X212311Y398119D01*
X212162Y398219D01*
X211270Y398396D01*
Y393000D01*
Y387604D01*
X212162Y387781D01*
X212311Y387882D01*
X213431Y387283D01*
Y373478D01*
X194043Y354089D01*
X194000Y354098D01*
X192049Y353710D01*
X190395Y352605D01*
X189290Y350951D01*
X188902Y349000D01*
X189290Y347049D01*
X190395Y345395D01*
X192049Y344290D01*
X194000Y343902D01*
X195951Y344290D01*
X197605Y345395D01*
X198710Y347049D01*
X198853Y347766D01*
X200147D01*
X200290Y347049D01*
X201395Y345395D01*
X203049Y344290D01*
X205000Y343902D01*
X206951Y344290D01*
X208605Y345395D01*
X209710Y347049D01*
X210098Y349000D01*
X209710Y350951D01*
X209053Y351935D01*
X224523Y367406D01*
X225297Y368563D01*
X225569Y369929D01*
Y423997D01*
X226000Y424351D01*
X228161Y424781D01*
X229994Y426005D01*
X231218Y427837D01*
X231395Y428729D01*
X226000D01*
Y431269D01*
X231395D01*
X231218Y432161D01*
X229994Y433993D01*
X228585Y434934D01*
X228251Y436396D01*
X238286Y446431D01*
X262283D01*
X262882Y445311D01*
X262781Y445162D01*
X262604Y444270D01*
X273396D01*
X273219Y445162D01*
X273118Y445311D01*
X273717Y446431D01*
X542703D01*
X543395Y445395D01*
X545049Y444290D01*
X547000Y443902D01*
X548951Y444290D01*
X550605Y445395D01*
X551710Y447049D01*
X552098Y449000D01*
X553271Y449611D01*
X579906Y422977D01*
X581063Y422203D01*
X582429Y421931D01*
X593692D01*
X595058Y422203D01*
X596216Y422977D01*
X607661Y434422D01*
X608931Y433896D01*
Y400578D01*
X597477Y389123D01*
X596703Y387966D01*
X596431Y386600D01*
Y329029D01*
X589349Y320345D01*
X583477Y314473D01*
X582703Y313315D01*
X582431Y311950D01*
Y235222D01*
X582703Y233856D01*
X583477Y232698D01*
X605581Y210594D01*
Y208438D01*
X604311Y208185D01*
X603985Y208973D01*
X602382Y211062D01*
X600293Y212665D01*
X597860Y213673D01*
X595250Y214016D01*
X592640Y213673D01*
X590207Y212665D01*
X588118Y211062D01*
X586515Y208973D01*
X585507Y206541D01*
X585164Y203930D01*
Y199930D01*
X585507Y197320D01*
X586515Y194887D01*
X588118Y192798D01*
X590207Y191195D01*
X592640Y190187D01*
X595250Y189844D01*
X597860Y190187D01*
X600293Y191195D01*
X602382Y192798D01*
X603985Y194887D01*
X604311Y195675D01*
X605581Y195422D01*
Y179850D01*
X605853Y178484D01*
X606627Y177327D01*
X614431Y169522D01*
Y157198D01*
X599335Y142102D01*
X597860Y142713D01*
X595250Y143056D01*
X592640Y142713D01*
X590207Y141705D01*
X588118Y140102D01*
X586515Y138013D01*
X585507Y135581D01*
X585164Y132970D01*
Y128970D01*
X585507Y126360D01*
X586515Y123927D01*
X588118Y121838D01*
X590207Y120235D01*
X592640Y119227D01*
X595250Y118884D01*
X597860Y119227D01*
X600293Y120235D01*
X602382Y121838D01*
X603985Y123927D01*
X604993Y126360D01*
X605336Y128970D01*
Y132970D01*
X604993Y135581D01*
X604382Y137055D01*
X618161Y150835D01*
X619431Y150309D01*
Y142896D01*
X618040Y142713D01*
X615607Y141705D01*
X613518Y140102D01*
X611915Y138013D01*
X610907Y135581D01*
X610564Y132970D01*
Y128970D01*
X610907Y126360D01*
X611915Y123927D01*
X613518Y121838D01*
X615607Y120235D01*
X618040Y119227D01*
X620650Y118884D01*
X621264Y118965D01*
X621825Y117825D01*
X550078Y46078D01*
X464896D01*
X463951Y46710D01*
X462000Y47098D01*
X460049Y46710D01*
X459104Y46078D01*
X336790D01*
X323263Y59605D01*
X323594Y61070D01*
X324994Y62006D01*
X326218Y63838D01*
X326396Y64730D01*
X321000D01*
Y66000D01*
X319730D01*
Y71396D01*
X318838Y71219D01*
X317006Y69994D01*
X316360Y69028D01*
X315096Y68903D01*
X314279Y69721D01*
X313655Y70655D01*
X312721Y71280D01*
X298000Y86000D01*
Y100507D01*
X298098Y101000D01*
X298000Y101493D01*
Y104000D01*
X295000Y107000D01*
X287000D01*
X275000Y119000D01*
X267197D01*
X267000Y119039D01*
X249508D01*
X249417Y119021D01*
X249324Y119031D01*
X249220Y119000D01*
X241078D01*
Y120311D01*
X247689Y126922D01*
X254132D01*
X255838Y125781D01*
X256730Y125604D01*
Y131000D01*
Y136396D01*
X255838Y136219D01*
X254132Y135078D01*
X246000D01*
X244439Y134768D01*
X243116Y133884D01*
X243116Y133884D01*
X234116Y124884D01*
X233232Y123561D01*
X232922Y122000D01*
X232922Y122000D01*
Y119039D01*
X173427D01*
X173230Y119000D01*
X169768D01*
X164461Y124307D01*
Y125705D01*
X165219Y126838D01*
X165396Y127730D01*
X160000D01*
Y129000D01*
X158730D01*
Y134396D01*
X157838Y134219D01*
X156006Y132994D01*
X154782Y131162D01*
X154359Y129039D01*
X135961D01*
X135000Y130000D01*
Y177000D01*
X130000Y182000D01*
X110810D01*
X110285Y183197D01*
X110876Y183931D01*
X154371D01*
X154395Y183895D01*
X156049Y182790D01*
X158000Y182402D01*
X159951Y182790D01*
X161605Y183895D01*
X162710Y185549D01*
X163098Y187500D01*
X162768Y189161D01*
X162870Y189378D01*
X164152Y189890D01*
X165049Y189290D01*
X167000Y188902D01*
X168130Y189127D01*
X169086Y189028D01*
X169510Y188205D01*
X169781Y186838D01*
X171006Y185006D01*
X172838Y183781D01*
X173730Y183604D01*
Y189000D01*
Y194396D01*
X173330Y194316D01*
X173124Y194415D01*
X173060Y194651D01*
X174032Y195921D01*
X179458D01*
X179458Y195921D01*
X181019Y196232D01*
X182342Y197116D01*
X183160Y197934D01*
X184951Y198290D01*
X186605Y199395D01*
X187710Y201049D01*
X188098Y203000D01*
X187710Y204951D01*
X186605Y206605D01*
X184951Y207710D01*
X183000Y208098D01*
X181049Y207710D01*
X179914Y208180D01*
X179719Y209161D01*
X178494Y210994D01*
X176662Y212218D01*
X175770Y212395D01*
Y207000D01*
X174500D01*
Y205730D01*
X168767D01*
X168233Y205078D01*
X151896D01*
X150951Y205710D01*
X149000Y206098D01*
X147049Y205710D01*
X145395Y204605D01*
X144290Y202951D01*
X143902Y201000D01*
X144290Y199049D01*
X144531Y198689D01*
X143932Y197569D01*
X110478D01*
X108089Y199957D01*
X108098Y200000D01*
X107710Y201951D01*
X106605Y203605D01*
X104951Y204710D01*
X103000Y205098D01*
X101049Y204710D01*
X99395Y203605D01*
X98290Y201951D01*
X97902Y200000D01*
X98290Y198049D01*
X99395Y196395D01*
X101049Y195290D01*
X103000Y194902D01*
X103043Y194911D01*
X106477Y191477D01*
X106548Y191429D01*
X106671Y190485D01*
X106585Y189877D01*
X103672Y186964D01*
X103000Y187098D01*
X101049Y186710D01*
X99395Y185605D01*
X98290Y183951D01*
X97902Y182000D01*
X98290Y180049D01*
X99395Y178395D01*
X99583Y178270D01*
X99197Y177000D01*
X97000D01*
X92000Y182000D01*
X91197D01*
X91000Y182039D01*
X66000D01*
Y215000D01*
X65039Y215961D01*
Y216000D01*
X65039Y216000D01*
X64884Y216780D01*
X64442Y217442D01*
X58442Y223442D01*
X57780Y223884D01*
X57000Y224039D01*
X56961D01*
X51000Y230000D01*
X40601D01*
X40171Y231270D01*
X41219Y232838D01*
X41396Y233730D01*
X30604D01*
X30781Y232838D01*
X31829Y231270D01*
X31399Y230000D01*
X28039D01*
X28039Y262039D01*
X33000Y267000D01*
X57000D01*
X59000Y269000D01*
Y269803D01*
X59039Y270000D01*
Y303039D01*
X60961Y304961D01*
X74000D01*
X74780Y305116D01*
X75442Y305558D01*
X75737Y306000D01*
X76000D01*
Y306803D01*
X76039Y307000D01*
Y367000D01*
X76000Y367197D01*
Y370000D01*
X72000Y374000D01*
X69884D01*
X69442Y374442D01*
X68780Y374884D01*
X68000Y375039D01*
X65961D01*
X65039Y375961D01*
Y382268D01*
X66309Y382521D01*
X67028Y380785D01*
X68711Y378591D01*
X70905Y376908D01*
X73459Y375850D01*
X76200Y375489D01*
X78941Y375850D01*
X81495Y376908D01*
X83689Y378591D01*
X85372Y380785D01*
X86430Y383339D01*
X86791Y386080D01*
X86430Y388821D01*
X85372Y391375D01*
X83689Y393569D01*
X83519Y393699D01*
X83927Y394902D01*
X90134D01*
X91049Y394290D01*
X93000Y393902D01*
X94951Y394290D01*
X96605Y395395D01*
X97710Y397049D01*
X98098Y399000D01*
X97710Y400951D01*
X96605Y402605D01*
X94951Y403710D01*
X93000Y404098D01*
X91049Y403710D01*
X90074Y403058D01*
X85254D01*
X84628Y404328D01*
X85843Y405912D01*
X86956Y408598D01*
X87168Y410210D01*
X76200D01*
Y411480D01*
X74930D01*
Y422448D01*
X73318Y422236D01*
X70632Y421123D01*
X68326Y419354D01*
X66557Y417048D01*
X66309Y416450D01*
X65039Y416703D01*
Y425000D01*
X65039Y425000D01*
X65000Y425197D01*
Y427000D01*
X41039Y450961D01*
Y465826D01*
X42309Y466257D01*
X43311Y464951D01*
X45505Y463268D01*
X48059Y462210D01*
X50800Y461849D01*
X53541Y462210D01*
X56095Y463268D01*
X58289Y464951D01*
X59972Y467145D01*
X61030Y469699D01*
X61391Y472440D01*
X61030Y475181D01*
X59972Y477735D01*
X58289Y479929D01*
X56095Y481612D01*
X53541Y482670D01*
X50800Y483031D01*
X48059Y482670D01*
X45505Y481612D01*
X43311Y479929D01*
X42309Y478623D01*
X41039Y479054D01*
Y491226D01*
X42309Y491657D01*
X43311Y490351D01*
X45505Y488668D01*
X48059Y487610D01*
X50800Y487249D01*
X53541Y487610D01*
X56095Y488668D01*
X58289Y490351D01*
X59972Y492545D01*
X61030Y495099D01*
X61391Y497840D01*
X61030Y500581D01*
X59972Y503135D01*
X58289Y505329D01*
X56095Y507012D01*
X53541Y508070D01*
X50800Y508431D01*
X48059Y508070D01*
X45505Y507012D01*
X43311Y505329D01*
X42309Y504023D01*
X41039Y504454D01*
Y524000D01*
X41000Y524197D01*
Y527000D01*
X42270Y527000D01*
X47482D01*
X48161Y525730D01*
X47781Y525162D01*
X47604Y524270D01*
X58396D01*
X58219Y525162D01*
X57839Y525730D01*
X58518Y527000D01*
X148740D01*
X148871Y525740D01*
X145478Y524710D01*
X142351Y523039D01*
X139611Y520789D01*
X137361Y518049D01*
X135690Y514922D01*
X134661Y511529D01*
X134313Y508000D01*
X134661Y504471D01*
X135690Y501078D01*
X137361Y497951D01*
X139611Y495210D01*
X142351Y492961D01*
X145478Y491290D01*
X148871Y490261D01*
X152400Y489913D01*
X155929Y490261D01*
X159322Y491290D01*
X162449Y492961D01*
X165189Y495210D01*
X167439Y497951D01*
X169110Y501078D01*
X170140Y504471D01*
X170487Y508000D01*
X170140Y511529D01*
X169110Y514922D01*
X167439Y518049D01*
X165189Y520789D01*
X162449Y523039D01*
X159322Y524710D01*
X155929Y525740D01*
X156060Y527000D01*
X195500D01*
X195885Y525730D01*
D02*
G37*
G36*
X172000Y447000D02*
X192000D01*
Y384000D01*
X190000Y382000D01*
X131000D01*
Y432000D01*
X142766D01*
X143018Y430730D01*
X140705Y429772D01*
X138511Y428089D01*
X136828Y425895D01*
X135770Y423341D01*
X135409Y420600D01*
X135770Y417859D01*
X136828Y415305D01*
X138511Y413111D01*
X140705Y411428D01*
X143259Y410370D01*
X146000Y410009D01*
X148741Y410370D01*
X151295Y411428D01*
X153489Y413111D01*
X155172Y415305D01*
X156230Y417859D01*
X156591Y420600D01*
X156230Y423341D01*
X155172Y425895D01*
X153489Y428089D01*
X151295Y429772D01*
X148982Y430730D01*
X149234Y432000D01*
X170000D01*
Y447000D01*
X171000Y448000D01*
X172000Y447000D01*
D02*
G37*
G36*
X39000Y449000D02*
X63000Y425000D01*
Y403058D01*
X57073D01*
X58289Y403991D01*
X59972Y406185D01*
X61030Y408739D01*
X61391Y411480D01*
X61030Y414221D01*
X59972Y416775D01*
X58289Y418969D01*
X56095Y420652D01*
X53541Y421710D01*
X50800Y422071D01*
X48059Y421710D01*
X45505Y420652D01*
X43311Y418969D01*
X41628Y416775D01*
X40570Y414221D01*
X40209Y411480D01*
X40570Y408739D01*
X41628Y406185D01*
X43311Y403991D01*
X44501Y403078D01*
X39569D01*
X35539Y407109D01*
X36156Y408598D01*
X36368Y410210D01*
X26670D01*
Y400512D01*
X28282Y400724D01*
X29771Y401341D01*
X34532Y396580D01*
X14900D01*
Y375580D01*
X35900D01*
Y395512D01*
X36319Y395232D01*
X37880Y394922D01*
X45075D01*
X43311Y393569D01*
X41628Y391375D01*
X40570Y388821D01*
X40209Y386080D01*
X40570Y383339D01*
X41628Y380785D01*
X43311Y378591D01*
X45505Y376908D01*
X48059Y375850D01*
X50800Y375489D01*
X53541Y375850D01*
X56095Y376908D01*
X58289Y378591D01*
X59972Y380785D01*
X61030Y383339D01*
X61391Y386080D01*
X61030Y388821D01*
X59972Y391375D01*
X58289Y393569D01*
X56551Y394902D01*
X63000D01*
Y373000D01*
X68000D01*
X74000Y367000D01*
Y307000D01*
X60000D01*
X57000Y304000D01*
Y270000D01*
X33000D01*
X26000Y263000D01*
X26000Y161000D01*
X65000Y122000D01*
X66000Y121000D01*
Y106000D01*
X73000Y99000D01*
X96000D01*
X97000Y100000D01*
Y117000D01*
X106000D01*
X108000Y119000D01*
Y179000D01*
X113511D01*
X112006Y177994D01*
X110781Y176162D01*
X110604Y175270D01*
X121396D01*
X121219Y176162D01*
X119994Y177994D01*
X118489Y179000D01*
X123000D01*
Y130000D01*
X126000Y127000D01*
X155000D01*
Y92000D01*
X156000Y91000D01*
X159961D01*
Y85646D01*
X160000Y85449D01*
Y85248D01*
X160077Y85062D01*
X160116Y84865D01*
X160228Y84698D01*
X160305Y84513D01*
X160446Y84370D01*
X160558Y84204D01*
X160725Y84092D01*
X160867Y83950D01*
X161000Y83895D01*
Y78000D01*
X162000Y77000D01*
Y72000D01*
X165000Y69000D01*
X165116D01*
X166000Y68116D01*
Y68000D01*
X173000Y61000D01*
X173803D01*
X174000Y60961D01*
X290155D01*
X291000Y60116D01*
Y60000D01*
X310000Y41000D01*
Y41000D01*
X310000D01*
X314961Y36039D01*
Y30412D01*
X314007Y32715D01*
X312317Y34917D01*
X310116Y36607D01*
X307551Y37669D01*
X306070Y37864D01*
Y25400D01*
X304800D01*
Y24130D01*
X294169D01*
Y23400D01*
X294531Y20649D01*
X295593Y18084D01*
X295658Y18000D01*
X293000D01*
Y38000D01*
X267000D01*
X260000Y45000D01*
X258884D01*
X257168Y46716D01*
X257730Y46604D01*
Y50730D01*
X253604D01*
X253716Y50168D01*
X253442Y50442D01*
X252780Y50884D01*
X252000Y51039D01*
X176961D01*
X171000Y57000D01*
X169884D01*
X168000Y58884D01*
Y59000D01*
X154742Y72258D01*
X155874Y73126D01*
X157643Y75432D01*
X158756Y78118D01*
X158968Y79730D01*
X148000D01*
Y81000D01*
X146730D01*
Y91968D01*
X145118Y91756D01*
X142432Y90643D01*
X140126Y88874D01*
X138357Y86568D01*
X138039Y85801D01*
Y91476D01*
X138035Y91496D01*
X138039Y91517D01*
X138000Y91693D01*
Y96000D01*
X137000Y95000D01*
X108000D01*
Y91013D01*
X107605Y91605D01*
X105951Y92710D01*
X104000Y93098D01*
X102049Y92710D01*
X100395Y91605D01*
X99290Y89951D01*
X99203Y89512D01*
X95770Y86078D01*
X59896D01*
X58951Y86710D01*
X57000Y87098D01*
X55049Y86710D01*
X54104Y86078D01*
X28689D01*
X25078Y89689D01*
Y101901D01*
X29313Y102318D01*
X33460Y103576D01*
X37282Y105619D01*
X40632Y108368D01*
X43381Y111718D01*
X45424Y115540D01*
X46682Y119687D01*
X47106Y124000D01*
X46682Y128313D01*
X45424Y132460D01*
X43381Y136282D01*
X40632Y139632D01*
X37282Y142381D01*
X33460Y144424D01*
X29313Y145682D01*
X25000Y146106D01*
X20687Y145682D01*
X16540Y144424D01*
X12718Y142381D01*
X9368Y139632D01*
X6619Y136282D01*
X6000Y135123D01*
Y146902D01*
X18250D01*
X20201Y147290D01*
X21855Y148395D01*
X22960Y150049D01*
X23348Y152000D01*
Y158000D01*
X22960Y159951D01*
X21855Y161605D01*
X20201Y162710D01*
X18250Y163098D01*
X6000D01*
Y212902D01*
X18250D01*
X20201Y213290D01*
X21855Y214395D01*
X22960Y216049D01*
X23348Y218000D01*
Y224000D01*
X22960Y225951D01*
X21855Y227605D01*
X20201Y228710D01*
X18250Y229098D01*
X6000D01*
Y524000D01*
X39000D01*
Y449000D01*
D02*
G37*
G36*
X689000Y381751D02*
X687809Y381312D01*
X687027Y382227D01*
X682534Y386064D01*
X677495Y389152D01*
X672036Y391413D01*
X666291Y392793D01*
X661670Y393156D01*
Y355600D01*
Y318044D01*
X662627Y318119D01*
X663101Y316883D01*
X661413Y315587D01*
X659483Y313072D01*
X658270Y310143D01*
X658023Y308270D01*
X670000D01*
X681977D01*
X681730Y310143D01*
X680517Y313072D01*
X678587Y315587D01*
X676072Y317517D01*
X673143Y318730D01*
X672885Y318764D01*
X672714Y320068D01*
X677495Y322048D01*
X682534Y325136D01*
X687027Y328973D01*
X687809Y329888D01*
X689000Y329449D01*
Y129278D01*
X687730Y128893D01*
X686994Y129994D01*
X685162Y131219D01*
X684270Y131396D01*
Y126000D01*
X683000D01*
Y124730D01*
X677604D01*
X677696Y124270D01*
X676930Y123000D01*
X636492D01*
X636000Y123098D01*
X635508Y123000D01*
X630117D01*
X629527Y124270D01*
X630393Y126360D01*
X630736Y128970D01*
Y132970D01*
X630393Y135581D01*
X629385Y138013D01*
X627782Y140102D01*
X626569Y141033D01*
Y150522D01*
X635746Y159700D01*
X636917Y159074D01*
X636902Y159000D01*
X637290Y157049D01*
X638395Y155395D01*
X640049Y154290D01*
X642000Y153902D01*
X643951Y154290D01*
X645605Y155395D01*
X646710Y157049D01*
X647098Y159000D01*
X646711Y160944D01*
X654884Y169116D01*
X655768Y170439D01*
X655815Y170677D01*
X655859Y170706D01*
X657163Y170945D01*
X657477Y170477D01*
X659135Y168818D01*
X658590Y167567D01*
X656838Y167219D01*
X655006Y165994D01*
X653781Y164162D01*
X653604Y163270D01*
X659000D01*
Y162000D01*
X660270D01*
Y156604D01*
X661162Y156781D01*
X662994Y158006D01*
X664096Y159655D01*
X664928Y159830D01*
X665510Y159824D01*
X665752Y159462D01*
X667406Y158357D01*
X669357Y157969D01*
X671308Y158357D01*
X672962Y159462D01*
X674067Y161116D01*
X674455Y163067D01*
X674067Y165018D01*
X672962Y166672D01*
X671308Y167777D01*
X670012Y168034D01*
X663569Y174478D01*
Y226000D01*
X663297Y227366D01*
X662523Y228523D01*
X662073Y228974D01*
X662442Y230189D01*
X662951Y230290D01*
X664605Y231395D01*
X665710Y233049D01*
X666098Y235000D01*
X665710Y236951D01*
X665078Y237896D01*
Y238000D01*
X664768Y239561D01*
X663884Y240884D01*
X663884Y240884D01*
X660578Y244189D01*
Y253412D01*
X661397Y253690D01*
X661848Y253759D01*
X664200Y251955D01*
X666998Y250796D01*
X670000Y250401D01*
X673002Y250796D01*
X675800Y251955D01*
X678202Y253798D01*
X680045Y256200D01*
X681204Y258998D01*
X681599Y262000D01*
X681204Y265002D01*
X680045Y267800D01*
X678202Y270202D01*
X675800Y272045D01*
X673002Y273204D01*
X670000Y273599D01*
X666998Y273204D01*
X664200Y272045D01*
X661798Y270202D01*
X659955Y267800D01*
X659313Y266251D01*
X657815Y265953D01*
X653932Y269836D01*
X653710Y270951D01*
X652605Y272605D01*
X650951Y273710D01*
X649000Y274098D01*
X647049Y273710D01*
X645395Y272605D01*
X644290Y270951D01*
X643902Y269000D01*
X644290Y267049D01*
X645395Y265395D01*
X647049Y264290D01*
X648164Y264068D01*
X652422Y259811D01*
Y242500D01*
X652422Y242500D01*
X652732Y240939D01*
X653616Y239616D01*
X655632Y237600D01*
X655554Y237289D01*
X654147Y236899D01*
X633569Y257478D01*
Y321506D01*
X633297Y322872D01*
X632523Y324029D01*
X623029Y333523D01*
X621872Y334297D01*
X620506Y334568D01*
X620069D01*
Y378244D01*
X632523Y390699D01*
X633297Y391856D01*
X633569Y393222D01*
Y486371D01*
X633605Y486395D01*
X634710Y488049D01*
X635098Y490000D01*
X634710Y491951D01*
X633605Y493605D01*
X631951Y494710D01*
X631850Y494730D01*
X631975Y496000D01*
X645000D01*
Y520000D01*
X625000D01*
Y496000D01*
X628025D01*
X628150Y494730D01*
X628049Y494710D01*
X626395Y493605D01*
X625290Y491951D01*
X624902Y490000D01*
X625290Y488049D01*
X626395Y486395D01*
X626431Y486371D01*
Y472996D01*
X625258Y472510D01*
X600884Y496884D01*
X599561Y497768D01*
X598000Y498078D01*
X598000Y498078D01*
X592311D01*
X591701Y499348D01*
X592935Y500957D01*
X593943Y503390D01*
X594286Y506000D01*
Y510000D01*
X593943Y512611D01*
X592935Y515043D01*
X591332Y517132D01*
X589243Y518735D01*
X586810Y519743D01*
X584200Y520086D01*
X581590Y519743D01*
X579157Y518735D01*
X577068Y517132D01*
X575465Y515043D01*
X574457Y512611D01*
X574114Y510000D01*
Y506000D01*
X574457Y503390D01*
X575465Y500957D01*
X576699Y499348D01*
X576089Y498078D01*
X566911D01*
X566301Y499348D01*
X567535Y500957D01*
X568543Y503390D01*
X568886Y506000D01*
Y510000D01*
X568543Y512611D01*
X567535Y515043D01*
X565932Y517132D01*
X563843Y518735D01*
X561410Y519743D01*
X558800Y520086D01*
X556189Y519743D01*
X553757Y518735D01*
X551668Y517132D01*
X550065Y515043D01*
X549057Y512611D01*
X548714Y510000D01*
Y506000D01*
X549057Y503390D01*
X550065Y500957D01*
X551299Y499348D01*
X550689Y498078D01*
X541511D01*
X540901Y499348D01*
X542135Y500957D01*
X543143Y503390D01*
X543486Y506000D01*
Y510000D01*
X543143Y512611D01*
X542135Y515043D01*
X540532Y517132D01*
X538443Y518735D01*
X536011Y519743D01*
X533400Y520086D01*
X530789Y519743D01*
X528357Y518735D01*
X526268Y517132D01*
X524665Y515043D01*
X523657Y512611D01*
X523314Y510000D01*
Y506000D01*
X523657Y503390D01*
X524665Y500957D01*
X525899Y499348D01*
X525289Y498078D01*
X516111D01*
X515501Y499348D01*
X516735Y500957D01*
X517743Y503390D01*
X518086Y506000D01*
Y510000D01*
X517743Y512611D01*
X516735Y515043D01*
X515132Y517132D01*
X513043Y518735D01*
X510611Y519743D01*
X508000Y520086D01*
X505390Y519743D01*
X502957Y518735D01*
X500868Y517132D01*
X499265Y515043D01*
X498257Y512611D01*
X497914Y510000D01*
Y506000D01*
X498257Y503390D01*
X499265Y500957D01*
X500499Y499348D01*
X499889Y498078D01*
X490711D01*
X490101Y499348D01*
X491335Y500957D01*
X492343Y503390D01*
X492686Y506000D01*
Y510000D01*
X492343Y512611D01*
X491335Y515043D01*
X489732Y517132D01*
X487643Y518735D01*
X485210Y519743D01*
X482600Y520086D01*
X479990Y519743D01*
X477557Y518735D01*
X475468Y517132D01*
X473865Y515043D01*
X472857Y512611D01*
X472514Y510000D01*
Y506000D01*
X472857Y503390D01*
X473865Y500957D01*
X475099Y499348D01*
X474489Y498078D01*
X465311D01*
X464701Y499348D01*
X465935Y500957D01*
X466943Y503390D01*
X467286Y506000D01*
Y510000D01*
X466943Y512611D01*
X465935Y515043D01*
X464332Y517132D01*
X462243Y518735D01*
X459810Y519743D01*
X457200Y520086D01*
X454590Y519743D01*
X452157Y518735D01*
X450068Y517132D01*
X448465Y515043D01*
X447457Y512611D01*
X447114Y510000D01*
Y506000D01*
X447457Y503390D01*
X448465Y500957D01*
X449699Y499348D01*
X449089Y498078D01*
X426560D01*
Y520000D01*
X406560D01*
Y498078D01*
X399271D01*
X398661Y499348D01*
X399895Y500957D01*
X400903Y503390D01*
X401246Y506000D01*
Y510000D01*
X400903Y512611D01*
X399895Y515043D01*
X398292Y517132D01*
X396203Y518735D01*
X393770Y519743D01*
X391160Y520086D01*
X388549Y519743D01*
X386117Y518735D01*
X384028Y517132D01*
X382425Y515043D01*
X381417Y512611D01*
X381074Y510000D01*
Y506000D01*
X381417Y503390D01*
X382425Y500957D01*
X383659Y499348D01*
X383049Y498078D01*
X373871D01*
X373261Y499348D01*
X374495Y500957D01*
X375503Y503390D01*
X375846Y506000D01*
Y510000D01*
X375503Y512611D01*
X374495Y515043D01*
X372892Y517132D01*
X370803Y518735D01*
X368371Y519743D01*
X365760Y520086D01*
X363149Y519743D01*
X360717Y518735D01*
X358628Y517132D01*
X357025Y515043D01*
X356017Y512611D01*
X355674Y510000D01*
Y506000D01*
X356017Y503390D01*
X357025Y500957D01*
X358259Y499348D01*
X357649Y498078D01*
X348471D01*
X347861Y499348D01*
X349095Y500957D01*
X350103Y503390D01*
X350446Y506000D01*
Y510000D01*
X350103Y512611D01*
X349095Y515043D01*
X347492Y517132D01*
X345403Y518735D01*
X342971Y519743D01*
X340360Y520086D01*
X337749Y519743D01*
X335317Y518735D01*
X333228Y517132D01*
X331625Y515043D01*
X330617Y512611D01*
X330274Y510000D01*
Y506000D01*
X330617Y503390D01*
X331625Y500957D01*
X332859Y499348D01*
X332249Y498078D01*
X323071D01*
X322461Y499348D01*
X323695Y500957D01*
X324703Y503390D01*
X325046Y506000D01*
Y510000D01*
X324703Y512611D01*
X323695Y515043D01*
X322092Y517132D01*
X320003Y518735D01*
X317570Y519743D01*
X314960Y520086D01*
X312349Y519743D01*
X309917Y518735D01*
X307828Y517132D01*
X306225Y515043D01*
X305217Y512611D01*
X304874Y510000D01*
Y506000D01*
X305217Y503390D01*
X306225Y500957D01*
X307459Y499348D01*
X306849Y498078D01*
X297671D01*
X297061Y499348D01*
X298295Y500957D01*
X299303Y503390D01*
X299646Y506000D01*
Y510000D01*
X299303Y512611D01*
X298295Y515043D01*
X296692Y517132D01*
X294603Y518735D01*
X292171Y519743D01*
X289560Y520086D01*
X286950Y519743D01*
X284517Y518735D01*
X282428Y517132D01*
X280825Y515043D01*
X279817Y512611D01*
X279474Y510000D01*
Y506000D01*
X279817Y503390D01*
X280825Y500957D01*
X282059Y499348D01*
X281449Y498078D01*
X272968D01*
X272341Y499348D01*
X273367Y500685D01*
X274429Y503248D01*
X274791Y506000D01*
Y506730D01*
X264160D01*
X253529D01*
Y506000D01*
X253891Y503248D01*
X254953Y500685D01*
X255979Y499348D01*
X255352Y498078D01*
X252449D01*
X248103Y502425D01*
X248503Y503390D01*
X248846Y506000D01*
Y510000D01*
X248503Y512611D01*
X247495Y515043D01*
X245892Y517132D01*
X243803Y518735D01*
X241371Y519743D01*
X238760Y520086D01*
X236150Y519743D01*
X233717Y518735D01*
X231839Y517294D01*
X230569Y517644D01*
Y518000D01*
X230297Y519366D01*
X229523Y520523D01*
X224723Y525323D01*
X224115Y525730D01*
X224500Y527000D01*
X689000D01*
Y381751D01*
D02*
G37*
G36*
X592960Y312204D02*
Y308270D01*
X605000D01*
Y305730D01*
X592960D01*
Y294960D01*
X604662D01*
X605047Y293690D01*
X604006Y292994D01*
X602781Y291162D01*
X602604Y290270D01*
X608000D01*
Y289000D01*
X609270D01*
Y283604D01*
X610162Y283781D01*
X611994Y285006D01*
X613219Y286838D01*
X613472Y288111D01*
X614744Y287997D01*
X615083Y269836D01*
X613821Y269395D01*
X613202Y270202D01*
X610800Y272045D01*
X608002Y273204D01*
X605000Y273599D01*
X601998Y273204D01*
X599200Y272045D01*
X596798Y270202D01*
X594955Y267800D01*
X593796Y265002D01*
X593401Y262000D01*
X593796Y258998D01*
X594955Y256200D01*
X596798Y253798D01*
X599200Y251955D01*
X601998Y250796D01*
X605000Y250401D01*
X608002Y250796D01*
X610800Y251955D01*
X613202Y253798D01*
X614091Y254957D01*
X615369Y254536D01*
X615432Y251155D01*
X615574Y250507D01*
X615703Y249856D01*
X615722Y249828D01*
X615729Y249795D01*
X616108Y249250D01*
X616477Y248699D01*
X617337Y247838D01*
X642931Y222244D01*
Y201381D01*
X641661Y200995D01*
X640994Y201994D01*
X639162Y203219D01*
X638270Y203396D01*
Y198000D01*
Y192604D01*
X639162Y192782D01*
X640994Y194006D01*
X641661Y195005D01*
X642931Y194619D01*
Y176978D01*
X622839Y156885D01*
X621569Y157411D01*
Y171000D01*
X621297Y172366D01*
X620523Y173523D01*
X612719Y181328D01*
Y189930D01*
X630650D01*
Y195420D01*
X630985Y195544D01*
X631920Y195631D01*
X633006Y194006D01*
X634838Y192782D01*
X635730Y192604D01*
Y198000D01*
Y203396D01*
X634838Y203219D01*
X633006Y201994D01*
X631920Y200369D01*
X630985Y200456D01*
X630650Y200580D01*
Y213930D01*
X612118D01*
X611673Y214595D01*
X589569Y236700D01*
Y310472D01*
X591787Y312690D01*
X592960Y312204D01*
D02*
G37*
G36*
X288922Y95078D02*
Y84101D01*
X288922Y84101D01*
X289232Y82540D01*
X290000Y81390D01*
Y81000D01*
X305201Y65799D01*
X305340Y65099D01*
X306446Y63446D01*
X308099Y62340D01*
X308799Y62201D01*
X332000Y39000D01*
X332391D01*
X333540Y38232D01*
X335101Y37922D01*
X350140D01*
X350393Y36652D01*
X350285Y36607D01*
X348083Y34917D01*
X346393Y32715D01*
X345331Y30152D01*
X344969Y27400D01*
Y26670D01*
X355600D01*
Y24130D01*
X344969D01*
Y23400D01*
X345331Y20649D01*
X346393Y18084D01*
X347119Y17139D01*
X346557Y16000D01*
X338727D01*
X338101Y17270D01*
X338935Y18357D01*
X339943Y20789D01*
X340286Y23400D01*
Y27400D01*
X339943Y30010D01*
X338935Y32443D01*
X337332Y34532D01*
X335243Y36135D01*
X332811Y37143D01*
X330200Y37486D01*
X327589Y37143D01*
X325157Y36135D01*
X323068Y34532D01*
X321465Y32443D01*
X320457Y30010D01*
X320114Y27400D01*
Y23400D01*
X320457Y20789D01*
X321465Y18357D01*
X322299Y17270D01*
X321673Y16000D01*
X317000D01*
Y37000D01*
X291000Y63000D01*
X174000D01*
X165305Y71695D01*
X166144Y72652D01*
X167832Y71357D01*
X170518Y70244D01*
X172130Y70032D01*
Y81000D01*
Y91968D01*
X170518Y91756D01*
X167832Y90643D01*
X165526Y88874D01*
X163757Y86568D01*
X163270Y85393D01*
X162000Y85646D01*
Y113573D01*
X163173Y114059D01*
X191509Y85723D01*
X190796Y84002D01*
X190401Y81000D01*
X190796Y77998D01*
X191955Y75200D01*
X193798Y72798D01*
X196200Y70955D01*
X198998Y69796D01*
X202000Y69401D01*
X205002Y69796D01*
X207800Y70955D01*
X210202Y72798D01*
X212045Y75200D01*
X213204Y77998D01*
X213599Y81000D01*
X213204Y84002D01*
X212045Y86800D01*
X210202Y89202D01*
X207800Y91045D01*
X205002Y92204D01*
X202000Y92599D01*
X198998Y92204D01*
X197277Y91491D01*
X172941Y115827D01*
X173427Y117000D01*
X232922D01*
Y102689D01*
X227164Y96932D01*
X226049Y96710D01*
X224395Y95605D01*
X223290Y93951D01*
X222902Y92000D01*
X223290Y90049D01*
X224395Y88395D01*
X226049Y87290D01*
X228000Y86902D01*
X229951Y87290D01*
X231605Y88395D01*
X232710Y90049D01*
X232932Y91164D01*
X239884Y98116D01*
X239884Y98116D01*
X240768Y99439D01*
X241078Y101000D01*
X241078Y101000D01*
Y106282D01*
X242348Y106777D01*
X243838Y105781D01*
X244730Y105604D01*
Y111000D01*
X247270D01*
Y105604D01*
X248162Y105781D01*
X249868Y106922D01*
X256566D01*
X256782Y105838D01*
X258006Y104006D01*
X259838Y102781D01*
X260730Y102604D01*
Y108000D01*
X262000D01*
Y109270D01*
X267396D01*
X267219Y110162D01*
X265994Y111994D01*
X264162Y113219D01*
X262149Y113619D01*
X261884Y113884D01*
X260561Y114768D01*
X259000Y115078D01*
X259000Y115078D01*
X249876D01*
X249131Y115791D01*
X249508Y117000D01*
X267000D01*
X288922Y95078D01*
D02*
G37*
G36*
X63000Y216000D02*
Y180000D01*
X91000D01*
X94000Y177000D01*
Y102000D01*
X77000D01*
X69000Y110000D01*
Y169000D01*
X43000D01*
X39000Y173000D01*
Y222000D01*
X57000D01*
X63000Y216000D01*
D02*
G37*
G36*
X689000Y100517D02*
X687027Y102827D01*
X682534Y106664D01*
X677495Y109752D01*
X672036Y112013D01*
X666291Y113392D01*
X661670Y113756D01*
Y76200D01*
Y38644D01*
X666291Y39007D01*
X672036Y40387D01*
X677495Y42648D01*
X682534Y45736D01*
X687027Y49573D01*
X689000Y51883D01*
Y6000D01*
X687000Y8000D01*
X420000D01*
Y37000D01*
X427434D01*
X426484Y36607D01*
X424283Y34917D01*
X422593Y32715D01*
X421531Y30152D01*
X421169Y27400D01*
Y26670D01*
X431800D01*
Y25400D01*
D01*
Y26670D01*
X442431D01*
Y27400D01*
X442069Y30152D01*
X441007Y32715D01*
X439317Y34917D01*
X437116Y36607D01*
X436166Y37000D01*
X454245D01*
X452157Y36135D01*
X450068Y34532D01*
X448465Y32443D01*
X447457Y30010D01*
X447114Y27400D01*
Y23400D01*
X447457Y20789D01*
X448465Y18357D01*
X450068Y16268D01*
X452157Y14665D01*
X454590Y13657D01*
X457200Y13314D01*
X459810Y13657D01*
X462243Y14665D01*
X464332Y16268D01*
X465935Y18357D01*
X466943Y20789D01*
X467286Y23400D01*
Y27400D01*
X466943Y30010D01*
X465935Y32443D01*
X464332Y34532D01*
X462243Y36135D01*
X460155Y37000D01*
X461507D01*
X462000Y36902D01*
X462492Y37000D01*
X498000D01*
Y13400D01*
X518000D01*
Y37000D01*
X530445D01*
X528357Y36135D01*
X526268Y34532D01*
X524665Y32443D01*
X523657Y30010D01*
X523314Y27400D01*
Y23400D01*
X523657Y20789D01*
X524665Y18357D01*
X526268Y16268D01*
X528357Y14665D01*
X530789Y13657D01*
X533400Y13314D01*
X536011Y13657D01*
X538443Y14665D01*
X540532Y16268D01*
X542135Y18357D01*
X543143Y20789D01*
X543486Y23400D01*
Y27400D01*
X543143Y30010D01*
X542135Y32443D01*
X540532Y34532D01*
X538443Y36135D01*
X536355Y37000D01*
X555845D01*
X553757Y36135D01*
X551668Y34532D01*
X550065Y32443D01*
X549057Y30010D01*
X548714Y27400D01*
Y23400D01*
X549057Y20789D01*
X550065Y18357D01*
X551668Y16268D01*
X553757Y14665D01*
X556189Y13657D01*
X558800Y13314D01*
X561410Y13657D01*
X563843Y14665D01*
X565932Y16268D01*
X567535Y18357D01*
X568543Y20789D01*
X568886Y23400D01*
Y27400D01*
X568543Y30010D01*
X567535Y32443D01*
X565932Y34532D01*
X563843Y36135D01*
X561410Y37143D01*
X558800Y37486D01*
X557287Y37287D01*
X633000Y113000D01*
X635508D01*
X636000Y112902D01*
X636493Y113000D01*
X648000D01*
X651000Y116000D01*
X689000D01*
Y100517D01*
D02*
G37*
G36*
X136000Y91476D02*
Y72000D01*
X142481D01*
X142705Y71828D01*
X145259Y70770D01*
X148000Y70409D01*
X150741Y70770D01*
X152501Y71499D01*
X175000Y49000D01*
X252000D01*
X266000Y35000D01*
X266000Y13000D01*
X368000D01*
X370000Y15000D01*
Y19095D01*
X371270Y19348D01*
X371793Y18084D01*
X373483Y15883D01*
X375685Y14193D01*
X378248Y13131D01*
X379730Y12936D01*
Y25400D01*
X382270D01*
Y12936D01*
X383751Y13131D01*
X386315Y14193D01*
X388517Y15883D01*
X390207Y18084D01*
X390730Y19348D01*
X392000Y19095D01*
Y7000D01*
X255595Y6646D01*
X255488Y6959D01*
X255292Y7915D01*
X257045Y10200D01*
X258204Y12998D01*
X258599Y16000D01*
X258204Y19002D01*
X257045Y21800D01*
X255202Y24202D01*
X252800Y26045D01*
X250002Y27204D01*
X247000Y27599D01*
X243998Y27204D01*
X241200Y26045D01*
X238798Y24202D01*
X236955Y21800D01*
X235796Y19002D01*
X235401Y16000D01*
X235796Y12998D01*
X236955Y10200D01*
X238741Y7872D01*
X238658Y7383D01*
X238393Y6601D01*
X214399Y6539D01*
X213500Y7436D01*
Y27500D01*
X190500D01*
Y6477D01*
X172771Y6431D01*
X172149Y7538D01*
X172769Y8550D01*
X174998Y13931D01*
X176357Y19594D01*
X176814Y25400D01*
X176357Y31206D01*
X174998Y36869D01*
X172769Y42250D01*
X169726Y47215D01*
X165944Y51644D01*
X161515Y55426D01*
X156550Y58469D01*
X151169Y60698D01*
X145506Y62057D01*
X139700Y62514D01*
X133894Y62057D01*
X128231Y60698D01*
X122850Y58469D01*
X117885Y55426D01*
X113456Y51644D01*
X109674Y47215D01*
X106631Y42250D01*
X104402Y36869D01*
X103042Y31206D01*
X102586Y25400D01*
X103042Y19594D01*
X104402Y13931D01*
X106631Y8550D01*
X107355Y7368D01*
X106736Y6259D01*
X42590Y6092D01*
X42045Y7240D01*
X43832Y9417D01*
X45925Y13333D01*
X47214Y17581D01*
X47524Y20730D01*
X25000D01*
Y23270D01*
X47524D01*
X47214Y26419D01*
X45925Y30667D01*
X43832Y34583D01*
X41015Y38015D01*
X37583Y40832D01*
X34032Y42730D01*
X34350Y44000D01*
X101000D01*
X111000Y54000D01*
Y68922D01*
X111560Y69960D01*
X112270Y69960D01*
X121330D01*
Y81000D01*
X122600D01*
Y82270D01*
X133640D01*
Y91730D01*
X133640Y92040D01*
X133959Y92449D01*
X134936Y92498D01*
X136000Y91476D01*
D02*
G37*
%LPC*%
G36*
X58396Y521730D02*
X54270D01*
Y517604D01*
X55162Y517781D01*
X56994Y519006D01*
X58219Y520838D01*
X58396Y521730D01*
D02*
G37*
G36*
X51730D02*
X47604D01*
X47781Y520838D01*
X49006Y519006D01*
X50838Y517781D01*
X51730Y517604D01*
Y521730D01*
D02*
G37*
G36*
X77470Y508808D02*
Y499110D01*
X87168D01*
X86956Y500722D01*
X85843Y503408D01*
X84074Y505714D01*
X81768Y507483D01*
X79082Y508596D01*
X77470Y508808D01*
D02*
G37*
G36*
X74930D02*
X73318Y508596D01*
X70632Y507483D01*
X68326Y505714D01*
X66557Y503408D01*
X65444Y500722D01*
X65232Y499110D01*
X74930D01*
Y508808D01*
D02*
G37*
G36*
X87168Y496570D02*
X77470D01*
Y486872D01*
X79082Y487084D01*
X81768Y488197D01*
X84074Y489966D01*
X85843Y492272D01*
X86956Y494958D01*
X87168Y496570D01*
D02*
G37*
G36*
X74930D02*
X65232D01*
X65444Y494958D01*
X66557Y492272D01*
X68326Y489966D01*
X70632Y488197D01*
X73318Y487084D01*
X74930Y486872D01*
Y496570D01*
D02*
G37*
G36*
X75270Y445396D02*
Y441270D01*
X79396D01*
X79219Y442162D01*
X77994Y443994D01*
X76162Y445219D01*
X75270Y445396D01*
D02*
G37*
G36*
X72730D02*
X71838Y445219D01*
X70006Y443994D01*
X68781Y442162D01*
X68604Y441270D01*
X72730D01*
Y445396D01*
D02*
G37*
G36*
X273396Y441730D02*
X269270D01*
Y437604D01*
X270162Y437781D01*
X271994Y439006D01*
X273219Y440838D01*
X273396Y441730D01*
D02*
G37*
G36*
X266730D02*
X262604D01*
X262781Y440838D01*
X264006Y439006D01*
X265838Y437781D01*
X266730Y437604D01*
Y441730D01*
D02*
G37*
G36*
X79396Y438730D02*
X75270D01*
Y434604D01*
X76162Y434781D01*
X77994Y436006D01*
X79219Y437838D01*
X79396Y438730D01*
D02*
G37*
G36*
X72730D02*
X68604D01*
X68781Y437838D01*
X70006Y436006D01*
X71838Y434781D01*
X72730Y434604D01*
Y438730D01*
D02*
G37*
G36*
X602520Y420646D02*
Y416520D01*
X606646D01*
X606469Y417412D01*
X605244Y419244D01*
X603412Y420469D01*
X602520Y420646D01*
D02*
G37*
G36*
X599980D02*
X599088Y420469D01*
X597256Y419244D01*
X596031Y417412D01*
X595854Y416520D01*
X599980D01*
Y420646D01*
D02*
G37*
G36*
X209230Y417396D02*
X208338Y417219D01*
X206506Y415994D01*
X205282Y414162D01*
X205104Y413270D01*
X209230D01*
Y417396D01*
D02*
G37*
G36*
X77470Y422448D02*
Y412750D01*
X87168D01*
X86956Y414362D01*
X85843Y417048D01*
X84074Y419354D01*
X81768Y421123D01*
X79082Y422236D01*
X77470Y422448D01*
D02*
G37*
G36*
X606646Y413980D02*
X602520D01*
Y409854D01*
X603412Y410032D01*
X605244Y411256D01*
X606469Y413088D01*
X606646Y413980D01*
D02*
G37*
G36*
X599980D02*
X595854D01*
X596031Y413088D01*
X597256Y411256D01*
X599088Y410032D01*
X599980Y409854D01*
Y413980D01*
D02*
G37*
G36*
X209230Y410730D02*
X205104D01*
X205282Y409838D01*
X206506Y408006D01*
X208338Y406781D01*
X209230Y406604D01*
Y410730D01*
D02*
G37*
G36*
X208730Y398396D02*
X207838Y398219D01*
X206006Y396994D01*
X204781Y395162D01*
X204604Y394270D01*
X208730D01*
Y398396D01*
D02*
G37*
G36*
Y391730D02*
X204604D01*
X204781Y390838D01*
X206006Y389006D01*
X207838Y387781D01*
X208730Y387604D01*
Y391730D01*
D02*
G37*
G36*
X218270Y349396D02*
Y345270D01*
X222396D01*
X222219Y346162D01*
X220994Y347994D01*
X219162Y349219D01*
X218270Y349396D01*
D02*
G37*
G36*
X215730D02*
X214838Y349219D01*
X213006Y347994D01*
X211781Y346162D01*
X211604Y345270D01*
X215730D01*
Y349396D01*
D02*
G37*
G36*
X222396Y342730D02*
X218270D01*
Y338604D01*
X219162Y338781D01*
X220994Y340006D01*
X222219Y341838D01*
X222396Y342730D01*
D02*
G37*
G36*
X215730D02*
X211604D01*
X211781Y341838D01*
X213006Y340006D01*
X214838Y338781D01*
X215730Y338604D01*
Y342730D01*
D02*
G37*
G36*
X174000Y281098D02*
X172049Y280710D01*
X171103Y280078D01*
X128000D01*
X126439Y279768D01*
X125116Y278883D01*
X125116Y278883D01*
X112164Y265932D01*
X111049Y265710D01*
X109395Y264605D01*
X108290Y262951D01*
X107902Y261000D01*
X108290Y259049D01*
X109395Y257395D01*
X111049Y256290D01*
X113000Y255902D01*
X114951Y256290D01*
X116605Y257395D01*
X117710Y259049D01*
X117932Y260164D01*
X129689Y271921D01*
X171105D01*
X172049Y271290D01*
X174000Y270902D01*
X175951Y271290D01*
X177605Y272395D01*
X178710Y274049D01*
X179098Y276000D01*
X178710Y277951D01*
X177605Y279605D01*
X175951Y280710D01*
X174000Y281098D01*
D02*
G37*
G36*
X93000Y381098D02*
X91049Y380710D01*
X89395Y379605D01*
X88290Y377951D01*
X87902Y376000D01*
X88290Y374049D01*
X89395Y372395D01*
X89431Y372371D01*
Y323629D01*
X89395Y323605D01*
X88290Y321951D01*
X87902Y320000D01*
X88290Y318049D01*
X89395Y316395D01*
X91049Y315290D01*
X93000Y314902D01*
X94951Y315290D01*
X96079Y316044D01*
X97349Y315398D01*
Y277532D01*
X97231Y277453D01*
X96126Y275799D01*
X95738Y273848D01*
X96126Y271897D01*
X97231Y270243D01*
X98885Y269138D01*
X100836Y268750D01*
X102787Y269138D01*
X104441Y270243D01*
X105546Y271897D01*
X105934Y273848D01*
X105546Y275799D01*
X104487Y277384D01*
Y365316D01*
X104605Y365395D01*
X105710Y367049D01*
X106098Y369000D01*
X105710Y370951D01*
X104605Y372605D01*
X102951Y373710D01*
X101000Y374098D01*
X99049Y373710D01*
X98806Y373548D01*
X98669Y373610D01*
X97777Y374388D01*
X98098Y376000D01*
X97710Y377951D01*
X96605Y379605D01*
X94951Y380710D01*
X93000Y381098D01*
D02*
G37*
G36*
X66270Y270795D02*
Y266669D01*
X70396D01*
X70219Y267561D01*
X68994Y269393D01*
X67162Y270618D01*
X66270Y270795D01*
D02*
G37*
G36*
X63730D02*
X62838Y270618D01*
X61006Y269393D01*
X59781Y267561D01*
X59604Y266669D01*
X63730D01*
Y270795D01*
D02*
G37*
G36*
X70396Y264129D02*
X66270D01*
Y260003D01*
X67162Y260180D01*
X68994Y261405D01*
X70219Y263237D01*
X70396Y264129D01*
D02*
G37*
G36*
X63730D02*
X59604D01*
X59781Y263237D01*
X61006Y261405D01*
X62838Y260180D01*
X63730Y260003D01*
Y264129D01*
D02*
G37*
G36*
X394270Y256396D02*
Y252270D01*
X398396D01*
X398219Y253162D01*
X396994Y254994D01*
X395162Y256219D01*
X394270Y256396D01*
D02*
G37*
G36*
X391730D02*
X390838Y256219D01*
X389006Y254994D01*
X387781Y253162D01*
X387604Y252270D01*
X391730D01*
Y256396D01*
D02*
G37*
G36*
X481770Y255396D02*
Y251270D01*
X485896D01*
X485719Y252162D01*
X484494Y253994D01*
X482662Y255219D01*
X481770Y255396D01*
D02*
G37*
G36*
X479230D02*
X478338Y255219D01*
X476506Y253994D01*
X475281Y252162D01*
X475104Y251270D01*
X479230D01*
Y255396D01*
D02*
G37*
G36*
X398396Y249730D02*
X394270D01*
Y245604D01*
X395162Y245781D01*
X396994Y247006D01*
X398219Y248838D01*
X398396Y249730D01*
D02*
G37*
G36*
X391730D02*
X387604D01*
X387781Y248838D01*
X389006Y247006D01*
X390838Y245781D01*
X391730Y245604D01*
Y249730D01*
D02*
G37*
G36*
X485896Y248730D02*
X481770D01*
Y244604D01*
X482662Y244781D01*
X484494Y246006D01*
X485719Y247838D01*
X485896Y248730D01*
D02*
G37*
G36*
X479230D02*
X475104D01*
X475281Y247838D01*
X476506Y246006D01*
X478338Y244781D01*
X479230Y244604D01*
Y248730D01*
D02*
G37*
G36*
X37270Y240396D02*
Y236270D01*
X41396D01*
X41219Y237162D01*
X39994Y238994D01*
X38162Y240219D01*
X37270Y240396D01*
D02*
G37*
G36*
X34730D02*
X33838Y240219D01*
X32006Y238994D01*
X30781Y237162D01*
X30604Y236270D01*
X34730D01*
Y240396D01*
D02*
G37*
G36*
X139270Y230396D02*
Y226270D01*
X143396D01*
X143219Y227162D01*
X141994Y228994D01*
X140162Y230219D01*
X139270Y230396D01*
D02*
G37*
G36*
X136730D02*
X135838Y230219D01*
X134006Y228994D01*
X132781Y227162D01*
X132604Y226270D01*
X136730D01*
Y230396D01*
D02*
G37*
G36*
X143396Y223730D02*
X139270D01*
Y219604D01*
X140162Y219781D01*
X141994Y221006D01*
X143219Y222838D01*
X143396Y223730D01*
D02*
G37*
G36*
X136730D02*
X132604D01*
X132781Y222838D01*
X134006Y221006D01*
X135838Y219781D01*
X136730Y219604D01*
Y223730D01*
D02*
G37*
G36*
X75270Y219396D02*
Y215270D01*
X79396D01*
X79219Y216162D01*
X77994Y217994D01*
X76162Y219219D01*
X75270Y219396D01*
D02*
G37*
G36*
X72730D02*
X71838Y219219D01*
X70006Y217994D01*
X68781Y216162D01*
X68604Y215270D01*
X72730D01*
Y219396D01*
D02*
G37*
G36*
X330439Y295659D02*
X328488Y295271D01*
X326834Y294165D01*
X325729Y292512D01*
X325341Y290561D01*
X325378Y290376D01*
X324703Y289366D01*
X324431Y288000D01*
Y211149D01*
X323229Y210741D01*
X322982Y211062D01*
X320893Y212665D01*
X318461Y213673D01*
X315850Y214016D01*
X313239Y213673D01*
X310807Y212665D01*
X308839Y211155D01*
X307828Y211364D01*
X307569Y211452D01*
Y228371D01*
X307605Y228395D01*
X308710Y230049D01*
X309098Y232000D01*
X308710Y233951D01*
X307605Y235605D01*
X305951Y236710D01*
X304000Y237098D01*
X302049Y236710D01*
X300395Y235605D01*
X299290Y233951D01*
X298902Y232000D01*
X299290Y230049D01*
X300395Y228395D01*
X300431Y228371D01*
Y209283D01*
X299261Y208992D01*
X299161Y209004D01*
X297582Y211062D01*
X295493Y212665D01*
X293060Y213673D01*
X290450Y214016D01*
X287840Y213673D01*
X285407Y212665D01*
X283318Y211062D01*
X281715Y208973D01*
X280707Y206541D01*
X280392Y204143D01*
X255800D01*
X254951Y204710D01*
X253000Y205098D01*
X251049Y204710D01*
X249395Y203605D01*
X248290Y201951D01*
X247902Y200000D01*
X248290Y198049D01*
X249395Y196395D01*
X251049Y195290D01*
X253000Y194902D01*
X254951Y195290D01*
X256605Y196395D01*
X257013Y197005D01*
X280837D01*
X281715Y194887D01*
X283318Y192798D01*
X285407Y191195D01*
X287840Y190187D01*
X290450Y189844D01*
X293060Y190187D01*
X295493Y191195D01*
X297582Y192798D01*
X299161Y194856D01*
X299261Y194868D01*
X300431Y194577D01*
Y175629D01*
X300395Y175605D01*
X299290Y173951D01*
X298902Y172000D01*
X299290Y170049D01*
X300395Y168395D01*
X302049Y167290D01*
X304000Y166902D01*
X305951Y167290D01*
X307605Y168395D01*
X308710Y170049D01*
X309098Y172000D01*
X308710Y173951D01*
X307605Y175605D01*
X307569Y175629D01*
Y192408D01*
X307828Y192496D01*
X308839Y192705D01*
X310807Y191195D01*
X313239Y190187D01*
X315850Y189844D01*
X318461Y190187D01*
X320893Y191195D01*
X322982Y192798D01*
X323229Y193120D01*
X324431Y192711D01*
Y175629D01*
X324395Y175605D01*
X323290Y173951D01*
X322902Y172000D01*
X323290Y170049D01*
X324395Y168395D01*
X326049Y167290D01*
X328000Y166902D01*
X329951Y167290D01*
X331605Y168395D01*
X332710Y170049D01*
X333098Y172000D01*
X332710Y173951D01*
X331605Y175605D01*
X331569Y175629D01*
Y194034D01*
X332839Y194465D01*
X334118Y192798D01*
X336207Y191195D01*
X338639Y190187D01*
X341250Y189844D01*
X343861Y190187D01*
X346293Y191195D01*
X348382Y192798D01*
X349985Y194887D01*
X350993Y197320D01*
X351336Y199930D01*
Y203930D01*
X350993Y206541D01*
X349985Y208973D01*
X348382Y211062D01*
X346293Y212665D01*
X343861Y213673D01*
X341250Y214016D01*
X338639Y213673D01*
X336207Y212665D01*
X334118Y211062D01*
X332839Y209395D01*
X331569Y209826D01*
Y285687D01*
X332390Y285851D01*
X334044Y286956D01*
X335149Y288610D01*
X335537Y290561D01*
X335149Y292512D01*
X334044Y294165D01*
X332390Y295271D01*
X330439Y295659D01*
D02*
G37*
G36*
X79396Y212730D02*
X75270D01*
Y208604D01*
X76162Y208781D01*
X77994Y210006D01*
X79219Y211838D01*
X79396Y212730D01*
D02*
G37*
G36*
X72730D02*
X68604D01*
X68781Y211838D01*
X70006Y210006D01*
X71838Y208781D01*
X72730Y208604D01*
Y212730D01*
D02*
G37*
G36*
X222270Y212396D02*
Y208270D01*
X226396D01*
X226218Y209162D01*
X224994Y210994D01*
X223162Y212218D01*
X222270Y212396D01*
D02*
G37*
G36*
X219730D02*
X218838Y212218D01*
X217006Y210994D01*
X215781Y209162D01*
X215604Y208270D01*
X219730D01*
Y212396D01*
D02*
G37*
G36*
X173230Y212395D02*
X172339Y212218D01*
X170506Y210994D01*
X169282Y209161D01*
X169104Y208270D01*
X173230D01*
Y212395D01*
D02*
G37*
G36*
X444120Y214394D02*
Y203200D01*
X453481D01*
Y203930D01*
X453119Y206681D01*
X452057Y209245D01*
X450367Y211447D01*
X448165Y213137D01*
X445602Y214199D01*
X444120Y214394D01*
D02*
G37*
G36*
X441580Y214394D02*
X440098Y214199D01*
X437534Y213137D01*
X435333Y211447D01*
X433643Y209245D01*
X432581Y206681D01*
X432219Y203930D01*
Y203200D01*
X441580D01*
Y214394D01*
D02*
G37*
G36*
X226396Y205730D02*
X222270D01*
Y201604D01*
X223162Y201781D01*
X224994Y203006D01*
X226218Y204838D01*
X226396Y205730D01*
D02*
G37*
G36*
X219730D02*
X215604D01*
X215781Y204838D01*
X217006Y203006D01*
X218838Y201781D01*
X219730Y201604D01*
Y205730D01*
D02*
G37*
G36*
X176270Y194396D02*
Y190270D01*
X180396D01*
X180219Y191162D01*
X178994Y192994D01*
X177162Y194219D01*
X176270Y194396D01*
D02*
G37*
G36*
X569850Y214016D02*
X567239Y213673D01*
X564807Y212665D01*
X562718Y211062D01*
X561115Y208973D01*
X560107Y206541D01*
X559764Y203930D01*
Y199930D01*
X560107Y197320D01*
X561115Y194887D01*
X562718Y192798D01*
X564807Y191195D01*
X567239Y190187D01*
X569850Y189844D01*
X572461Y190187D01*
X574893Y191195D01*
X576982Y192798D01*
X578585Y194887D01*
X579593Y197320D01*
X579936Y199930D01*
Y203930D01*
X579593Y206541D01*
X578585Y208973D01*
X576982Y211062D01*
X574893Y212665D01*
X572461Y213673D01*
X569850Y214016D01*
D02*
G37*
G36*
X544450D02*
X541839Y213673D01*
X539407Y212665D01*
X537318Y211062D01*
X535715Y208973D01*
X534707Y206541D01*
X534364Y203930D01*
Y199930D01*
X534707Y197320D01*
X535715Y194887D01*
X537318Y192798D01*
X539407Y191195D01*
X541839Y190187D01*
X544450Y189844D01*
X547061Y190187D01*
X549493Y191195D01*
X551582Y192798D01*
X553185Y194887D01*
X554193Y197320D01*
X554536Y199930D01*
Y203930D01*
X554193Y206541D01*
X553185Y208973D01*
X551582Y211062D01*
X549493Y212665D01*
X547061Y213673D01*
X544450Y214016D01*
D02*
G37*
G36*
X519050D02*
X516440Y213673D01*
X514007Y212665D01*
X511918Y211062D01*
X510315Y208973D01*
X509307Y206541D01*
X508964Y203930D01*
Y199930D01*
X509307Y197320D01*
X510315Y194887D01*
X511918Y192798D01*
X514007Y191195D01*
X516440Y190187D01*
X519050Y189844D01*
X521660Y190187D01*
X524093Y191195D01*
X526182Y192798D01*
X527785Y194887D01*
X528793Y197320D01*
X529136Y199930D01*
Y203930D01*
X528793Y206541D01*
X527785Y208973D01*
X526182Y211062D01*
X524093Y212665D01*
X521660Y213673D01*
X519050Y214016D01*
D02*
G37*
G36*
X493650D02*
X491040Y213673D01*
X488607Y212665D01*
X486518Y211062D01*
X484915Y208973D01*
X483907Y206541D01*
X483564Y203930D01*
Y199930D01*
X483907Y197320D01*
X484915Y194887D01*
X486518Y192798D01*
X488607Y191195D01*
X491040Y190187D01*
X493650Y189844D01*
X496260Y190187D01*
X498693Y191195D01*
X500782Y192798D01*
X502385Y194887D01*
X503393Y197320D01*
X503736Y199930D01*
Y203930D01*
X503393Y206541D01*
X502385Y208973D01*
X500782Y211062D01*
X498693Y212665D01*
X496260Y213673D01*
X493650Y214016D01*
D02*
G37*
G36*
X468250D02*
X465639Y213673D01*
X463207Y212665D01*
X461118Y211062D01*
X459515Y208973D01*
X458507Y206541D01*
X458164Y203930D01*
Y199930D01*
X458507Y197320D01*
X459515Y194887D01*
X461118Y192798D01*
X463207Y191195D01*
X465639Y190187D01*
X468250Y189844D01*
X470860Y190187D01*
X473293Y191195D01*
X475382Y192798D01*
X476985Y194887D01*
X477993Y197320D01*
X478336Y199930D01*
Y203930D01*
X477993Y206541D01*
X476985Y208973D01*
X475382Y211062D01*
X473293Y212665D01*
X470860Y213673D01*
X468250Y214016D01*
D02*
G37*
G36*
X417450D02*
X414840Y213673D01*
X412407Y212665D01*
X410318Y211062D01*
X408715Y208973D01*
X407707Y206541D01*
X407364Y203930D01*
Y199930D01*
X407707Y197320D01*
X408715Y194887D01*
X410318Y192798D01*
X412407Y191195D01*
X414840Y190187D01*
X417450Y189844D01*
X420061Y190187D01*
X422493Y191195D01*
X424582Y192798D01*
X426185Y194887D01*
X427193Y197320D01*
X427536Y199930D01*
Y203930D01*
X427193Y206541D01*
X426185Y208973D01*
X424582Y211062D01*
X422493Y212665D01*
X420061Y213673D01*
X417450Y214016D01*
D02*
G37*
G36*
X392050D02*
X389440Y213673D01*
X387007Y212665D01*
X384918Y211062D01*
X383315Y208973D01*
X382307Y206541D01*
X381964Y203930D01*
Y199930D01*
X382307Y197320D01*
X383315Y194887D01*
X384918Y192798D01*
X387007Y191195D01*
X389440Y190187D01*
X392050Y189844D01*
X394660Y190187D01*
X397093Y191195D01*
X399182Y192798D01*
X400785Y194887D01*
X401793Y197320D01*
X402136Y199930D01*
Y203930D01*
X401793Y206541D01*
X400785Y208973D01*
X399182Y211062D01*
X397093Y212665D01*
X394660Y213673D01*
X392050Y214016D01*
D02*
G37*
G36*
X366650D02*
X364039Y213673D01*
X361607Y212665D01*
X359518Y211062D01*
X357915Y208973D01*
X356907Y206541D01*
X356564Y203930D01*
Y199930D01*
X356907Y197320D01*
X357915Y194887D01*
X359518Y192798D01*
X361607Y191195D01*
X364039Y190187D01*
X366650Y189844D01*
X369260Y190187D01*
X371693Y191195D01*
X373782Y192798D01*
X375385Y194887D01*
X376393Y197320D01*
X376736Y199930D01*
Y203930D01*
X376393Y206541D01*
X375385Y208973D01*
X373782Y211062D01*
X371693Y212665D01*
X369260Y213673D01*
X366650Y214016D01*
D02*
G37*
G36*
X453481Y200660D02*
X444120D01*
Y189466D01*
X445602Y189661D01*
X448165Y190723D01*
X450367Y192413D01*
X452057Y194615D01*
X453119Y197178D01*
X453481Y199930D01*
Y200660D01*
D02*
G37*
G36*
X441580D02*
X432219D01*
Y199930D01*
X432581Y197178D01*
X433643Y194615D01*
X435333Y192413D01*
X437534Y190723D01*
X440098Y189661D01*
X441580Y189466D01*
Y200660D01*
D02*
G37*
G36*
X180396Y187730D02*
X176270D01*
Y183604D01*
X177162Y183781D01*
X178994Y185006D01*
X180219Y186838D01*
X180396Y187730D01*
D02*
G37*
G36*
X504000Y188039D02*
X463410D01*
X462630Y187884D01*
X461968Y187442D01*
X461526Y186780D01*
X461406Y186490D01*
X461251Y185710D01*
Y182035D01*
X461310Y181736D01*
X461342Y181433D01*
X461387Y181348D01*
X461406Y181255D01*
X461576Y181001D01*
X461721Y180733D01*
X461795Y180673D01*
X461848Y180593D01*
X462102Y180424D01*
X462338Y180231D01*
X462545Y180122D01*
X463290Y178951D01*
X462902Y177000D01*
X463290Y175049D01*
X464395Y173395D01*
X466049Y172290D01*
X466933Y172114D01*
X467542Y171098D01*
X467513Y170800D01*
X467454Y170506D01*
X467474Y170407D01*
X467464Y170307D01*
X467551Y170020D01*
X467609Y169726D01*
X467666Y169642D01*
X467695Y169545D01*
X467885Y169314D01*
X468051Y169065D01*
X473980Y163136D01*
X474116Y162452D01*
X474558Y161790D01*
X474883Y161466D01*
Y142602D01*
X473743Y142040D01*
X473565Y142177D01*
X471002Y143239D01*
X469520Y143434D01*
Y130970D01*
Y118506D01*
X471002Y118701D01*
X473565Y119763D01*
X474054Y120138D01*
X475193Y119576D01*
Y113768D01*
X475193Y113768D01*
X475348Y112987D01*
X475790Y112326D01*
X475790Y112326D01*
X484251Y103865D01*
Y101035D01*
X484310Y100736D01*
X484342Y100433D01*
X484387Y100349D01*
X484406Y100254D01*
X484576Y100001D01*
X484720Y99733D01*
X484795Y99673D01*
X484848Y99593D01*
X485102Y99424D01*
X485338Y99232D01*
X485545Y99122D01*
X486290Y97951D01*
X485902Y96000D01*
X486290Y94049D01*
X487395Y92395D01*
X489049Y91290D01*
X491000Y90902D01*
X492951Y91290D01*
X494605Y92395D01*
X494625Y92400D01*
X495810Y92558D01*
X496059Y92392D01*
X496290Y92202D01*
X496387Y92172D01*
X496471Y92116D01*
X496765Y92058D01*
X497052Y91971D01*
X497152Y91980D01*
X497252Y91961D01*
X507000D01*
X507780Y92116D01*
X508442Y92558D01*
X508884Y93220D01*
X509039Y94000D01*
Y123688D01*
X510309Y123941D01*
X510315Y123927D01*
X511918Y121838D01*
X514007Y120235D01*
X516440Y119227D01*
X519050Y118884D01*
X521660Y119227D01*
X524093Y120235D01*
X526182Y121838D01*
X527785Y123927D01*
X528793Y126360D01*
X529136Y128970D01*
Y132970D01*
X528793Y135581D01*
X527785Y138013D01*
X526182Y140102D01*
X524093Y141705D01*
X521660Y142713D01*
X519050Y143056D01*
X516440Y142713D01*
X514007Y141705D01*
X511918Y140102D01*
X510315Y138013D01*
X510309Y137999D01*
X509039Y138252D01*
Y183000D01*
X508884Y183780D01*
X508442Y184442D01*
X505442Y187442D01*
X504780Y187884D01*
X504000Y188039D01*
D02*
G37*
G36*
X259270Y136396D02*
Y132270D01*
X263396D01*
X263218Y133162D01*
X261994Y134994D01*
X260162Y136219D01*
X259270Y136396D01*
D02*
G37*
G36*
X466980Y143434D02*
X465499Y143239D01*
X462934Y142177D01*
X460733Y140487D01*
X459043Y138286D01*
X457981Y135722D01*
X457619Y132970D01*
Y132240D01*
X466980D01*
Y143434D01*
D02*
G37*
G36*
X161270Y134396D02*
Y130270D01*
X165396D01*
X165219Y131162D01*
X163994Y132994D01*
X162162Y134219D01*
X161270Y134396D01*
D02*
G37*
G36*
X263396Y129730D02*
X259270D01*
Y125604D01*
X260162Y125781D01*
X261994Y127006D01*
X263218Y128838D01*
X263396Y129730D01*
D02*
G37*
G36*
X442850Y143056D02*
X440239Y142713D01*
X437807Y141705D01*
X435718Y140102D01*
X434115Y138013D01*
X433107Y135581D01*
X432764Y132970D01*
Y128970D01*
X433107Y126360D01*
X433505Y125400D01*
X432571Y124336D01*
X432270Y124396D01*
Y120270D01*
X437575D01*
X437678Y120334D01*
X437807Y120235D01*
X440239Y119227D01*
X442850Y118884D01*
X445461Y119227D01*
X447893Y120235D01*
X449982Y121838D01*
X451585Y123927D01*
X452593Y126360D01*
X452936Y128970D01*
Y132970D01*
X452593Y135581D01*
X451585Y138013D01*
X449982Y140102D01*
X447893Y141705D01*
X445461Y142713D01*
X442850Y143056D01*
D02*
G37*
G36*
X417450D02*
X414840Y142713D01*
X412407Y141705D01*
X410318Y140102D01*
X408715Y138013D01*
X407707Y135581D01*
X407364Y132970D01*
Y128970D01*
X407707Y126360D01*
X408715Y123927D01*
X410318Y121838D01*
X412407Y120235D01*
X414840Y119227D01*
X417450Y118884D01*
X420061Y119227D01*
X422493Y120235D01*
X424582Y121838D01*
X425541Y123087D01*
X426573Y122347D01*
X426328Y121979D01*
X425781Y121162D01*
X425604Y120270D01*
X429730D01*
Y124396D01*
X428838Y124219D01*
X427392Y123252D01*
X427142Y123085D01*
X426175Y123863D01*
X426185Y123927D01*
X426266Y124123D01*
X427193Y126360D01*
X427536Y128970D01*
Y132970D01*
X427193Y135581D01*
X426185Y138013D01*
X424582Y140102D01*
X422493Y141705D01*
X420061Y142713D01*
X417450Y143056D01*
D02*
G37*
G36*
X569850D02*
X567239Y142713D01*
X564807Y141705D01*
X562718Y140102D01*
X561115Y138013D01*
X560107Y135581D01*
X559764Y132970D01*
Y128970D01*
X560107Y126360D01*
X561115Y123927D01*
X562718Y121838D01*
X564807Y120235D01*
X567239Y119227D01*
X569850Y118884D01*
X572461Y119227D01*
X574893Y120235D01*
X576982Y121838D01*
X578585Y123927D01*
X579593Y126360D01*
X579936Y128970D01*
Y132970D01*
X579593Y135581D01*
X578585Y138013D01*
X576982Y140102D01*
X574893Y141705D01*
X572461Y142713D01*
X569850Y143056D01*
D02*
G37*
G36*
X544450D02*
X541839Y142713D01*
X539407Y141705D01*
X537318Y140102D01*
X535715Y138013D01*
X534707Y135581D01*
X534364Y132970D01*
Y128970D01*
X534707Y126360D01*
X535715Y123927D01*
X537318Y121838D01*
X539407Y120235D01*
X541839Y119227D01*
X544450Y118884D01*
X547061Y119227D01*
X549493Y120235D01*
X551582Y121838D01*
X553185Y123927D01*
X554193Y126360D01*
X554536Y128970D01*
Y132970D01*
X554193Y135581D01*
X553185Y138013D01*
X551582Y140102D01*
X549493Y141705D01*
X547061Y142713D01*
X544450Y143056D01*
D02*
G37*
G36*
X392050D02*
X389440Y142713D01*
X387007Y141705D01*
X384918Y140102D01*
X383315Y138013D01*
X382307Y135581D01*
X381964Y132970D01*
Y128970D01*
X382307Y126360D01*
X383315Y123927D01*
X384918Y121838D01*
X387007Y120235D01*
X389440Y119227D01*
X392050Y118884D01*
X394660Y119227D01*
X397093Y120235D01*
X399182Y121838D01*
X400785Y123927D01*
X401793Y126360D01*
X402136Y128970D01*
Y132970D01*
X401793Y135581D01*
X400785Y138013D01*
X399182Y140102D01*
X397093Y141705D01*
X394660Y142713D01*
X392050Y143056D01*
D02*
G37*
G36*
X366650D02*
X364039Y142713D01*
X361607Y141705D01*
X359518Y140102D01*
X357915Y138013D01*
X356907Y135581D01*
X356564Y132970D01*
Y128970D01*
X356907Y126360D01*
X357915Y123927D01*
X359518Y121838D01*
X361607Y120235D01*
X364039Y119227D01*
X366650Y118884D01*
X369260Y119227D01*
X371693Y120235D01*
X373782Y121838D01*
X375385Y123927D01*
X376393Y126360D01*
X376736Y128970D01*
Y132970D01*
X376393Y135581D01*
X375385Y138013D01*
X373782Y140102D01*
X371693Y141705D01*
X369260Y142713D01*
X366650Y143056D01*
D02*
G37*
G36*
X341250D02*
X338639Y142713D01*
X336207Y141705D01*
X334118Y140102D01*
X332515Y138013D01*
X331507Y135581D01*
X331164Y132970D01*
Y128970D01*
X331507Y126360D01*
X332515Y123927D01*
X334118Y121838D01*
X336207Y120235D01*
X338639Y119227D01*
X341250Y118884D01*
X343861Y119227D01*
X346293Y120235D01*
X348382Y121838D01*
X349985Y123927D01*
X350993Y126360D01*
X351336Y128970D01*
Y132970D01*
X350993Y135581D01*
X349985Y138013D01*
X348382Y140102D01*
X346293Y141705D01*
X343861Y142713D01*
X341250Y143056D01*
D02*
G37*
G36*
X315850D02*
X313239Y142713D01*
X310807Y141705D01*
X308718Y140102D01*
X307115Y138013D01*
X306107Y135581D01*
X305764Y132970D01*
Y128970D01*
X306107Y126360D01*
X307115Y123927D01*
X308718Y121838D01*
X310807Y120235D01*
X313239Y119227D01*
X315850Y118884D01*
X318461Y119227D01*
X320893Y120235D01*
X322982Y121838D01*
X324585Y123927D01*
X325593Y126360D01*
X325936Y128970D01*
Y132970D01*
X325593Y135581D01*
X324585Y138013D01*
X322982Y140102D01*
X320893Y141705D01*
X318461Y142713D01*
X315850Y143056D01*
D02*
G37*
G36*
X290450D02*
X287840Y142713D01*
X285407Y141705D01*
X283318Y140102D01*
X281715Y138013D01*
X280707Y135581D01*
X280364Y132970D01*
Y128970D01*
X280707Y126360D01*
X281715Y123927D01*
X283318Y121838D01*
X285407Y120235D01*
X287840Y119227D01*
X290450Y118884D01*
X293060Y119227D01*
X295493Y120235D01*
X297582Y121838D01*
X299185Y123927D01*
X300193Y126360D01*
X300536Y128970D01*
Y132970D01*
X300193Y135581D01*
X299185Y138013D01*
X297582Y140102D01*
X295493Y141705D01*
X293060Y142713D01*
X290450Y143056D01*
D02*
G37*
G36*
X466980Y129700D02*
X457619D01*
Y128970D01*
X457981Y126219D01*
X459043Y123654D01*
X460733Y121453D01*
X462934Y119763D01*
X465499Y118701D01*
X466980Y118506D01*
Y129700D01*
D02*
G37*
G36*
X436396Y117730D02*
X432270D01*
Y113604D01*
X433162Y113781D01*
X434994Y115006D01*
X436219Y116838D01*
X436396Y117730D01*
D02*
G37*
G36*
X429730D02*
X425604D01*
X425781Y116838D01*
X427006Y115006D01*
X428838Y113781D01*
X429730Y113604D01*
Y117730D01*
D02*
G37*
G36*
X376270Y76396D02*
Y72270D01*
X380396D01*
X380219Y73162D01*
X378994Y74994D01*
X377162Y76219D01*
X376270Y76396D01*
D02*
G37*
G36*
X373730D02*
X372838Y76219D01*
X371006Y74994D01*
X369781Y73162D01*
X369604Y72270D01*
X373730D01*
Y76396D01*
D02*
G37*
G36*
X440270Y72396D02*
Y68270D01*
X444396D01*
X444219Y69162D01*
X442994Y70994D01*
X441162Y72219D01*
X440270Y72396D01*
D02*
G37*
G36*
X437730D02*
X436838Y72219D01*
X435006Y70994D01*
X433782Y69162D01*
X433604Y68270D01*
X437730D01*
Y72396D01*
D02*
G37*
G36*
X322270Y71396D02*
Y67270D01*
X326396D01*
X326218Y68162D01*
X324994Y69994D01*
X323162Y71219D01*
X322270Y71396D01*
D02*
G37*
G36*
X380396Y69730D02*
X376270D01*
Y65604D01*
X377162Y65781D01*
X378994Y67006D01*
X380219Y68838D01*
X380396Y69730D01*
D02*
G37*
G36*
X373730D02*
X369604D01*
X369781Y68838D01*
X371006Y67006D01*
X372838Y65781D01*
X373730Y65604D01*
Y69730D01*
D02*
G37*
G36*
X403270Y69396D02*
Y65270D01*
X407396D01*
X407219Y66162D01*
X405994Y67994D01*
X404162Y69219D01*
X403270Y69396D01*
D02*
G37*
G36*
X400730D02*
X399838Y69219D01*
X398006Y67994D01*
X396782Y66162D01*
X396604Y65270D01*
X400730D01*
Y69396D01*
D02*
G37*
G36*
X444396Y65730D02*
X440270D01*
Y61604D01*
X441162Y61781D01*
X442994Y63006D01*
X444219Y64838D01*
X444396Y65730D01*
D02*
G37*
G36*
X437730D02*
X433604D01*
X433782Y64838D01*
X435006Y63006D01*
X436838Y61781D01*
X437730Y61604D01*
Y65730D01*
D02*
G37*
G36*
X407396Y62730D02*
X403270D01*
Y58604D01*
X404162Y58781D01*
X405994Y60006D01*
X407219Y61838D01*
X407396Y62730D01*
D02*
G37*
G36*
X400730D02*
X396604D01*
X396782Y61838D01*
X398006Y60006D01*
X399838Y58781D01*
X400730Y58604D01*
Y62730D01*
D02*
G37*
%LPD*%
G36*
X507000Y183000D02*
Y94000D01*
X497252D01*
X496653Y94730D01*
X491000D01*
Y96000D01*
X489730D01*
Y101396D01*
X488838Y101219D01*
X487560Y100365D01*
X486290Y101035D01*
Y104710D01*
X477232Y113768D01*
Y124523D01*
X477993Y126360D01*
X478336Y128970D01*
Y132970D01*
X477993Y135581D01*
X477232Y137416D01*
Y138232D01*
X478000Y139000D01*
X476922Y140078D01*
Y162311D01*
X476000Y163232D01*
Y164000D01*
X469493Y170506D01*
X469862Y171722D01*
X470162Y171781D01*
X471994Y173006D01*
X473219Y174838D01*
X473396Y175730D01*
X468000D01*
Y177000D01*
X466730D01*
Y182396D01*
X465838Y182219D01*
X464560Y181364D01*
X463290Y182035D01*
Y185710D01*
X463410Y186000D01*
X504000D01*
X507000Y183000D01*
D02*
G37*
%LPC*%
G36*
X469270Y182396D02*
Y178270D01*
X473396D01*
X473219Y179162D01*
X471994Y180994D01*
X470162Y182219D01*
X469270Y182396D01*
D02*
G37*
G36*
X493650Y143056D02*
X491040Y142713D01*
X488607Y141705D01*
X486518Y140102D01*
X484915Y138013D01*
X483907Y135581D01*
X483564Y132970D01*
Y128970D01*
X483907Y126360D01*
X484915Y123927D01*
X486518Y121838D01*
X488607Y120235D01*
X491040Y119227D01*
X493650Y118884D01*
X496260Y119227D01*
X498693Y120235D01*
X500782Y121838D01*
X502385Y123927D01*
X503393Y126360D01*
X503736Y128970D01*
Y132970D01*
X503393Y135581D01*
X502385Y138013D01*
X500782Y140102D01*
X498693Y141705D01*
X496260Y142713D01*
X493650Y143056D01*
D02*
G37*
G36*
X492270Y101396D02*
Y97270D01*
X496396D01*
X496219Y98162D01*
X494994Y99994D01*
X493162Y101219D01*
X492270Y101396D01*
D02*
G37*
G36*
X185270Y443396D02*
Y439270D01*
X189396D01*
X189219Y440162D01*
X187994Y441994D01*
X186162Y443218D01*
X185270Y443396D01*
D02*
G37*
G36*
X182730D02*
X181838Y443218D01*
X180006Y441994D01*
X178781Y440162D01*
X178604Y439270D01*
X182730D01*
Y443396D01*
D02*
G37*
G36*
X189396Y436730D02*
X185270D01*
Y432604D01*
X186162Y432781D01*
X187994Y434006D01*
X189219Y435838D01*
X189396Y436730D01*
D02*
G37*
G36*
X182730D02*
X178604D01*
X178781Y435838D01*
X180006Y434006D01*
X181838Y432781D01*
X182730Y432604D01*
Y436730D01*
D02*
G37*
G36*
X167270Y413396D02*
Y409270D01*
X171396D01*
X171219Y410162D01*
X169994Y411994D01*
X168162Y413219D01*
X167270Y413396D01*
D02*
G37*
G36*
X164730D02*
X163838Y413219D01*
X162006Y411994D01*
X160781Y410162D01*
X160604Y409270D01*
X164730D01*
Y413396D01*
D02*
G37*
G36*
X171396Y406730D02*
X167270D01*
Y402604D01*
X168162Y402781D01*
X169994Y404006D01*
X171219Y405838D01*
X171396Y406730D01*
D02*
G37*
G36*
X164730D02*
X160604D01*
X160781Y405838D01*
X162006Y404006D01*
X163838Y402781D01*
X164730Y402604D01*
Y406730D01*
D02*
G37*
G36*
X146000Y405791D02*
X143259Y405430D01*
X140705Y404372D01*
X138511Y402689D01*
X136828Y400495D01*
X135770Y397941D01*
X135409Y395200D01*
X135770Y392459D01*
X136828Y389905D01*
X138511Y387711D01*
X140705Y386028D01*
X143259Y384970D01*
X146000Y384609D01*
X148741Y384970D01*
X151295Y386028D01*
X153489Y387711D01*
X155172Y389905D01*
X156230Y392459D01*
X156591Y395200D01*
X156230Y397941D01*
X155172Y400495D01*
X153489Y402689D01*
X151295Y404372D01*
X148741Y405430D01*
X146000Y405791D01*
D02*
G37*
G36*
X26670Y508808D02*
Y499110D01*
X36368D01*
X36156Y500722D01*
X35043Y503408D01*
X33274Y505714D01*
X30968Y507483D01*
X28282Y508596D01*
X26670Y508808D01*
D02*
G37*
G36*
X24130D02*
X22518Y508596D01*
X19832Y507483D01*
X17526Y505714D01*
X15757Y503408D01*
X14644Y500722D01*
X14432Y499110D01*
X24130D01*
Y508808D01*
D02*
G37*
G36*
X36368Y496570D02*
X26670D01*
Y486872D01*
X28282Y487084D01*
X30968Y488197D01*
X33274Y489966D01*
X35043Y492272D01*
X36156Y494958D01*
X36368Y496570D01*
D02*
G37*
G36*
X24130D02*
X14432D01*
X14644Y494958D01*
X15757Y492272D01*
X17526Y489966D01*
X19832Y488197D01*
X22518Y487084D01*
X24130Y486872D01*
Y496570D01*
D02*
G37*
G36*
X35900Y482940D02*
X14900D01*
Y461940D01*
X35900D01*
Y482940D01*
D02*
G37*
G36*
X26670Y422448D02*
Y412750D01*
X36368D01*
X36156Y414362D01*
X35043Y417048D01*
X33274Y419354D01*
X30968Y421123D01*
X28282Y422236D01*
X26670Y422448D01*
D02*
G37*
G36*
X24130D02*
X22518Y422236D01*
X19832Y421123D01*
X17526Y419354D01*
X15757Y417048D01*
X14644Y414362D01*
X14432Y412750D01*
X24130D01*
Y422448D01*
D02*
G37*
G36*
Y410210D02*
X14432D01*
X14644Y408598D01*
X15757Y405912D01*
X17526Y403606D01*
X19832Y401837D01*
X22518Y400724D01*
X24130Y400512D01*
Y410210D01*
D02*
G37*
G36*
X61300Y352498D02*
X40300D01*
Y331498D01*
X61300D01*
Y352498D01*
D02*
G37*
G36*
X25400Y352589D02*
X22659Y352228D01*
X20105Y351170D01*
X17911Y349487D01*
X16228Y347294D01*
X15170Y344739D01*
X14809Y341998D01*
X15170Y339257D01*
X16228Y336703D01*
X17911Y334510D01*
X20105Y332827D01*
X22659Y331769D01*
X25400Y331408D01*
X28141Y331769D01*
X30695Y332827D01*
X32889Y334510D01*
X34572Y336703D01*
X35630Y339257D01*
X35991Y341998D01*
X35630Y344739D01*
X34572Y347294D01*
X32889Y349487D01*
X30695Y351170D01*
X28141Y352228D01*
X25400Y352589D01*
D02*
G37*
G36*
X50800Y327189D02*
X48059Y326828D01*
X45505Y325770D01*
X43311Y324087D01*
X41628Y321894D01*
X40570Y319339D01*
X40209Y316598D01*
X40570Y313857D01*
X41628Y311303D01*
X43311Y309110D01*
X45505Y307427D01*
X48059Y306369D01*
X50800Y306008D01*
X53541Y306369D01*
X56095Y307427D01*
X58289Y309110D01*
X59972Y311303D01*
X61030Y313857D01*
X61391Y316598D01*
X61030Y319339D01*
X59972Y321894D01*
X58289Y324087D01*
X56095Y325770D01*
X53541Y326828D01*
X50800Y327189D01*
D02*
G37*
G36*
X25400D02*
X22659Y326828D01*
X20105Y325770D01*
X17911Y324087D01*
X16228Y321894D01*
X15170Y319339D01*
X14809Y316598D01*
X15170Y313857D01*
X16228Y311303D01*
X17911Y309110D01*
X20105Y307427D01*
X22659Y306369D01*
X25400Y306008D01*
X28141Y306369D01*
X30695Y307427D01*
X32889Y309110D01*
X34572Y311303D01*
X35630Y313857D01*
X35991Y316598D01*
X35630Y319339D01*
X34572Y321894D01*
X32889Y324087D01*
X30695Y325770D01*
X28141Y326828D01*
X25400Y327189D01*
D02*
G37*
G36*
X43270Y286396D02*
Y282270D01*
X47396D01*
X47218Y283162D01*
X45994Y284994D01*
X44162Y286219D01*
X43270Y286396D01*
D02*
G37*
G36*
X40730D02*
X39838Y286219D01*
X38006Y284994D01*
X36781Y283162D01*
X36604Y282270D01*
X40730D01*
Y286396D01*
D02*
G37*
G36*
X22270Y285396D02*
Y281270D01*
X26396D01*
X26219Y282162D01*
X24994Y283994D01*
X23162Y285219D01*
X22270Y285396D01*
D02*
G37*
G36*
X19730D02*
X18838Y285219D01*
X17006Y283994D01*
X15782Y282162D01*
X15604Y281270D01*
X19730D01*
Y285396D01*
D02*
G37*
G36*
X47396Y279730D02*
X43270D01*
Y275604D01*
X44162Y275781D01*
X45994Y277006D01*
X47218Y278838D01*
X47396Y279730D01*
D02*
G37*
G36*
X40730D02*
X36604D01*
X36781Y278838D01*
X38006Y277006D01*
X39838Y275781D01*
X40730Y275604D01*
Y279730D01*
D02*
G37*
G36*
X26396Y278730D02*
X22270D01*
Y274604D01*
X23162Y274781D01*
X24994Y276006D01*
X26219Y277838D01*
X26396Y278730D01*
D02*
G37*
G36*
X19730D02*
X15604D01*
X15782Y277838D01*
X17006Y276006D01*
X18838Y274781D01*
X19730Y274604D01*
Y278730D01*
D02*
G37*
G36*
X121396Y172730D02*
X117270D01*
Y168604D01*
X118162Y168782D01*
X119994Y170006D01*
X121219Y171838D01*
X121396Y172730D01*
D02*
G37*
G36*
X114730D02*
X110604D01*
X110781Y171838D01*
X112006Y170006D01*
X113838Y168782D01*
X114730Y168604D01*
Y172730D01*
D02*
G37*
G36*
X108000Y112000D02*
Y111000D01*
X114000Y105000D01*
X115000D01*
X108000Y112000D01*
D02*
G37*
G36*
X149270Y91968D02*
Y82270D01*
X158968D01*
X158756Y83882D01*
X157643Y86568D01*
X155874Y88874D01*
X153568Y90643D01*
X150882Y91756D01*
X149270Y91968D01*
D02*
G37*
G36*
X260270Y57396D02*
Y53270D01*
X264396D01*
X264219Y54162D01*
X262994Y55994D01*
X261162Y57219D01*
X260270Y57396D01*
D02*
G37*
G36*
X257730D02*
X256838Y57219D01*
X255006Y55994D01*
X253781Y54162D01*
X253604Y53270D01*
X257730D01*
Y57396D01*
D02*
G37*
G36*
X264396Y50730D02*
X260270D01*
Y46604D01*
X261162Y46781D01*
X262994Y48006D01*
X264219Y49838D01*
X264396Y50730D01*
D02*
G37*
G36*
X303530Y37864D02*
X302048Y37669D01*
X299485Y36607D01*
X297283Y34917D01*
X295593Y32715D01*
X294531Y30152D01*
X294169Y27400D01*
Y26670D01*
X303530D01*
Y37864D01*
D02*
G37*
G36*
X265430Y520464D02*
Y509270D01*
X274791D01*
Y510000D01*
X274429Y512752D01*
X273367Y515316D01*
X271677Y517517D01*
X269475Y519207D01*
X266912Y520269D01*
X265430Y520464D01*
D02*
G37*
G36*
X262890D02*
X261409Y520269D01*
X258845Y519207D01*
X256643Y517517D01*
X254953Y515316D01*
X253891Y512752D01*
X253529Y510000D01*
Y509270D01*
X262890D01*
Y520464D01*
D02*
G37*
G36*
X609600Y520086D02*
X606990Y519743D01*
X604557Y518735D01*
X602468Y517132D01*
X600865Y515043D01*
X599857Y512611D01*
X599514Y510000D01*
Y506000D01*
X599857Y503390D01*
X600865Y500957D01*
X602468Y498868D01*
X604557Y497265D01*
X606990Y496257D01*
X609600Y495914D01*
X612211Y496257D01*
X614643Y497265D01*
X616732Y498868D01*
X618335Y500957D01*
X619343Y503390D01*
X619686Y506000D01*
Y510000D01*
X619343Y512611D01*
X618335Y515043D01*
X616732Y517132D01*
X614643Y518735D01*
X612211Y519743D01*
X609600Y520086D01*
D02*
G37*
G36*
X675500Y481900D02*
X654500D01*
Y460900D01*
X675500D01*
Y481900D01*
D02*
G37*
G36*
X665000Y456591D02*
X662259Y456230D01*
X659705Y455172D01*
X657511Y453489D01*
X655828Y451295D01*
X654770Y448741D01*
X654409Y446000D01*
X654770Y443259D01*
X655828Y440705D01*
X657511Y438511D01*
X659705Y436828D01*
X662259Y435770D01*
X665000Y435409D01*
X667741Y435770D01*
X670295Y436828D01*
X672489Y438511D01*
X674172Y440705D01*
X675230Y443259D01*
X675591Y446000D01*
X675230Y448741D01*
X674172Y451295D01*
X672489Y453489D01*
X670295Y455172D01*
X667741Y456230D01*
X665000Y456591D01*
D02*
G37*
G36*
Y431191D02*
X662259Y430830D01*
X659705Y429772D01*
X657511Y428089D01*
X655828Y425895D01*
X654770Y423341D01*
X654409Y420600D01*
X654770Y417859D01*
X655828Y415305D01*
X657511Y413111D01*
X659705Y411428D01*
X662259Y410370D01*
X665000Y410009D01*
X667741Y410370D01*
X670295Y411428D01*
X672489Y413111D01*
X674172Y415305D01*
X675230Y417859D01*
X675591Y420600D01*
X675230Y423341D01*
X674172Y425895D01*
X672489Y428089D01*
X670295Y429772D01*
X667741Y430830D01*
X665000Y431191D01*
D02*
G37*
G36*
X659130Y393156D02*
X654509Y392793D01*
X648764Y391413D01*
X643305Y389152D01*
X638266Y386064D01*
X633773Y382227D01*
X629936Y377734D01*
X626848Y372696D01*
X624587Y367236D01*
X623208Y361491D01*
X622844Y356870D01*
X659130D01*
Y393156D01*
D02*
G37*
G36*
Y354330D02*
X622844D01*
X623208Y349709D01*
X624587Y343964D01*
X626848Y338504D01*
X629936Y333466D01*
X633773Y328973D01*
X638266Y325136D01*
X643305Y322048D01*
X648764Y319787D01*
X654509Y318407D01*
X659130Y318044D01*
Y354330D01*
D02*
G37*
G36*
X668730Y305730D02*
X658023D01*
X658270Y303857D01*
X659483Y300928D01*
X661413Y298413D01*
X663928Y296483D01*
X666857Y295270D01*
X668730Y295023D01*
Y305730D01*
D02*
G37*
G36*
X681977D02*
X671270D01*
Y295023D01*
X673143Y295270D01*
X676072Y296483D01*
X678587Y298413D01*
X680517Y300928D01*
X681730Y303857D01*
X681977Y305730D01*
D02*
G37*
G36*
X657730Y160730D02*
X653604D01*
X653781Y159838D01*
X655006Y158006D01*
X656838Y156781D01*
X657730Y156604D01*
Y160730D01*
D02*
G37*
G36*
X681730Y131396D02*
X680838Y131219D01*
X679006Y129994D01*
X677781Y128162D01*
X677604Y127270D01*
X681730D01*
Y131396D01*
D02*
G37*
G36*
X606730Y287730D02*
X602604D01*
X602781Y286838D01*
X604006Y285006D01*
X605838Y283781D01*
X606730Y283604D01*
Y287730D01*
D02*
G37*
G36*
X267396Y106730D02*
X263270D01*
Y102604D01*
X264162Y102781D01*
X265994Y104006D01*
X267219Y105838D01*
X267396Y106730D01*
D02*
G37*
G36*
X174670Y91968D02*
Y82270D01*
X184368D01*
X184156Y83882D01*
X183043Y86568D01*
X181274Y88874D01*
X178968Y90643D01*
X176282Y91756D01*
X174670Y91968D01*
D02*
G37*
G36*
X184368Y79730D02*
X174670D01*
Y70032D01*
X176282Y70244D01*
X178968Y71357D01*
X181274Y73126D01*
X183043Y75432D01*
X184156Y78118D01*
X184368Y79730D01*
D02*
G37*
G36*
X247000Y92599D02*
X243998Y92204D01*
X241200Y91045D01*
X238798Y89202D01*
X236955Y86800D01*
X235796Y84002D01*
X235401Y81000D01*
X235796Y77998D01*
X236955Y75200D01*
X238798Y72798D01*
X241200Y70955D01*
X243998Y69796D01*
X247000Y69401D01*
X250002Y69796D01*
X252800Y70955D01*
X255202Y72798D01*
X257045Y75200D01*
X258204Y77998D01*
X258599Y81000D01*
X258204Y84002D01*
X257045Y86800D01*
X255202Y89202D01*
X252800Y91045D01*
X250002Y92204D01*
X247000Y92599D01*
D02*
G37*
G36*
X49270Y220396D02*
Y216270D01*
X53396D01*
X53219Y217162D01*
X51994Y218994D01*
X50162Y220219D01*
X49270Y220396D01*
D02*
G37*
G36*
X46730D02*
X45838Y220219D01*
X44006Y218994D01*
X42781Y217162D01*
X42604Y216270D01*
X46730D01*
Y220396D01*
D02*
G37*
G36*
X53396Y213730D02*
X42604D01*
X42781Y212838D01*
X43676Y211500D01*
X42781Y210162D01*
X42604Y209270D01*
X53396D01*
X53219Y210162D01*
X52324Y211500D01*
X53219Y212838D01*
X53396Y213730D01*
D02*
G37*
G36*
Y206730D02*
X49270D01*
Y202604D01*
X50162Y202781D01*
X51994Y204006D01*
X53219Y205838D01*
X53396Y206730D01*
D02*
G37*
G36*
X46730D02*
X42604D01*
X42781Y205838D01*
X44006Y204006D01*
X45838Y202781D01*
X46730Y202604D01*
Y206730D01*
D02*
G37*
G36*
X89270Y123396D02*
Y119270D01*
X93396D01*
X93219Y120162D01*
X91994Y121994D01*
X90162Y123218D01*
X89270Y123396D01*
D02*
G37*
G36*
X86730D02*
X85838Y123218D01*
X84006Y121994D01*
X82781Y120162D01*
X82604Y119270D01*
X86730D01*
Y123396D01*
D02*
G37*
G36*
X93396Y116730D02*
X82604D01*
X82781Y115838D01*
X84006Y114006D01*
X84763Y113500D01*
X84006Y112994D01*
X82781Y111162D01*
X82604Y110270D01*
X93396D01*
X93219Y111162D01*
X91994Y112994D01*
X91237Y113500D01*
X91994Y114006D01*
X93219Y115838D01*
X93396Y116730D01*
D02*
G37*
G36*
Y107730D02*
X89270D01*
Y103604D01*
X90162Y103781D01*
X91994Y105006D01*
X93219Y106838D01*
X93396Y107730D01*
D02*
G37*
G36*
X86730D02*
X82604D01*
X82781Y106838D01*
X84006Y105006D01*
X85838Y103781D01*
X86730Y103604D01*
Y107730D01*
D02*
G37*
G36*
X659130Y113756D02*
X654509Y113392D01*
X648764Y112013D01*
X643305Y109752D01*
X638266Y106664D01*
X633773Y102827D01*
X629936Y98334D01*
X626848Y93295D01*
X624587Y87836D01*
X623208Y82091D01*
X622844Y77470D01*
X659130D01*
Y113756D01*
D02*
G37*
G36*
Y74930D02*
X622844D01*
X623208Y70309D01*
X624587Y64564D01*
X626848Y59104D01*
X629936Y54066D01*
X633773Y49573D01*
X638266Y45736D01*
X643305Y42648D01*
X648764Y40387D01*
X654509Y39007D01*
X659130Y38644D01*
Y74930D01*
D02*
G37*
G36*
X635000Y37486D02*
X632389Y37143D01*
X629957Y36135D01*
X627868Y34532D01*
X626265Y32443D01*
X625257Y30010D01*
X624914Y27400D01*
Y23400D01*
X625257Y20789D01*
X626265Y18357D01*
X627868Y16268D01*
X629957Y14665D01*
X632389Y13657D01*
X635000Y13314D01*
X637611Y13657D01*
X640043Y14665D01*
X642132Y16268D01*
X643735Y18357D01*
X644743Y20789D01*
X645086Y23400D01*
Y27400D01*
X644743Y30010D01*
X643735Y32443D01*
X642132Y34532D01*
X640043Y36135D01*
X637611Y37143D01*
X635000Y37486D01*
D02*
G37*
G36*
X609600D02*
X606990Y37143D01*
X604557Y36135D01*
X602468Y34532D01*
X600865Y32443D01*
X599857Y30010D01*
X599514Y27400D01*
Y23400D01*
X599857Y20789D01*
X600865Y18357D01*
X602468Y16268D01*
X604557Y14665D01*
X606990Y13657D01*
X609600Y13314D01*
X612211Y13657D01*
X614643Y14665D01*
X616732Y16268D01*
X618335Y18357D01*
X619343Y20789D01*
X619686Y23400D01*
Y27400D01*
X619343Y30010D01*
X618335Y32443D01*
X616732Y34532D01*
X614643Y36135D01*
X612211Y37143D01*
X609600Y37486D01*
D02*
G37*
G36*
X584200D02*
X581590Y37143D01*
X579157Y36135D01*
X577068Y34532D01*
X575465Y32443D01*
X574457Y30010D01*
X574114Y27400D01*
Y23400D01*
X574457Y20789D01*
X575465Y18357D01*
X577068Y16268D01*
X579157Y14665D01*
X581590Y13657D01*
X584200Y13314D01*
X586810Y13657D01*
X589243Y14665D01*
X591332Y16268D01*
X592935Y18357D01*
X593943Y20789D01*
X594286Y23400D01*
Y27400D01*
X593943Y30010D01*
X592935Y32443D01*
X591332Y34532D01*
X589243Y36135D01*
X586810Y37143D01*
X584200Y37486D01*
D02*
G37*
G36*
X442431Y24130D02*
X433070D01*
Y12936D01*
X434552Y13131D01*
X437116Y14193D01*
X439317Y15883D01*
X441007Y18084D01*
X442069Y20649D01*
X442431Y23400D01*
Y24130D01*
D02*
G37*
G36*
X430530D02*
X421169D01*
Y23400D01*
X421531Y20649D01*
X422593Y18084D01*
X424283Y15883D01*
X426484Y14193D01*
X429049Y13131D01*
X430530Y12936D01*
Y24130D01*
D02*
G37*
G36*
X133640Y79730D02*
X123870D01*
Y69960D01*
X133640D01*
Y79730D01*
D02*
G37*
%LPD*%
D20*
X202000Y16000D02*
D03*
D62*
X670000Y307000D02*
D03*
Y262000D02*
D03*
X605000D02*
D03*
X202000Y81000D02*
D03*
X247000D02*
D03*
Y16000D02*
D03*
D63*
X605000Y307000D02*
D03*
D68*
X212257Y462000D02*
X558000D01*
X591197Y432803D02*
X591500Y432500D01*
X587197Y432803D02*
X591197D01*
X558000Y462000D02*
X587197Y432803D01*
X219500Y432691D02*
X236808Y450000D01*
X219500Y427307D02*
X222000Y424806D01*
X219500Y427307D02*
Y432691D01*
X236808Y450000D02*
X543879D01*
X552186Y455743D02*
X582429Y425500D01*
X214500Y425236D02*
X217000Y422735D01*
X214500Y425236D02*
Y434763D01*
X235480Y455743D02*
X552186D01*
X546426Y449574D02*
X547000Y449000D01*
X544305Y449574D02*
X546426D01*
X543879Y450000D02*
X544305Y449574D01*
X214500Y434763D02*
X235480Y455743D01*
X582429Y425500D02*
X593692D01*
X606000Y437808D01*
Y439875D01*
X591000Y440000D02*
X597000D01*
X563500Y467500D02*
X591000Y440000D01*
X175500Y467500D02*
X563500D01*
X197000Y446743D02*
X212257Y462000D01*
X222000Y369929D02*
Y424806D01*
X205000Y352929D02*
X222000Y369929D01*
X217000Y372000D02*
Y422735D01*
X194000Y349000D02*
X217000Y372000D01*
X197000Y377000D02*
Y446743D01*
X187960Y512960D02*
X197800Y522800D01*
X227000Y488757D02*
Y518000D01*
X187960Y508000D02*
Y512960D01*
X222200Y522800D02*
X227000Y518000D01*
X197800Y522800D02*
X222200D01*
X205000Y349000D02*
Y352929D01*
X609150Y179850D02*
X618000Y171000D01*
X609150Y179850D02*
Y212072D01*
X618000Y155720D02*
Y171000D01*
X595250Y132970D02*
X618000Y155720D01*
X586000Y235222D02*
X609150Y212072D01*
X586000Y235222D02*
Y311950D01*
X592096Y318067D02*
X600000Y327758D01*
X586000Y311950D02*
X592000Y317950D01*
X592096Y318067D01*
X618000Y304767D02*
X619000Y251222D01*
X646500Y175500D02*
Y223722D01*
X620506Y331000D02*
X630000Y321506D01*
X619860Y250362D02*
X646500Y223722D01*
X619000Y251222D02*
X619860Y250362D01*
X630000Y256000D02*
Y321506D01*
Y256000D02*
X660000Y226000D01*
X669357Y163067D02*
Y163643D01*
X660000Y173000D02*
X669357Y163643D01*
X623000Y152000D02*
X646500Y175500D01*
X660000Y173000D02*
Y226000D01*
X289094Y200574D02*
X290450Y201930D01*
X253574Y200574D02*
X289094D01*
X253000Y200000D02*
X253574Y200574D01*
X93000Y320000D02*
Y376000D01*
X100918Y368918D02*
X101000Y369000D01*
X100918Y273930D02*
Y368918D01*
X100836Y273848D02*
X100918Y273930D01*
X103000Y182000D02*
X103755D01*
X109255Y187500D01*
X158000D01*
X109000Y194000D02*
X167000D01*
X103000Y200000D02*
X109000Y194000D01*
X213360Y489640D02*
X222000Y481000D01*
X594071Y486000D02*
X617500Y462571D01*
X229757Y486000D02*
X594071D01*
X227000Y488757D02*
X229757Y486000D01*
X592000Y481000D02*
X612500Y460500D01*
X222000Y481000D02*
X592000D01*
X218500Y474000D02*
X300000D01*
X300000Y474000D01*
X161000Y453000D02*
X175500Y467500D01*
X212000Y480500D02*
X218500Y474000D01*
X213360Y489640D02*
Y508000D01*
X145000Y447000D02*
X146000Y446000D01*
X102000Y447000D02*
X145000D01*
X76560Y472440D02*
X102000Y447000D01*
X76200Y472440D02*
X76560D01*
X146000Y446000D02*
X153000Y453000D01*
X161000D01*
X618500Y331000D02*
X620506D01*
X616500Y333000D02*
X618500Y331000D01*
X616500Y333000D02*
Y379722D01*
X630000Y393222D01*
Y490000D01*
X613222Y320000D02*
X615950D01*
X618000Y304767D02*
Y317950D01*
X615950Y320000D02*
X618000Y317950D01*
X612205Y320683D02*
X613022Y320011D01*
X607247Y324758D02*
X612205Y320683D01*
X613022Y320011D02*
X613222Y320000D01*
X605776Y326479D02*
X605995Y326011D01*
X605000Y328144D02*
X605776Y326479D01*
X605995Y326011D02*
X607247Y324758D01*
X600000Y327758D02*
Y386600D01*
X605000Y328144D02*
Y384529D01*
X617500Y397029D01*
X600000Y386600D02*
X612500Y399100D01*
X623000Y133320D02*
Y152000D01*
X620650Y130970D02*
X623000Y133320D01*
X612500Y399100D02*
Y460500D01*
X617500Y397029D02*
Y462571D01*
X595250Y130970D02*
Y132970D01*
X330439Y290439D02*
Y290561D01*
X328000Y288000D02*
X330439Y290439D01*
X328000Y172000D02*
Y288000D01*
X304000Y172000D02*
Y232000D01*
D69*
X246000Y131000D02*
X258000D01*
X237000Y122000D02*
X246000Y131000D01*
X237000Y101000D02*
Y122000D01*
X228000Y92000D02*
X237000Y101000D01*
X259000Y111000D02*
X262000Y108000D01*
X246000Y111000D02*
X259000D01*
X49000Y398980D02*
X92980D01*
X93000Y399000D01*
X48980D02*
X49000Y398980D01*
X37880Y399000D02*
X48980D01*
X25400Y411480D02*
X37880Y399000D01*
X21000Y120000D02*
X25000Y124000D01*
X21000Y88000D02*
Y120000D01*
X27000Y82000D02*
X57000D01*
X21000Y88000D02*
X27000Y82000D01*
X57000D02*
X97459D01*
X103459Y88000D01*
X104000D01*
X635617Y117617D02*
X636000Y118000D01*
X627617Y117617D02*
X635617D01*
X552000Y42000D02*
X627617Y117617D01*
X462000Y42000D02*
X552000D01*
X310050Y67050D02*
X335101Y42000D01*
X462000D01*
X293000Y84101D02*
Y101000D01*
Y84101D02*
X310050Y67050D01*
X55000Y144000D02*
Y154000D01*
X63000Y162000D01*
X160383Y122617D02*
X202000Y81000D01*
X160383Y122617D02*
Y128617D01*
X160000Y129000D02*
X160383Y128617D01*
X179458Y200000D02*
X182459Y203000D01*
X171601Y200000D02*
X179458D01*
X170600Y201000D02*
X171601Y200000D01*
X149000Y201000D02*
X170600D01*
X182459Y203000D02*
X183000D01*
X431800Y20200D02*
Y25400D01*
X624500Y253722D02*
X626068Y251932D01*
X623562Y318586D02*
X624500Y253722D01*
X652000Y172000D02*
Y226000D01*
X626068Y251932D02*
X627183Y250817D01*
X652000Y226000D01*
X649000Y269000D02*
X656500Y261500D01*
X642000Y162000D02*
X652000Y172000D01*
X661000Y235000D02*
Y238000D01*
X656500Y242500D02*
Y261500D01*
Y242500D02*
X661000Y238000D01*
X113000Y261000D02*
X128000Y276000D01*
X174000D01*
X174000Y276000D01*
X21000Y280000D02*
X22000Y281000D01*
X238760Y506000D02*
X250760Y494000D01*
X598000D02*
X624500Y467500D01*
X250760Y494000D02*
X598000D01*
X623500Y320228D02*
X623562Y318586D01*
X622390Y321338D02*
X623500Y320228D01*
X618228Y325500D02*
X622390Y321338D01*
X615500Y325500D02*
X618228D01*
X611000Y330000D02*
X615500Y325500D01*
X611000Y330000D02*
Y382000D01*
X624500Y395500D01*
Y467500D01*
X642000Y159000D02*
Y162000D01*
X238760Y506000D02*
Y508000D01*
D70*
X152400D02*
D03*
D71*
X139700Y25400D02*
D03*
X660400Y76200D02*
D03*
Y355600D02*
D03*
D72*
X416560Y508000D02*
D03*
X279400Y25400D02*
D03*
X635000Y508000D02*
D03*
X508000Y25400D02*
D03*
X620650Y201930D02*
D03*
D73*
X391160Y508000D02*
D03*
X365760D02*
D03*
X340360D02*
D03*
X314960D02*
D03*
X289560D02*
D03*
X264160D02*
D03*
X238760D02*
D03*
X213360D02*
D03*
X187960D02*
D03*
X457200Y25400D02*
D03*
X431800D02*
D03*
X406400D02*
D03*
X381000D02*
D03*
X355600D02*
D03*
X330200D02*
D03*
X304800D02*
D03*
X457200Y508000D02*
D03*
X482600D02*
D03*
X508000D02*
D03*
X533400D02*
D03*
X558800D02*
D03*
X584200D02*
D03*
X609600D02*
D03*
X533400Y25400D02*
D03*
X558800D02*
D03*
X584200D02*
D03*
X609600D02*
D03*
X635000D02*
D03*
X595250Y201930D02*
D03*
X569850D02*
D03*
X544450D02*
D03*
X519050D02*
D03*
X493650D02*
D03*
X468250D02*
D03*
X442850D02*
D03*
X417450D02*
D03*
X392050D02*
D03*
X366650D02*
D03*
X341250D02*
D03*
X315850D02*
D03*
X290450D02*
D03*
X620650Y130970D02*
D03*
X595250D02*
D03*
X569850D02*
D03*
X544450D02*
D03*
X519050D02*
D03*
X493650D02*
D03*
X468250D02*
D03*
X442850D02*
D03*
X417450D02*
D03*
X392050D02*
D03*
X366650D02*
D03*
X341250D02*
D03*
X315850D02*
D03*
X290450D02*
D03*
D74*
X25000Y22000D02*
D03*
Y124000D02*
D03*
D75*
X11250Y221000D02*
D03*
Y155000D02*
D03*
D76*
X76200Y411480D02*
D03*
X50800D02*
D03*
X25400D02*
D03*
X76200Y386080D02*
D03*
X50800D02*
D03*
X76200Y497840D02*
D03*
X50800D02*
D03*
X25400D02*
D03*
X76200Y472440D02*
D03*
X50800D02*
D03*
X25400Y341998D02*
D03*
X50800Y316598D02*
D03*
X25400D02*
D03*
X146000Y369800D02*
D03*
Y395200D02*
D03*
Y420600D02*
D03*
X665000Y446000D02*
D03*
Y420600D02*
D03*
X148000Y81000D02*
D03*
X173400D02*
D03*
D77*
X25400Y386080D02*
D03*
Y472440D02*
D03*
X50800Y341998D02*
D03*
X122600Y81000D02*
D03*
D78*
X146000Y446000D02*
D03*
X665000Y471400D02*
D03*
D79*
X547000Y449000D02*
D03*
X268000Y443000D02*
D03*
X591500Y432500D02*
D03*
X597000Y440000D02*
D03*
X480500Y250000D02*
D03*
X246000Y111000D02*
D03*
X93000Y399000D02*
D03*
X321000Y66000D02*
D03*
X310050Y67050D02*
D03*
X601250Y415250D02*
D03*
X55000Y144000D02*
D03*
X63000Y162000D02*
D03*
X160000Y129000D02*
D03*
X226000Y429999D02*
D03*
X166000Y408000D02*
D03*
X184000Y438000D02*
D03*
X210000Y393000D02*
D03*
X174500Y207000D02*
D03*
X138000Y225000D02*
D03*
X210500Y412000D02*
D03*
X205000Y349000D02*
D03*
X194000D02*
D03*
X217000Y344000D02*
D03*
X175000Y189000D02*
D03*
X221000Y207000D02*
D03*
X74000Y440000D02*
D03*
X53000Y523000D02*
D03*
X65000Y265399D02*
D03*
X36000Y235000D02*
D03*
X74000Y214000D02*
D03*
X104000Y88000D02*
D03*
X57000Y82000D02*
D03*
X228000Y92000D02*
D03*
X258000Y131000D02*
D03*
X293000Y101000D02*
D03*
X375000Y71000D02*
D03*
X402000Y64000D02*
D03*
X439000Y67000D02*
D03*
X431000Y119000D02*
D03*
X393000Y251000D02*
D03*
X683000Y126000D02*
D03*
X659000Y162000D02*
D03*
X637000Y198000D02*
D03*
X649000Y269000D02*
D03*
X661000Y235000D02*
D03*
X608000Y289000D02*
D03*
X253000Y200000D02*
D03*
X669357Y163067D02*
D03*
X174000Y276000D02*
D03*
X113000Y261000D02*
D03*
X21000Y280000D02*
D03*
X42000Y281000D02*
D03*
X116000Y174000D02*
D03*
X259000Y52000D02*
D03*
X462000Y42000D02*
D03*
X636000Y118000D02*
D03*
X93000Y320000D02*
D03*
Y376000D02*
D03*
X100836Y273848D02*
D03*
X101000Y369000D02*
D03*
X197000Y377000D02*
D03*
X491000Y96000D02*
D03*
X468000Y177000D02*
D03*
X262000Y108000D02*
D03*
X183000Y203000D02*
D03*
X149000Y201000D02*
D03*
X88000Y118000D02*
D03*
Y109000D02*
D03*
X48000Y208000D02*
D03*
Y215000D02*
D03*
X158000Y187500D02*
D03*
X167000Y194000D02*
D03*
X103000Y182000D02*
D03*
Y200000D02*
D03*
X300000Y474000D02*
D03*
X212000Y480500D02*
D03*
X642000Y159000D02*
D03*
X606000Y439875D02*
D03*
X630000Y490000D02*
D03*
X328000Y172000D02*
D03*
X330439Y290561D02*
D03*
X304000Y172000D02*
D03*
Y232000D02*
D03*
M02*
