G04*
G04 #@! TF.GenerationSoftware,Altium Limited,Altium Designer,20.0.13 (296)*
G04*
G04 Layer_Color=65535*
%FSLAX44Y44*%
%MOMM*%
G71*
G01*
G75*
%ADD10C,0.2540*%
%ADD11C,0.2000*%
%ADD12C,0.2032*%
D10*
X119773Y523214D02*
G03*
X183577Y490000I32627J-15214D01*
G01*
X203530Y263170D02*
G03*
X203530Y263170I-1270J0D01*
G01*
X172720Y520700D02*
X431800D01*
X172720Y495300D02*
Y520700D01*
Y495300D02*
X431800D01*
Y520700D01*
X264160Y12700D02*
Y38100D01*
X472440D01*
Y12700D02*
Y38100D01*
X264160Y12700D02*
X472440D01*
X650240Y495300D02*
Y520700D01*
X441960Y495300D02*
X650240D01*
X441960D02*
Y520700D01*
X650240D01*
X492760Y12700D02*
X650240D01*
Y38100D01*
X492760D02*
X650240D01*
X492760Y12700D02*
Y38100D01*
X167000Y448000D02*
X182000D01*
X197000D01*
X167000Y418000D02*
X182000D01*
X197000D01*
X196000Y433000D02*
Y435000D01*
Y431000D02*
Y435000D01*
X677000Y160000D02*
Y175000D01*
Y145000D02*
Y160000D01*
X647000D02*
Y175000D01*
Y145000D02*
Y160000D01*
X662000Y146000D02*
X664000D01*
X660000D02*
X664000D01*
X213000Y141000D02*
Y156000D01*
Y171000D01*
X243000Y141000D02*
Y156000D01*
Y171000D01*
X226000Y170000D02*
X228000D01*
X226000D02*
X230000D01*
X49000Y247000D02*
Y262000D01*
Y277000D01*
X79000Y247000D02*
Y262000D01*
Y277000D01*
X62000Y276000D02*
X64000D01*
X62000D02*
X66000D01*
X197180Y334290D02*
Y338100D01*
Y340640D01*
X190830D02*
X197180D01*
X112090Y335560D02*
Y339370D01*
Y341910D01*
X118440D01*
X112090Y260630D02*
Y264440D01*
Y258090D02*
Y260630D01*
Y258090D02*
X118440D01*
X188290Y260630D02*
X193370Y265710D01*
X593000Y242000D02*
Y247000D01*
X14000Y279000D02*
X19000D01*
X12700Y373380D02*
Y424180D01*
X87630D01*
Y373380D02*
Y424180D01*
X12700Y373380D02*
X87630D01*
X12700Y459740D02*
Y510540D01*
X87630D01*
Y459740D02*
Y510540D01*
X12700Y459740D02*
X87630D01*
X12954Y354190D02*
X63500D01*
X12954Y304152D02*
Y354190D01*
Y304152D02*
X63500D01*
Y354190D01*
X133300Y461240D02*
X158700D01*
Y354560D02*
Y461240D01*
X133300Y354560D02*
X158700D01*
X133300D02*
Y461240D01*
X652300Y405360D02*
Y486640D01*
Y405360D02*
X677700D01*
Y486640D01*
X652300D02*
X677700D01*
X107360Y68300D02*
X188640D01*
Y93700D01*
X107360D02*
X188640D01*
X107360Y68300D02*
Y93700D01*
X671040Y273980D02*
Y294300D01*
X605000Y273980D02*
Y294300D01*
X617700Y261280D02*
X655800D01*
X620240Y307000D02*
X655800D01*
X214700Y82040D02*
X235020D01*
X214700Y16000D02*
X235020D01*
X247720Y28700D02*
Y66800D01*
X202000Y31240D02*
Y66800D01*
X183843Y382383D02*
Y397617D01*
X191461D01*
X194000Y395078D01*
Y390000D01*
X191461Y387461D01*
X183843D01*
X188922D02*
X194000Y382383D01*
X199078D02*
X204157D01*
X201618D01*
Y397617D01*
X199078Y395078D01*
D11*
X633350Y172800D02*
G03*
X633350Y160100I0J-6350D01*
G01*
X236950Y254360D02*
Y335640D01*
Y254360D02*
X275050D01*
Y335640D01*
X236950D02*
X275050D01*
X397360Y264950D02*
X478640D01*
Y303050D01*
X397360D02*
X478640D01*
X397360Y264950D02*
Y303050D01*
X11000Y44500D02*
Y101500D01*
Y44500D02*
X43000D01*
Y101500D01*
X11000D02*
X43000D01*
X594000Y237000D02*
X630000D01*
Y251000D01*
X611000D02*
X630000D01*
X9000Y242000D02*
Y278000D01*
Y242000D02*
X23000D01*
Y278000D01*
X229760Y394380D02*
X260240D01*
Y409620D01*
X229760D02*
X260240D01*
X229760Y394380D02*
Y409620D01*
X227220Y394380D02*
Y409620D01*
X229760Y376380D02*
X260240D01*
Y391620D01*
X229760D02*
X260240D01*
X229760Y376380D02*
Y391620D01*
X227220Y376380D02*
Y391620D01*
X228760Y414380D02*
X259240D01*
Y429620D01*
X228760D02*
X259240D01*
X228760Y414380D02*
Y429620D01*
X226220Y414380D02*
Y429620D01*
X588760Y388380D02*
X619240D01*
Y403620D01*
X588760D02*
X619240D01*
X588760Y388380D02*
Y403620D01*
X586220Y388380D02*
Y403620D01*
X162110Y369760D02*
X179890D01*
X162110D02*
Y400240D01*
X179890D01*
Y369760D02*
Y400240D01*
X262760Y392110D02*
X293240D01*
Y409890D01*
X262760D02*
X293240D01*
X262760Y392110D02*
Y409890D01*
Y374110D02*
Y391890D01*
X293240D01*
Y374110D02*
Y391890D01*
X262760Y374110D02*
X293240D01*
X123760Y206110D02*
X154240D01*
Y223890D01*
X123760D02*
X154240D01*
X123760Y206110D02*
Y223890D01*
X83110Y285240D02*
X100890D01*
Y254760D02*
Y285240D01*
X83110Y254760D02*
X100890D01*
X83110D02*
Y285240D01*
X76760Y358890D02*
X107240D01*
X76760Y341110D02*
Y358890D01*
Y341110D02*
X107240D01*
Y358890D01*
X97740Y154110D02*
Y171890D01*
X67260Y154110D02*
X97740D01*
X67260D02*
Y171890D01*
X97740D01*
X67760Y191110D02*
X98240D01*
Y208890D01*
X67760D02*
X98240D01*
X67760Y191110D02*
Y208890D01*
Y173110D02*
Y190890D01*
X98240D01*
Y173110D02*
Y190890D01*
X67760Y173110D02*
X98240D01*
X215110Y265760D02*
Y296240D01*
Y265760D02*
X232890D01*
Y296240D01*
X215110D02*
X232890D01*
X608110Y454260D02*
X625890D01*
X608110D02*
Y484740D01*
X625890D01*
Y454260D02*
Y484740D01*
X604890Y453760D02*
Y484240D01*
X587110D02*
X604890D01*
X587110Y453760D02*
Y484240D01*
Y453760D02*
X604890D01*
X631110Y414760D02*
X648890D01*
X631110D02*
Y445240D01*
X648890D01*
Y414760D02*
Y445240D01*
X323760Y98890D02*
X354240D01*
X323760Y81110D02*
Y98890D01*
Y81110D02*
X354240D01*
Y98890D01*
X335240Y81110D02*
Y98890D01*
X304760Y81110D02*
X335240D01*
X304760D02*
Y98890D01*
X335240D01*
X368760Y115890D02*
X399240D01*
X368760Y98110D02*
Y115890D01*
Y98110D02*
X399240D01*
Y115890D01*
X630240Y219110D02*
Y236890D01*
X599760Y219110D02*
X630240D01*
X599760D02*
Y236890D01*
X630240D01*
X405760Y219110D02*
X436240D01*
Y236890D01*
X405760D02*
X436240D01*
X405760Y219110D02*
Y236890D01*
X257240Y432110D02*
Y449890D01*
X226760Y432110D02*
X257240D01*
X226760D02*
Y449890D01*
X257240D01*
X587760Y386890D02*
X618240D01*
X587760Y369110D02*
Y386890D01*
Y369110D02*
X618240D01*
Y386890D01*
X664110Y218240D02*
X681890D01*
Y187760D02*
Y218240D01*
X664110Y187760D02*
X681890D01*
X664110D02*
Y218240D01*
X681890Y218760D02*
Y249240D01*
X664110D02*
X681890D01*
X664110Y218760D02*
Y249240D01*
Y218760D02*
X681890D01*
X262110Y38760D02*
X279890D01*
X262110D02*
Y69240D01*
X279890D01*
Y38760D02*
Y69240D01*
X6760Y282110D02*
X37240D01*
Y299890D01*
X6760D02*
X37240D01*
X6760Y282110D02*
Y299890D01*
X636110Y250240D02*
X653890D01*
Y219760D02*
Y250240D01*
X636110Y219760D02*
X653890D01*
X636110D02*
Y250240D01*
X262760Y69110D02*
X293240D01*
Y86890D01*
X262760D02*
X293240D01*
X262760Y69110D02*
Y86890D01*
X214760Y179110D02*
Y196890D01*
X245240D01*
Y179110D02*
Y196890D01*
X214760Y179110D02*
X245240D01*
X27110Y247760D02*
Y278240D01*
Y247760D02*
X44890D01*
Y278240D01*
X27110D02*
X44890D01*
X52000Y165000D02*
X66000D01*
X52000D02*
Y191000D01*
X66000D01*
Y165000D02*
Y191000D01*
X52000Y217000D02*
X66000D01*
Y191000D02*
Y217000D01*
X52000Y191000D02*
X66000D01*
X52000D02*
Y217000D01*
X633350Y172800D02*
Y183580D01*
Y149320D02*
Y160100D01*
X277750Y149320D02*
X633350D01*
X277750D02*
Y183580D01*
X633350D01*
X231160Y211220D02*
Y246780D01*
X215920D02*
X226080D01*
X210840Y211220D02*
Y246780D01*
Y211220D02*
X231160D01*
X226080Y246780D02*
X231160D01*
X210840D02*
X215920D01*
X209160Y211220D02*
Y246780D01*
X193920D02*
X204080D01*
X188840Y211220D02*
Y246780D01*
Y211220D02*
X209160D01*
X204080Y246780D02*
X209160D01*
X188840D02*
X193920D01*
X234160Y299220D02*
Y334780D01*
X218920D02*
X229080D01*
X213840Y299220D02*
Y334780D01*
Y299220D02*
X234160D01*
X229080Y334780D02*
X234160D01*
X213840D02*
X218920D01*
X185160Y209220D02*
Y244780D01*
X169920D02*
X180080D01*
X164840Y209220D02*
Y244780D01*
Y209220D02*
X185160D01*
X180080Y244780D02*
X185160D01*
X164840D02*
X169920D01*
X119220Y246160D02*
X154780D01*
X119220Y230920D02*
Y241080D01*
Y225840D02*
X154780D01*
Y246160D01*
X119220Y241080D02*
Y246160D01*
Y225840D02*
Y230920D01*
X9840Y424220D02*
Y459780D01*
X14920Y424220D02*
X25080D01*
X30160D02*
Y459780D01*
X9840D02*
X30160D01*
X9840Y424220D02*
X14920D01*
X25080D02*
X30160D01*
X252160Y211220D02*
Y246780D01*
X236920D02*
X247080D01*
X231840Y211220D02*
Y246780D01*
Y211220D02*
X252160D01*
X247080Y246780D02*
X252160D01*
X231840D02*
X236920D01*
X225220Y336840D02*
X260780D01*
Y341920D02*
Y352080D01*
X225220Y357160D02*
X260780D01*
X225220Y336840D02*
Y357160D01*
X260780Y336840D02*
Y341920D01*
Y352080D02*
Y357160D01*
X628840Y449220D02*
Y484780D01*
X633920Y449220D02*
X644080D01*
X649160D02*
Y484780D01*
X628840D02*
X649160D01*
X628840Y449220D02*
X633920D01*
X644080D02*
X649160D01*
X217160Y96220D02*
Y131780D01*
X201920D02*
X212080D01*
X196840Y96220D02*
Y131780D01*
Y96220D02*
X217160D01*
X212080Y131780D02*
X217160D01*
X196840D02*
X201920D01*
X125160Y96220D02*
Y131780D01*
X109920D02*
X120080D01*
X104840Y96220D02*
Y131780D01*
Y96220D02*
X125160D01*
X120080Y131780D02*
X125160D01*
X104840D02*
X109920D01*
X13220Y532160D02*
X48780D01*
X13220Y516920D02*
Y527080D01*
Y511840D02*
X48780D01*
Y532160D01*
X13220Y527080D02*
Y532160D01*
Y511840D02*
Y516920D01*
X224720Y471160D02*
X260280D01*
X224720Y455920D02*
Y466080D01*
Y450840D02*
X260280D01*
Y471160D01*
X224720Y466080D02*
Y471160D01*
Y450840D02*
Y455920D01*
X440220Y218840D02*
X475780D01*
Y223920D02*
Y234080D01*
X440220Y239160D02*
X475780D01*
X440220Y218840D02*
Y239160D01*
X475780Y218840D02*
Y223920D01*
Y234080D02*
Y239160D01*
X473220Y69840D02*
X508780D01*
Y74920D02*
Y85080D01*
X473220Y90160D02*
X508780D01*
X473220Y69840D02*
Y90160D01*
X508780Y69840D02*
Y74920D01*
Y85080D02*
Y90160D01*
X375220Y59160D02*
X410780D01*
X375220Y43920D02*
Y54080D01*
Y38840D02*
X410780D01*
Y59160D01*
X375220Y54080D02*
Y59160D01*
Y38840D02*
Y43920D01*
X301720Y59160D02*
X337280D01*
X301720Y43920D02*
Y54080D01*
Y38840D02*
X337280D01*
Y59160D01*
X301720Y54080D02*
Y59160D01*
Y38840D02*
Y43920D01*
X337720Y59160D02*
X373280D01*
X337720Y43920D02*
Y54080D01*
Y38840D02*
X373280D01*
Y59160D01*
X337720Y54080D02*
Y59160D01*
Y38840D02*
Y43920D01*
X332720Y80160D02*
X368280D01*
X332720Y64920D02*
Y75080D01*
Y59840D02*
X368280D01*
Y80160D01*
X332720Y75080D02*
Y80160D01*
Y59840D02*
Y64920D01*
X412220Y92160D02*
X447780D01*
X412220Y76920D02*
Y87080D01*
Y71840D02*
X447780D01*
Y92160D01*
X412220Y87080D02*
Y92160D01*
Y71840D02*
Y76920D01*
Y114160D02*
X447780D01*
X412220Y98920D02*
Y109080D01*
Y93840D02*
X447780D01*
Y114160D01*
X412220Y109080D02*
Y114160D01*
Y93840D02*
Y98920D01*
X449720Y114160D02*
X485280D01*
X449720Y98920D02*
Y109080D01*
Y93840D02*
X485280D01*
Y114160D01*
X449720Y109080D02*
Y114160D01*
Y93840D02*
Y98920D01*
X440220Y262160D02*
X475780D01*
X440220Y246920D02*
Y257080D01*
Y241840D02*
X475780D01*
Y262160D01*
X440220Y257080D02*
Y262160D01*
Y241840D02*
Y246920D01*
X400220Y240840D02*
X435780D01*
Y245920D02*
Y256080D01*
X400220Y261160D02*
X435780D01*
X400220Y240840D02*
Y261160D01*
X435780Y240840D02*
Y245920D01*
Y256080D02*
Y261160D01*
X224160Y414220D02*
Y449780D01*
X208920D02*
X219080D01*
X203840Y414220D02*
Y449780D01*
Y414220D02*
X224160D01*
X219080Y449780D02*
X224160D01*
X203840D02*
X208920D01*
X644220Y136160D02*
X679780D01*
X644220Y120920D02*
Y131080D01*
Y115840D02*
X679780D01*
Y136160D01*
X644220Y131080D02*
Y136160D01*
Y115840D02*
Y120920D01*
X266160Y137220D02*
Y172780D01*
X250920D02*
X261080D01*
X245840Y137220D02*
Y172780D01*
Y137220D02*
X266160D01*
X261080Y172780D02*
X266160D01*
X245840D02*
X250920D01*
X45220Y304160D02*
X80780D01*
X45220Y288920D02*
Y299080D01*
Y283840D02*
X80780D01*
Y304160D01*
X45220Y299080D02*
Y304160D01*
Y283840D02*
Y288920D01*
X661160Y183220D02*
Y218780D01*
X645920D02*
X656080D01*
X640840Y183220D02*
Y218780D01*
Y183220D02*
X661160D01*
X656080Y218780D02*
X661160D01*
X640840D02*
X645920D01*
X239160Y96220D02*
Y131780D01*
X223920D02*
X234080D01*
X218840Y96220D02*
Y131780D01*
Y96220D02*
X239160D01*
X234080Y131780D02*
X239160D01*
X218840D02*
X223920D01*
X48220Y240160D02*
X83780D01*
X48220Y224920D02*
Y235080D01*
Y219840D02*
X83780D01*
Y240160D01*
X48220Y235080D02*
Y240160D01*
Y219840D02*
Y224920D01*
X209160Y173220D02*
Y208780D01*
X193920D02*
X204080D01*
X188840Y173220D02*
Y208780D01*
Y173220D02*
X209160D01*
X204080Y208780D02*
X209160D01*
X188840D02*
X193920D01*
X474220Y45840D02*
X509780D01*
Y50920D02*
Y61080D01*
X474220Y66160D02*
X509780D01*
X474220Y45840D02*
Y66160D01*
X509780Y45840D02*
Y50920D01*
Y61080D02*
Y66160D01*
X470160Y56220D02*
Y91780D01*
X454920D02*
X465080D01*
X449840Y56220D02*
Y91780D01*
Y56220D02*
X470160D01*
X465080Y91780D02*
X470160D01*
X449840D02*
X454920D01*
D12*
X85000Y13500D02*
X92000D01*
X100000Y21500D01*
Y39500D01*
X85000Y65500D02*
X100000D01*
Y39500D02*
Y65500D01*
X48000D02*
X63000D01*
X48000Y39500D02*
Y65500D01*
X57000Y13500D02*
X63000D01*
X48000Y22500D02*
X57000Y13500D01*
X48000Y22500D02*
Y39500D01*
X86000Y88000D02*
X93000D01*
X101000Y96000D01*
Y114000D01*
X86000Y140000D02*
X101000D01*
Y114000D02*
Y140000D01*
X49000D02*
X64000D01*
X49000Y114000D02*
Y140000D01*
X58000Y88000D02*
X64000D01*
X49000Y97000D02*
X58000Y88000D01*
X49000Y97000D02*
Y114000D01*
X24000Y222000D02*
X26000D01*
X24000Y153000D02*
X26000D01*
X-18000Y227000D02*
X-1000D01*
X-18000Y149000D02*
Y227000D01*
Y149000D02*
X-1000D01*
X-12000Y188000D02*
Y227000D01*
Y149000D02*
Y227000D01*
X-3000Y221000D02*
Y226000D01*
Y149000D02*
Y226000D01*
X-26000Y135000D02*
Y241000D01*
Y156000D02*
X-21000D01*
X-26000Y221000D02*
X-21000D01*
X-38000Y188000D02*
X-26000D01*
Y189000D01*
X-26000Y188000D02*
X-26000D01*
X-26500Y188500D02*
X-26000D01*
X-31000Y193000D02*
X-26500Y188500D01*
Y187500D02*
Y188500D01*
X-31000Y183000D02*
X-26500Y187500D01*
X227220Y409620D02*
X229760D01*
X227220Y394380D02*
X229760D01*
X227220Y391620D02*
X229760D01*
X227220Y376380D02*
X229760D01*
X226220Y429620D02*
X228760D01*
X226220Y414380D02*
X228760D01*
X586220Y403620D02*
X588760D01*
X586220Y388380D02*
X588760D01*
X180000Y165000D02*
X193000D01*
Y107000D02*
Y165000D01*
X127000D02*
X140000D01*
X127000Y107000D02*
Y165000D01*
M02*
